<mxfile host="app.diagrams.net" modified="2023-11-22T09:16:54.237Z" agent="Mozilla/5.0 (Macintosh; Intel Mac OS X 10_15_7) AppleWebKit/537.36 (KHTML, like Gecko) Chrome/121.0.0.0 Safari/537.36 Edg/121.0.0.0" etag="AEdWFFyqdU7n2JacOj6n" version="22.1.3" type="github">
  <diagram name="Page-1" id="dFWGUpDLk5tvI6SISJfC">
    <mxGraphModel dx="2512" dy="833" grid="1" gridSize="10" guides="1" tooltips="1" connect="1" arrows="1" fold="1" page="1" pageScale="1" pageWidth="827" pageHeight="1169" math="0" shadow="0">
      <root>
        <mxCell id="0" />
        <mxCell id="1" parent="0" />
        <UserObject label="" plantUmlData="{&#xa;  &quot;data&quot;: &quot;@startuml\nfolder \&quot;Cobalt\&quot; {\n  [Networking Stack (net/)]\n  [HTML Parsing (dom/)]\n  [DOM Generation (dom/)]\n  [CSS Parsing (cssom/)]\n  [Stylesheet Generation (cssom/)]\n  [JavaScript Execution (javascript/)]\n  [DOM Modification (dom/...)]\n  [Rendering (render_tree/)]\n  \n  [Media Playback (media/)] --&gt; [MediaPlayer (media/base/)]\n  \n  [Lifecycle Management (cobalt/base/lifecycle/)]\n  [Platform Abstraction (cobalt/export/)]\n  \n  [Hardware Abstraction] --&gt; [Platform Abstraction]\n  \n  package \&quot;Device Specific Implementations\&quot; {\n    [Media Decoder (starboard/...)]\n    [Graphics Renderer (starboard/...)]\n    [Input Handling (starboard/...)]\n    \n    folder \&quot;Hardware Abstraction (starboard/...)\&quot; {\n      [Media Decoder]\n      [Graphics Renderer]\n      [Input Handling]\n    }\n  }\n}\n\n@enduml&quot;,&#xa;  &quot;format&quot;: &quot;svg&quot;&#xa;}" id="J6V1U3YTcORKghmEE3JZ-1">
          <mxCell style="shape=image;noLabel=1;verticalAlign=top;aspect=fixed;imageAspect=0;image=data:image/svg+xml,PD94bWwgdmVyc2lvbj0iMS4wIiBlbmNvZGluZz0idXMtYXNjaWkiIHN0YW5kYWxvbmU9Im5vIj8+PHN2ZyB4bWxucz0iaHR0cDovL3d3dy53My5vcmcvMjAwMC9zdmciIHhtbG5zOnhsaW5rPSJodHRwOi8vd3d3LnczLm9yZy8xOTk5L3hsaW5rIiBjb250ZW50U3R5bGVUeXBlPSJ0ZXh0L2NzcyIgaGVpZ2h0PSIzOTlweCIgcHJlc2VydmVBc3BlY3RSYXRpbz0ibm9uZSIgc3R5bGU9IndpZHRoOjI1ODNweDtoZWlnaHQ6Mzk5cHg7YmFja2dyb3VuZDojRkZGRkZGOyIgdmVyc2lvbj0iMS4xIiB2aWV3Qm94PSIwIDAgMjU4MyAzOTkiIHdpZHRoPSIyNTgzcHgiIHpvb21BbmRQYW49Im1hZ25pZnkiPjxkZWZzLz48Zz48IS0tY2x1c3RlciBDb2JhbHQtLT48ZyBpZD0iY2x1c3Rlcl9Db2JhbHQiPjxwYXRoIGQ9Ik04LjUsNiBMNTEuNSw2IEEzLjc1LDMuNzUgMCAwIDEgNTQsOC41IEw2MSwyNi45ODQ0IEwyNTczLjUsMjYuOTg0NCBBMi41LDIuNSAwIDAgMSAyNTc2LDI5LjQ4NDQgTDI1NzYsMzg5LjUgQTIuNSwyLjUgMCAwIDEgMjU3My41LDM5MiBMOC41LDM5MiBBMi41LDIuNSAwIDAgMSA2LDM4OS41IEw2LDguNSBBMi41LDIuNSAwIDAgMSA4LjUsNiAiIGZpbGw9Im5vbmUiIHN0eWxlPSJzdHJva2U6IzAwMDAwMDtzdHJva2Utd2lkdGg6MS41OyIvPjxsaW5lIHN0eWxlPSJzdHJva2U6IzAwMDAwMDtzdHJva2Utd2lkdGg6MS41OyIgeDE9IjYiIHgyPSI2MSIgeTE9IjI2Ljk4NDQiIHkyPSIyNi45ODQ0Ii8+PHRleHQgZmlsbD0iIzAwMDAwMCIgZm9udC1mYW1pbHk9InNhbnMtc2VyaWYiIGZvbnQtc2l6ZT0iMTQiIGZvbnQtd2VpZ2h0PSJib2xkIiBsZW5ndGhBZGp1c3Q9InNwYWNpbmciIHRleHRMZW5ndGg9IjQyIiB4PSIxMCIgeT0iMjEuMjM0NCI+Q29iYWx0PC90ZXh0PjwvZz48IS0tY2x1c3RlciBEZXZpY2UgU3BlY2lmaWMgSW1wbGVtZW50YXRpb25zLS0+PGcgaWQ9ImNsdXN0ZXJfRGV2aWNlIFNwZWNpZmljIEltcGxlbWVudGF0aW9ucyI+PHBhdGggZD0iTTE1ODUuNSw0NyBMMTgwNS41LDQ3IEEzLjc1LDMuNzUgMCAwIDEgMTgwOCw0OS41IEwxODE1LDY3Ljk4NDQgTDI1NDkuNSw2Ny45ODQ0IEEyLjUsMi41IDAgMCAxIDI1NTIsNzAuNDg0NCBMMjU1MiwzMDguNSBBMi41LDIuNSAwIDAgMSAyNTQ5LjUsMzExIEwxNTg1LjUsMzExIEEyLjUsMi41IDAgMCAxIDE1ODMsMzA4LjUgTDE1ODMsNDkuNSBBMi41LDIuNSAwIDAgMSAxNTg1LjUsNDcgIiBmaWxsPSJub25lIiBzdHlsZT0ic3Ryb2tlOiMwMDAwMDA7c3Ryb2tlLXdpZHRoOjEuNTsiLz48bGluZSBzdHlsZT0ic3Ryb2tlOiMwMDAwMDA7c3Ryb2tlLXdpZHRoOjEuNTsiIHgxPSIxNTgzIiB4Mj0iMTgxNSIgeTE9IjY3Ljk4NDQiIHkyPSI2Ny45ODQ0Ii8+PHRleHQgZmlsbD0iIzAwMDAwMCIgZm9udC1mYW1pbHk9InNhbnMtc2VyaWYiIGZvbnQtc2l6ZT0iMTQiIGZvbnQtd2VpZ2h0PSJib2xkIiBsZW5ndGhBZGp1c3Q9InNwYWNpbmciIHRleHRMZW5ndGg9IjIxOSIgeD0iMTU4NyIgeT0iNjIuMjM0NCI+RGV2aWNlIFNwZWNpZmljIEltcGxlbWVudGF0aW9uczwvdGV4dD48L2c+PCEtLWNsdXN0ZXIgSGFyZHdhcmUgQWJzdHJhY3Rpb24gKHN0YXJib2FyZC8uLi4pLS0+PGcgaWQ9ImNsdXN0ZXJfSGFyZHdhcmUgQWJzdHJhY3Rpb24gKHN0YXJib2FyZC8uLi4pIj48cGF0aCBkPSJNMjE3My41LDg4IEwyNDI5LjUsODggQTMuNzUsMy43NSAwIDAgMSAyNDMyLDkwLjUgTDI0MzksMTA4Ljk4NDQgTDI1MjUuNSwxMDguOTg0NCBBMi41LDIuNSAwIDAgMSAyNTI4LDExMS40ODQ0IEwyNTI4LDI4NC41IEEyLjUsMi41IDAgMCAxIDI1MjUuNSwyODcgTDIxNzMuNSwyODcgQTIuNSwyLjUgMCAwIDEgMjE3MSwyODQuNSBMMjE3MSw5MC41IEEyLjUsMi41IDAgMCAxIDIxNzMuNSw4OCAiIGZpbGw9Im5vbmUiIHN0eWxlPSJzdHJva2U6IzAwMDAwMDtzdHJva2Utd2lkdGg6MS41OyIvPjxsaW5lIHN0eWxlPSJzdHJva2U6IzAwMDAwMDtzdHJva2Utd2lkdGg6MS41OyIgeDE9IjIxNzEiIHgyPSIyNDM5IiB5MT0iMTA4Ljk4NDQiIHkyPSIxMDguOTg0NCIvPjx0ZXh0IGZpbGw9IiMwMDAwMDAiIGZvbnQtZmFtaWx5PSJzYW5zLXNlcmlmIiBmb250LXNpemU9IjE0IiBmb250LXdlaWdodD0iYm9sZCIgbGVuZ3RoQWRqdXN0PSJzcGFjaW5nIiB0ZXh0TGVuZ3RoPSIyNTUiIHg9IjIxNzUiIHk9IjEwMy4yMzQ0Ij5IYXJkd2FyZSBBYnN0cmFjdGlvbiAoc3RhcmJvYXJkLy4uLik8L3RleHQ+PC9nPjwhLS1lbnRpdHkgTmV0d29ya2luZyBTdGFjayAobmV0LyktLT48ZyBpZD0iZWxlbV9OZXR3b3JraW5nIFN0YWNrIChuZXQvKSI+PHJlY3QgZmlsbD0iI0YxRjFGMSIgaGVpZ2h0PSI0NC45ODQ0IiByeD0iMi41IiByeT0iMi41IiBzdHlsZT0ic3Ryb2tlOiMxODE4MTg7c3Ryb2tlLXdpZHRoOjAuNTsiIHdpZHRoPSIyMDQiIHg9IjUxNyIgeT0iMTIxIi8+PHJlY3QgZmlsbD0iI0YxRjFGMSIgaGVpZ2h0PSIxMCIgc3R5bGU9InN0cm9rZTojMTgxODE4O3N0cm9rZS13aWR0aDowLjU7IiB3aWR0aD0iMTUiIHg9IjcwMSIgeT0iMTI2Ii8+PHJlY3QgZmlsbD0iI0YxRjFGMSIgaGVpZ2h0PSIyIiBzdHlsZT0ic3Ryb2tlOiMxODE4MTg7c3Ryb2tlLXdpZHRoOjAuNTsiIHdpZHRoPSI0IiB4PSI2OTkiIHk9IjEyOCIvPjxyZWN0IGZpbGw9IiNGMUYxRjEiIGhlaWdodD0iMiIgc3R5bGU9InN0cm9rZTojMTgxODE4O3N0cm9rZS13aWR0aDowLjU7IiB3aWR0aD0iNCIgeD0iNjk5IiB5PSIxMzIiLz48dGV4dCBmaWxsPSIjMDAwMDAwIiBmb250LWZhbWlseT0ic2Fucy1zZXJpZiIgZm9udC1zaXplPSIxNCIgbGVuZ3RoQWRqdXN0PSJzcGFjaW5nIiB0ZXh0TGVuZ3RoPSIxNjQiIHg9IjUzMiIgeT0iMTU0LjIzNDQiPk5ldHdvcmtpbmcgU3RhY2sgKG5ldC8pPC90ZXh0PjwvZz48IS0tZW50aXR5IEhUTUwgUGFyc2luZyAoZG9tLyktLT48ZyBpZD0iZWxlbV9IVE1MIFBhcnNpbmcgKGRvbS8pIj48cmVjdCBmaWxsPSIjRjFGMUYxIiBoZWlnaHQ9IjQ0Ljk4NDQiIHJ4PSIyLjUiIHJ5PSIyLjUiIHN0eWxlPSJzdHJva2U6IzE4MTgxODtzdHJva2Utd2lkdGg6MC41OyIgd2lkdGg9IjE3NiIgeD0iNzU2IiB5PSIxMjEiLz48cmVjdCBmaWxsPSIjRjFGMUYxIiBoZWlnaHQ9IjEwIiBzdHlsZT0ic3Ryb2tlOiMxODE4MTg7c3Ryb2tlLXdpZHRoOjAuNTsiIHdpZHRoPSIxNSIgeD0iOTEyIiB5PSIxMjYiLz48cmVjdCBmaWxsPSIjRjFGMUYxIiBoZWlnaHQ9IjIiIHN0eWxlPSJzdHJva2U6IzE4MTgxODtzdHJva2Utd2lkdGg6MC41OyIgd2lkdGg9IjQiIHg9IjkxMCIgeT0iMTI4Ii8+PHJlY3QgZmlsbD0iI0YxRjFGMSIgaGVpZ2h0PSIyIiBzdHlsZT0ic3Ryb2tlOiMxODE4MTg7c3Ryb2tlLXdpZHRoOjAuNTsiIHdpZHRoPSI0IiB4PSI5MTAiIHk9IjEzMiIvPjx0ZXh0IGZpbGw9IiMwMDAwMDAiIGZvbnQtZmFtaWx5PSJzYW5zLXNlcmlmIiBmb250LXNpemU9IjE0IiBsZW5ndGhBZGp1c3Q9InNwYWNpbmciIHRleHRMZW5ndGg9IjEzNiIgeD0iNzcxIiB5PSIxNTQuMjM0NCI+SFRNTCBQYXJzaW5nIChkb20vKTwvdGV4dD48L2c+PCEtLWVudGl0eSBET00gR2VuZXJhdGlvbiAoZG9tLyktLT48ZyBpZD0iZWxlbV9ET00gR2VuZXJhdGlvbiAoZG9tLykiPjxyZWN0IGZpbGw9IiNGMUYxRjEiIGhlaWdodD0iNDQuOTg0NCIgcng9IjIuNSIgcnk9IjIuNSIgc3R5bGU9InN0cm9rZTojMTgxODE4O3N0cm9rZS13aWR0aDowLjU7IiB3aWR0aD0iMTkwIiB4PSI5NjciIHk9IjEyMSIvPjxyZWN0IGZpbGw9IiNGMUYxRjEiIGhlaWdodD0iMTAiIHN0eWxlPSJzdHJva2U6IzE4MTgxODtzdHJva2Utd2lkdGg6MC41OyIgd2lkdGg9IjE1IiB4PSIxMTM3IiB5PSIxMjYiLz48cmVjdCBmaWxsPSIjRjFGMUYxIiBoZWlnaHQ9IjIiIHN0eWxlPSJzdHJva2U6IzE4MTgxODtzdHJva2Utd2lkdGg6MC41OyIgd2lkdGg9IjQiIHg9IjExMzUiIHk9IjEyOCIvPjxyZWN0IGZpbGw9IiNGMUYxRjEiIGhlaWdodD0iMiIgc3R5bGU9InN0cm9rZTojMTgxODE4O3N0cm9rZS13aWR0aDowLjU7IiB3aWR0aD0iNCIgeD0iMTEzNSIgeT0iMTMyIi8+PHRleHQgZmlsbD0iIzAwMDAwMCIgZm9udC1mYW1pbHk9InNhbnMtc2VyaWYiIGZvbnQtc2l6ZT0iMTQiIGxlbmd0aEFkanVzdD0ic3BhY2luZyIgdGV4dExlbmd0aD0iMTUwIiB4PSI5ODIiIHk9IjE1NC4yMzQ0Ij5ET00gR2VuZXJhdGlvbiAoZG9tLyk8L3RleHQ+PC9nPjwhLS1lbnRpdHkgQ1NTIFBhcnNpbmcgKGNzc29tLyktLT48ZyBpZD0iZWxlbV9DU1MgUGFyc2luZyAoY3Nzb20vKSI+PHJlY3QgZmlsbD0iI0YxRjFGMSIgaGVpZ2h0PSI0NC45ODQ0IiByeD0iMi41IiByeT0iMi41IiBzdHlsZT0ic3Ryb2tlOiMxODE4MTg7c3Ryb2tlLXdpZHRoOjAuNTsiIHdpZHRoPSIxODMiIHg9IjExOTIuNSIgeT0iMTIxIi8+PHJlY3QgZmlsbD0iI0YxRjFGMSIgaGVpZ2h0PSIxMCIgc3R5bGU9InN0cm9rZTojMTgxODE4O3N0cm9rZS13aWR0aDowLjU7IiB3aWR0aD0iMTUiIHg9IjEzNTUuNSIgeT0iMTI2Ii8+PHJlY3QgZmlsbD0iI0YxRjFGMSIgaGVpZ2h0PSIyIiBzdHlsZT0ic3Ryb2tlOiMxODE4MTg7c3Ryb2tlLXdpZHRoOjAuNTsiIHdpZHRoPSI0IiB4PSIxMzUzLjUiIHk9IjEyOCIvPjxyZWN0IGZpbGw9IiNGMUYxRjEiIGhlaWdodD0iMiIgc3R5bGU9InN0cm9rZTojMTgxODE4O3N0cm9rZS13aWR0aDowLjU7IiB3aWR0aD0iNCIgeD0iMTM1My41IiB5PSIxMzIiLz48dGV4dCBmaWxsPSIjMDAwMDAwIiBmb250LWZhbWlseT0ic2Fucy1zZXJpZiIgZm9udC1zaXplPSIxNCIgbGVuZ3RoQWRqdXN0PSJzcGFjaW5nIiB0ZXh0TGVuZ3RoPSIxNDMiIHg9IjEyMDcuNSIgeT0iMTU0LjIzNDQiPkNTUyBQYXJzaW5nIChjc3NvbS8pPC90ZXh0PjwvZz48IS0tZW50aXR5IFN0eWxlc2hlZXQgR2VuZXJhdGlvbiAoY3Nzb20vKS0tPjxnIGlkPSJlbGVtX1N0eWxlc2hlZXQgR2VuZXJhdGlvbiAoY3Nzb20vKSI+PHJlY3QgZmlsbD0iI0YxRjFGMSIgaGVpZ2h0PSI0NC45ODQ0IiByeD0iMi41IiByeT0iMi41IiBzdHlsZT0ic3Ryb2tlOiMxODE4MTg7c3Ryb2tlLXdpZHRoOjAuNTsiIHdpZHRoPSIyNTMiIHg9IjQ5Mi41IiB5PSIyMjYiLz48cmVjdCBmaWxsPSIjRjFGMUYxIiBoZWlnaHQ9IjEwIiBzdHlsZT0ic3Ryb2tlOiMxODE4MTg7c3Ryb2tlLXdpZHRoOjAuNTsiIHdpZHRoPSIxNSIgeD0iNzI1LjUiIHk9IjIzMSIvPjxyZWN0IGZpbGw9IiNGMUYxRjEiIGhlaWdodD0iMiIgc3R5bGU9InN0cm9rZTojMTgxODE4O3N0cm9rZS13aWR0aDowLjU7IiB3aWR0aD0iNCIgeD0iNzIzLjUiIHk9IjIzMyIvPjxyZWN0IGZpbGw9IiNGMUYxRjEiIGhlaWdodD0iMiIgc3R5bGU9InN0cm9rZTojMTgxODE4O3N0cm9rZS13aWR0aDowLjU7IiB3aWR0aD0iNCIgeD0iNzIzLjUiIHk9IjIzNyIvPjx0ZXh0IGZpbGw9IiMwMDAwMDAiIGZvbnQtZmFtaWx5PSJzYW5zLXNlcmlmIiBmb250LXNpemU9IjE0IiBsZW5ndGhBZGp1c3Q9InNwYWNpbmciIHRleHRMZW5ndGg9IjIxMyIgeD0iNTA3LjUiIHk9IjI1OS4yMzQ0Ij5TdHlsZXNoZWV0IEdlbmVyYXRpb24gKGNzc29tLyk8L3RleHQ+PC9nPjwhLS1lbnRpdHkgSmF2YVNjcmlwdCBFeGVjdXRpb24gKGphdmFzY3JpcHQvKS0tPjxnIGlkPSJlbGVtX0phdmFTY3JpcHQgRXhlY3V0aW9uIChqYXZhc2NyaXB0LykiPjxyZWN0IGZpbGw9IiNGMUYxRjEiIGhlaWdodD0iNDQuOTg0NCIgcng9IjIuNSIgcnk9IjIuNSIgc3R5bGU9InN0cm9rZTojMTgxODE4O3N0cm9rZS13aWR0aDowLjU7IiB3aWR0aD0iMjgxIiB4PSI3ODAuNSIgeT0iMjI2Ii8+PHJlY3QgZmlsbD0iI0YxRjFGMSIgaGVpZ2h0PSIxMCIgc3R5bGU9InN0cm9rZTojMTgxODE4O3N0cm9rZS13aWR0aDowLjU7IiB3aWR0aD0iMTUiIHg9IjEwNDEuNSIgeT0iMjMxIi8+PHJlY3QgZmlsbD0iI0YxRjFGMSIgaGVpZ2h0PSIyIiBzdHlsZT0ic3Ryb2tlOiMxODE4MTg7c3Ryb2tlLXdpZHRoOjAuNTsiIHdpZHRoPSI0IiB4PSIxMDM5LjUiIHk9IjIzMyIvPjxyZWN0IGZpbGw9IiNGMUYxRjEiIGhlaWdodD0iMiIgc3R5bGU9InN0cm9rZTojMTgxODE4O3N0cm9rZS13aWR0aDowLjU7IiB3aWR0aD0iNCIgeD0iMTAzOS41IiB5PSIyMzciLz48dGV4dCBmaWxsPSIjMDAwMDAwIiBmb250LWZhbWlseT0ic2Fucy1zZXJpZiIgZm9udC1zaXplPSIxNCIgbGVuZ3RoQWRqdXN0PSJzcGFjaW5nIiB0ZXh0TGVuZ3RoPSIyNDEiIHg9Ijc5NS41IiB5PSIyNTkuMjM0NCI+SmF2YVNjcmlwdCBFeGVjdXRpb24gKGphdmFzY3JpcHQvKTwvdGV4dD48L2c+PCEtLWVudGl0eSBET00gTW9kaWZpY2F0aW9uIChkb20vLi4uKS0tPjxnIGlkPSJlbGVtX0RPTSBNb2RpZmljYXRpb24gKGRvbS8uLi4pIj48cmVjdCBmaWxsPSIjRjFGMUYxIiBoZWlnaHQ9IjQ0Ljk4NDQiIHJ4PSIyLjUiIHJ5PSIyLjUiIHN0eWxlPSJzdHJva2U6IzE4MTgxODtzdHJva2Utd2lkdGg6MC41OyIgd2lkdGg9IjIyNSIgeD0iMTA5Ni41IiB5PSIyMjYiLz48cmVjdCBmaWxsPSIjRjFGMUYxIiBoZWlnaHQ9IjEwIiBzdHlsZT0ic3Ryb2tlOiMxODE4MTg7c3Ryb2tlLXdpZHRoOjAuNTsiIHdpZHRoPSIxNSIgeD0iMTMwMS41IiB5PSIyMzEiLz48cmVjdCBmaWxsPSIjRjFGMUYxIiBoZWlnaHQ9IjIiIHN0eWxlPSJzdHJva2U6IzE4MTgxODtzdHJva2Utd2lkdGg6MC41OyIgd2lkdGg9IjQiIHg9IjEyOTkuNSIgeT0iMjMzIi8+PHJlY3QgZmlsbD0iI0YxRjFGMSIgaGVpZ2h0PSIyIiBzdHlsZT0ic3Ryb2tlOiMxODE4MTg7c3Ryb2tlLXdpZHRoOjAuNTsiIHdpZHRoPSI0IiB4PSIxMjk5LjUiIHk9IjIzNyIvPjx0ZXh0IGZpbGw9IiMwMDAwMDAiIGZvbnQtZmFtaWx5PSJzYW5zLXNlcmlmIiBmb250LXNpemU9IjE0IiBsZW5ndGhBZGp1c3Q9InNwYWNpbmciIHRleHRMZW5ndGg9IjE4NSIgeD0iMTExMS41IiB5PSIyNTkuMjM0NCI+RE9NIE1vZGlmaWNhdGlvbiAoZG9tLy4uLik8L3RleHQ+PC9nPjwhLS1lbnRpdHkgUmVuZGVyaW5nIChyZW5kZXJfdHJlZS8pLS0+PGcgaWQ9ImVsZW1fUmVuZGVyaW5nIChyZW5kZXJfdHJlZS8pIj48cmVjdCBmaWxsPSIjRjFGMUYxIiBoZWlnaHQ9IjQ0Ljk4NDQiIHJ4PSIyLjUiIHJ5PSIyLjUiIHN0eWxlPSJzdHJva2U6IzE4MTgxODtzdHJva2Utd2lkdGg6MC41OyIgd2lkdGg9IjIxMCIgeD0iMTM1NyIgeT0iMjI2Ii8+PHJlY3QgZmlsbD0iI0YxRjFGMSIgaGVpZ2h0PSIxMCIgc3R5bGU9InN0cm9rZTojMTgxODE4O3N0cm9rZS13aWR0aDowLjU7IiB3aWR0aD0iMTUiIHg9IjE1NDciIHk9IjIzMSIvPjxyZWN0IGZpbGw9IiNGMUYxRjEiIGhlaWdodD0iMiIgc3R5bGU9InN0cm9rZTojMTgxODE4O3N0cm9rZS13aWR0aDowLjU7IiB3aWR0aD0iNCIgeD0iMTU0NSIgeT0iMjMzIi8+PHJlY3QgZmlsbD0iI0YxRjFGMSIgaGVpZ2h0PSIyIiBzdHlsZT0ic3Ryb2tlOiMxODE4MTg7c3Ryb2tlLXdpZHRoOjAuNTsiIHdpZHRoPSI0IiB4PSIxNTQ1IiB5PSIyMzciLz48dGV4dCBmaWxsPSIjMDAwMDAwIiBmb250LWZhbWlseT0ic2Fucy1zZXJpZiIgZm9udC1zaXplPSIxNCIgbGVuZ3RoQWRqdXN0PSJzcGFjaW5nIiB0ZXh0TGVuZ3RoPSIxNzAiIHg9IjEzNzIiIHk9IjI1OS4yMzQ0Ij5SZW5kZXJpbmcgKHJlbmRlcl90cmVlLyk8L3RleHQ+PC9nPjwhLS1lbnRpdHkgTWVkaWEgUGxheWJhY2sgKG1lZGlhLyktLT48ZyBpZD0iZWxlbV9NZWRpYSBQbGF5YmFjayAobWVkaWEvKSI+PHJlY3QgZmlsbD0iI0YxRjFGMSIgaGVpZ2h0PSI0NC45ODQ0IiByeD0iMi41IiByeT0iMi41IiBzdHlsZT0ic3Ryb2tlOiMxODE4MTg7c3Ryb2tlLXdpZHRoOjAuNTsiIHdpZHRoPSIyMDQiIHg9IjI0NiIgeT0iMTIxIi8+PHJlY3QgZmlsbD0iI0YxRjFGMSIgaGVpZ2h0PSIxMCIgc3R5bGU9InN0cm9rZTojMTgxODE4O3N0cm9rZS13aWR0aDowLjU7IiB3aWR0aD0iMTUiIHg9IjQzMCIgeT0iMTI2Ii8+PHJlY3QgZmlsbD0iI0YxRjFGMSIgaGVpZ2h0PSIyIiBzdHlsZT0ic3Ryb2tlOiMxODE4MTg7c3Ryb2tlLXdpZHRoOjAuNTsiIHdpZHRoPSI0IiB4PSI0MjgiIHk9IjEyOCIvPjxyZWN0IGZpbGw9IiNGMUYxRjEiIGhlaWdodD0iMiIgc3R5bGU9InN0cm9rZTojMTgxODE4O3N0cm9rZS13aWR0aDowLjU7IiB3aWR0aD0iNCIgeD0iNDI4IiB5PSIxMzIiLz48dGV4dCBmaWxsPSIjMDAwMDAwIiBmb250LWZhbWlseT0ic2Fucy1zZXJpZiIgZm9udC1zaXplPSIxNCIgbGVuZ3RoQWRqdXN0PSJzcGFjaW5nIiB0ZXh0TGVuZ3RoPSIxNjQiIHg9IjI2MSIgeT0iMTU0LjIzNDQiPk1lZGlhIFBsYXliYWNrIChtZWRpYS8pPC90ZXh0PjwvZz48IS0tZW50aXR5IE1lZGlhUGxheWVyIChtZWRpYS9iYXNlLyktLT48ZyBpZD0iZWxlbV9NZWRpYVBsYXllciAobWVkaWEvYmFzZS8pIj48cmVjdCBmaWxsPSIjRjFGMUYxIiBoZWlnaHQ9IjQ0Ljk4NDQiIHJ4PSIyLjUiIHJ5PSIyLjUiIHN0eWxlPSJzdHJva2U6IzE4MTgxODtzdHJva2Utd2lkdGg6MC41OyIgd2lkdGg9IjIxOCIgeD0iMjM5IiB5PSIyMjYiLz48cmVjdCBmaWxsPSIjRjFGMUYxIiBoZWlnaHQ9IjEwIiBzdHlsZT0ic3Ryb2tlOiMxODE4MTg7c3Ryb2tlLXdpZHRoOjAuNTsiIHdpZHRoPSIxNSIgeD0iNDM3IiB5PSIyMzEiLz48cmVjdCBmaWxsPSIjRjFGMUYxIiBoZWlnaHQ9IjIiIHN0eWxlPSJzdHJva2U6IzE4MTgxODtzdHJva2Utd2lkdGg6MC41OyIgd2lkdGg9IjQiIHg9IjQzNSIgeT0iMjMzIi8+PHJlY3QgZmlsbD0iI0YxRjFGMSIgaGVpZ2h0PSIyIiBzdHlsZT0ic3Ryb2tlOiMxODE4MTg7c3Ryb2tlLXdpZHRoOjAuNTsiIHdpZHRoPSI0IiB4PSI0MzUiIHk9IjIzNyIvPjx0ZXh0IGZpbGw9IiMwMDAwMDAiIGZvbnQtZmFtaWx5PSJzYW5zLXNlcmlmIiBmb250LXNpemU9IjE0IiBsZW5ndGhBZGp1c3Q9InNwYWNpbmciIHRleHRMZW5ndGg9IjE3OCIgeD0iMjU0IiB5PSIyNTkuMjM0NCI+TWVkaWFQbGF5ZXIgKG1lZGlhL2Jhc2UvKTwvdGV4dD48L2c+PCEtLWVudGl0eSBMaWZlY3ljbGUgTWFuYWdlbWVudCAoY29iYWx0L2Jhc2UvbGlmZWN5Y2xlLyktLT48ZyBpZD0iZWxlbV9MaWZlY3ljbGUgTWFuYWdlbWVudCAoY29iYWx0L2Jhc2UvbGlmZWN5Y2xlLykiPjxyZWN0IGZpbGw9IiNGMUYxRjEiIGhlaWdodD0iNDQuOTg0NCIgcng9IjIuNSIgcnk9IjIuNSIgc3R5bGU9InN0cm9rZTojMTgxODE4O3N0cm9rZS13aWR0aDowLjU7IiB3aWR0aD0iMzU4IiB4PSI0NDAiIHk9IjMzMSIvPjxyZWN0IGZpbGw9IiNGMUYxRjEiIGhlaWdodD0iMTAiIHN0eWxlPSJzdHJva2U6IzE4MTgxODtzdHJva2Utd2lkdGg6MC41OyIgd2lkdGg9IjE1IiB4PSI3NzgiIHk9IjMzNiIvPjxyZWN0IGZpbGw9IiNGMUYxRjEiIGhlaWdodD0iMiIgc3R5bGU9InN0cm9rZTojMTgxODE4O3N0cm9rZS13aWR0aDowLjU7IiB3aWR0aD0iNCIgeD0iNzc2IiB5PSIzMzgiLz48cmVjdCBmaWxsPSIjRjFGMUYxIiBoZWlnaHQ9IjIiIHN0eWxlPSJzdHJva2U6IzE4MTgxODtzdHJva2Utd2lkdGg6MC41OyIgd2lkdGg9IjQiIHg9Ijc3NiIgeT0iMzQyIi8+PHRleHQgZmlsbD0iIzAwMDAwMCIgZm9udC1mYW1pbHk9InNhbnMtc2VyaWYiIGZvbnQtc2l6ZT0iMTQiIGxlbmd0aEFkanVzdD0ic3BhY2luZyIgdGV4dExlbmd0aD0iMzE4IiB4PSI0NTUiIHk9IjM2NC4yMzQ0Ij5MaWZlY3ljbGUgTWFuYWdlbWVudCAoY29iYWx0L2Jhc2UvbGlmZWN5Y2xlLyk8L3RleHQ+PC9nPjwhLS1lbnRpdHkgUGxhdGZvcm0gQWJzdHJhY3Rpb24gKGNvYmFsdC9leHBvcnQvKS0tPjxnIGlkPSJlbGVtX1BsYXRmb3JtIEFic3RyYWN0aW9uIChjb2JhbHQvZXhwb3J0LykiPjxyZWN0IGZpbGw9IiNGMUYxRjEiIGhlaWdodD0iNDQuOTg0NCIgcng9IjIuNSIgcnk9IjIuNSIgc3R5bGU9InN0cm9rZTojMTgxODE4O3N0cm9rZS13aWR0aDowLjU7IiB3aWR0aD0iMzAyIiB4PSI4MzMiIHk9IjMzMSIvPjxyZWN0IGZpbGw9IiNGMUYxRjEiIGhlaWdodD0iMTAiIHN0eWxlPSJzdHJva2U6IzE4MTgxODtzdHJva2Utd2lkdGg6MC41OyIgd2lkdGg9IjE1IiB4PSIxMTE1IiB5PSIzMzYiLz48cmVjdCBmaWxsPSIjRjFGMUYxIiBoZWlnaHQ9IjIiIHN0eWxlPSJzdHJva2U6IzE4MTgxODtzdHJva2Utd2lkdGg6MC41OyIgd2lkdGg9IjQiIHg9IjExMTMiIHk9IjMzOCIvPjxyZWN0IGZpbGw9IiNGMUYxRjEiIGhlaWdodD0iMiIgc3R5bGU9InN0cm9rZTojMTgxODE4O3N0cm9rZS13aWR0aDowLjU7IiB3aWR0aD0iNCIgeD0iMTExMyIgeT0iMzQyIi8+PHRleHQgZmlsbD0iIzAwMDAwMCIgZm9udC1mYW1pbHk9InNhbnMtc2VyaWYiIGZvbnQtc2l6ZT0iMTQiIGxlbmd0aEFkanVzdD0ic3BhY2luZyIgdGV4dExlbmd0aD0iMjYyIiB4PSI4NDgiIHk9IjM2NC4yMzQ0Ij5QbGF0Zm9ybSBBYnN0cmFjdGlvbiAoY29iYWx0L2V4cG9ydC8pPC90ZXh0PjwvZz48IS0tZW50aXR5IEhhcmR3YXJlIEFic3RyYWN0aW9uLS0+PGcgaWQ9ImVsZW1fSGFyZHdhcmUgQWJzdHJhY3Rpb24iPjxyZWN0IGZpbGw9IiNGMUYxRjEiIGhlaWdodD0iNDQuOTg0NCIgcng9IjIuNSIgcnk9IjIuNSIgc3R5bGU9InN0cm9rZTojMTgxODE4O3N0cm9rZS13aWR0aDowLjU7IiB3aWR0aD0iMTgxIiB4PSIyMi41IiB5PSIxMjEiLz48cmVjdCBmaWxsPSIjRjFGMUYxIiBoZWlnaHQ9IjEwIiBzdHlsZT0ic3Ryb2tlOiMxODE4MTg7c3Ryb2tlLXdpZHRoOjAuNTsiIHdpZHRoPSIxNSIgeD0iMTgzLjUiIHk9IjEyNiIvPjxyZWN0IGZpbGw9IiNGMUYxRjEiIGhlaWdodD0iMiIgc3R5bGU9InN0cm9rZTojMTgxODE4O3N0cm9rZS13aWR0aDowLjU7IiB3aWR0aD0iNCIgeD0iMTgxLjUiIHk9IjEyOCIvPjxyZWN0IGZpbGw9IiNGMUYxRjEiIGhlaWdodD0iMiIgc3R5bGU9InN0cm9rZTojMTgxODE4O3N0cm9rZS13aWR0aDowLjU7IiB3aWR0aD0iNCIgeD0iMTgxLjUiIHk9IjEzMiIvPjx0ZXh0IGZpbGw9IiMwMDAwMDAiIGZvbnQtZmFtaWx5PSJzYW5zLXNlcmlmIiBmb250LXNpemU9IjE0IiBsZW5ndGhBZGp1c3Q9InNwYWNpbmciIHRleHRMZW5ndGg9IjE0MSIgeD0iMzcuNSIgeT0iMTU0LjIzNDQiPkhhcmR3YXJlIEFic3RyYWN0aW9uPC90ZXh0PjwvZz48IS0tZW50aXR5IFBsYXRmb3JtIEFic3RyYWN0aW9uLS0+PGcgaWQ9ImVsZW1fUGxhdGZvcm0gQWJzdHJhY3Rpb24iPjxyZWN0IGZpbGw9IiNGMUYxRjEiIGhlaWdodD0iNDQuOTg0NCIgcng9IjIuNSIgcnk9IjIuNSIgc3R5bGU9InN0cm9rZTojMTgxODE4O3N0cm9rZS13aWR0aDowLjU7IiB3aWR0aD0iMTgxIiB4PSIyMi41IiB5PSIyMjYiLz48cmVjdCBmaWxsPSIjRjFGMUYxIiBoZWlnaHQ9IjEwIiBzdHlsZT0ic3Ryb2tlOiMxODE4MTg7c3Ryb2tlLXdpZHRoOjAuNTsiIHdpZHRoPSIxNSIgeD0iMTgzLjUiIHk9IjIzMSIvPjxyZWN0IGZpbGw9IiNGMUYxRjEiIGhlaWdodD0iMiIgc3R5bGU9InN0cm9rZTojMTgxODE4O3N0cm9rZS13aWR0aDowLjU7IiB3aWR0aD0iNCIgeD0iMTgxLjUiIHk9IjIzMyIvPjxyZWN0IGZpbGw9IiNGMUYxRjEiIGhlaWdodD0iMiIgc3R5bGU9InN0cm9rZTojMTgxODE4O3N0cm9rZS13aWR0aDowLjU7IiB3aWR0aD0iNCIgeD0iMTgxLjUiIHk9IjIzNyIvPjx0ZXh0IGZpbGw9IiMwMDAwMDAiIGZvbnQtZmFtaWx5PSJzYW5zLXNlcmlmIiBmb250LXNpemU9IjE0IiBsZW5ndGhBZGp1c3Q9InNwYWNpbmciIHRleHRMZW5ndGg9IjE0MSIgeD0iMzcuNSIgeT0iMjU5LjIzNDQiPlBsYXRmb3JtIEFic3RyYWN0aW9uPC90ZXh0PjwvZz48IS0tZW50aXR5IE1lZGlhIERlY29kZXIgKHN0YXJib2FyZC8uLi4pLS0+PGcgaWQ9ImVsZW1fTWVkaWEgRGVjb2RlciAoc3RhcmJvYXJkLy4uLikiPjxyZWN0IGZpbGw9IiNGMUYxRjEiIGhlaWdodD0iNDQuOTg0NCIgcng9IjIuNSIgcnk9IjIuNSIgc3R5bGU9InN0cm9rZTojMTgxODE4O3N0cm9rZS13aWR0aDowLjU7IiB3aWR0aD0iMjQ1IiB4PSIxNTk5LjUiIHk9IjEyMSIvPjxyZWN0IGZpbGw9IiNGMUYxRjEiIGhlaWdodD0iMTAiIHN0eWxlPSJzdHJva2U6IzE4MTgxODtzdHJva2Utd2lkdGg6MC41OyIgd2lkdGg9IjE1IiB4PSIxODI0LjUiIHk9IjEyNiIvPjxyZWN0IGZpbGw9IiNGMUYxRjEiIGhlaWdodD0iMiIgc3R5bGU9InN0cm9rZTojMTgxODE4O3N0cm9rZS13aWR0aDowLjU7IiB3aWR0aD0iNCIgeD0iMTgyMi41IiB5PSIxMjgiLz48cmVjdCBmaWxsPSIjRjFGMUYxIiBoZWlnaHQ9IjIiIHN0eWxlPSJzdHJva2U6IzE4MTgxODtzdHJva2Utd2lkdGg6MC41OyIgd2lkdGg9IjQiIHg9IjE4MjIuNSIgeT0iMTMyIi8+PHRleHQgZmlsbD0iIzAwMDAwMCIgZm9udC1mYW1pbHk9InNhbnMtc2VyaWYiIGZvbnQtc2l6ZT0iMTQiIGxlbmd0aEFkanVzdD0ic3BhY2luZyIgdGV4dExlbmd0aD0iMjA1IiB4PSIxNjE0LjUiIHk9IjE1NC4yMzQ0Ij5NZWRpYSBEZWNvZGVyIChzdGFyYm9hcmQvLi4uKTwvdGV4dD48L2c+PCEtLWVudGl0eSBHcmFwaGljcyBSZW5kZXJlciAoc3RhcmJvYXJkLy4uLiktLT48ZyBpZD0iZWxlbV9HcmFwaGljcyBSZW5kZXJlciAoc3RhcmJvYXJkLy4uLikiPjxyZWN0IGZpbGw9IiNGMUYxRjEiIGhlaWdodD0iNDQuOTg0NCIgcng9IjIuNSIgcnk9IjIuNSIgc3R5bGU9InN0cm9rZTojMTgxODE4O3N0cm9rZS13aWR0aDowLjU7IiB3aWR0aD0iMjczIiB4PSIxODc5LjUiIHk9IjEyMSIvPjxyZWN0IGZpbGw9IiNGMUYxRjEiIGhlaWdodD0iMTAiIHN0eWxlPSJzdHJva2U6IzE4MTgxODtzdHJva2Utd2lkdGg6MC41OyIgd2lkdGg9IjE1IiB4PSIyMTMyLjUiIHk9IjEyNiIvPjxyZWN0IGZpbGw9IiNGMUYxRjEiIGhlaWdodD0iMiIgc3R5bGU9InN0cm9rZTojMTgxODE4O3N0cm9rZS13aWR0aDowLjU7IiB3aWR0aD0iNCIgeD0iMjEzMC41IiB5PSIxMjgiLz48cmVjdCBmaWxsPSIjRjFGMUYxIiBoZWlnaHQ9IjIiIHN0eWxlPSJzdHJva2U6IzE4MTgxODtzdHJva2Utd2lkdGg6MC41OyIgd2lkdGg9IjQiIHg9IjIxMzAuNSIgeT0iMTMyIi8+PHRleHQgZmlsbD0iIzAwMDAwMCIgZm9udC1mYW1pbHk9InNhbnMtc2VyaWYiIGZvbnQtc2l6ZT0iMTQiIGxlbmd0aEFkanVzdD0ic3BhY2luZyIgdGV4dExlbmd0aD0iMjMzIiB4PSIxODk0LjUiIHk9IjE1NC4yMzQ0Ij5HcmFwaGljcyBSZW5kZXJlciAoc3RhcmJvYXJkLy4uLik8L3RleHQ+PC9nPjwhLS1lbnRpdHkgSW5wdXQgSGFuZGxpbmcgKHN0YXJib2FyZC8uLi4pLS0+PGcgaWQ9ImVsZW1fSW5wdXQgSGFuZGxpbmcgKHN0YXJib2FyZC8uLi4pIj48cmVjdCBmaWxsPSIjRjFGMUYxIiBoZWlnaHQ9IjQ0Ljk4NDQiIHJ4PSIyLjUiIHJ5PSIyLjUiIHN0eWxlPSJzdHJva2U6IzE4MTgxODtzdHJva2Utd2lkdGg6MC41OyIgd2lkdGg9IjI1MiIgeD0iMTYwMiIgeT0iMjI2Ii8+PHJlY3QgZmlsbD0iI0YxRjFGMSIgaGVpZ2h0PSIxMCIgc3R5bGU9InN0cm9rZTojMTgxODE4O3N0cm9rZS13aWR0aDowLjU7IiB3aWR0aD0iMTUiIHg9IjE4MzQiIHk9IjIzMSIvPjxyZWN0IGZpbGw9IiNGMUYxRjEiIGhlaWdodD0iMiIgc3R5bGU9InN0cm9rZTojMTgxODE4O3N0cm9rZS13aWR0aDowLjU7IiB3aWR0aD0iNCIgeD0iMTgzMiIgeT0iMjMzIi8+PHJlY3QgZmlsbD0iI0YxRjFGMSIgaGVpZ2h0PSIyIiBzdHlsZT0ic3Ryb2tlOiMxODE4MTg7c3Ryb2tlLXdpZHRoOjAuNTsiIHdpZHRoPSI0IiB4PSIxODMyIiB5PSIyMzciLz48dGV4dCBmaWxsPSIjMDAwMDAwIiBmb250LWZhbWlseT0ic2Fucy1zZXJpZiIgZm9udC1zaXplPSIxNCIgbGVuZ3RoQWRqdXN0PSJzcGFjaW5nIiB0ZXh0TGVuZ3RoPSIyMTIiIHg9IjE2MTciIHk9IjI1OS4yMzQ0Ij5JbnB1dCBIYW5kbGluZyAoc3RhcmJvYXJkLy4uLik8L3RleHQ+PC9nPjwhLS1lbnRpdHkgTWVkaWEgRGVjb2Rlci0tPjxnIGlkPSJlbGVtX01lZGlhIERlY29kZXIiPjxyZWN0IGZpbGw9IiNGMUYxRjEiIGhlaWdodD0iNDQuOTg0NCIgcng9IjIuNSIgcnk9IjIuNSIgc3R5bGU9InN0cm9rZTojMTgxODE4O3N0cm9rZS13aWR0aDowLjU7IiB3aWR0aD0iMTMxIiB4PSIyMTg3LjUiIHk9IjEyMSIvPjxyZWN0IGZpbGw9IiNGMUYxRjEiIGhlaWdodD0iMTAiIHN0eWxlPSJzdHJva2U6IzE4MTgxODtzdHJva2Utd2lkdGg6MC41OyIgd2lkdGg9IjE1IiB4PSIyMjk4LjUiIHk9IjEyNiIvPjxyZWN0IGZpbGw9IiNGMUYxRjEiIGhlaWdodD0iMiIgc3R5bGU9InN0cm9rZTojMTgxODE4O3N0cm9rZS13aWR0aDowLjU7IiB3aWR0aD0iNCIgeD0iMjI5Ni41IiB5PSIxMjgiLz48cmVjdCBmaWxsPSIjRjFGMUYxIiBoZWlnaHQ9IjIiIHN0eWxlPSJzdHJva2U6IzE4MTgxODtzdHJva2Utd2lkdGg6MC41OyIgd2lkdGg9IjQiIHg9IjIyOTYuNSIgeT0iMTMyIi8+PHRleHQgZmlsbD0iIzAwMDAwMCIgZm9udC1mYW1pbHk9InNhbnMtc2VyaWYiIGZvbnQtc2l6ZT0iMTQiIGxlbmd0aEFkanVzdD0ic3BhY2luZyIgdGV4dExlbmd0aD0iOTEiIHg9IjIyMDIuNSIgeT0iMTU0LjIzNDQiPk1lZGlhIERlY29kZXI8L3RleHQ+PC9nPjwhLS1lbnRpdHkgR3JhcGhpY3MgUmVuZGVyZXItLT48ZyBpZD0iZWxlbV9HcmFwaGljcyBSZW5kZXJlciI+PHJlY3QgZmlsbD0iI0YxRjFGMSIgaGVpZ2h0PSI0NC45ODQ0IiByeD0iMi41IiByeT0iMi41IiBzdHlsZT0ic3Ryb2tlOiMxODE4MTg7c3Ryb2tlLXdpZHRoOjAuNTsiIHdpZHRoPSIxNTkiIHg9IjIzNTMuNSIgeT0iMTIxIi8+PHJlY3QgZmlsbD0iI0YxRjFGMSIgaGVpZ2h0PSIxMCIgc3R5bGU9InN0cm9rZTojMTgxODE4O3N0cm9rZS13aWR0aDowLjU7IiB3aWR0aD0iMTUiIHg9IjI0OTIuNSIgeT0iMTI2Ii8+PHJlY3QgZmlsbD0iI0YxRjFGMSIgaGVpZ2h0PSIyIiBzdHlsZT0ic3Ryb2tlOiMxODE4MTg7c3Ryb2tlLXdpZHRoOjAuNTsiIHdpZHRoPSI0IiB4PSIyNDkwLjUiIHk9IjEyOCIvPjxyZWN0IGZpbGw9IiNGMUYxRjEiIGhlaWdodD0iMiIgc3R5bGU9InN0cm9rZTojMTgxODE4O3N0cm9rZS13aWR0aDowLjU7IiB3aWR0aD0iNCIgeD0iMjQ5MC41IiB5PSIxMzIiLz48dGV4dCBmaWxsPSIjMDAwMDAwIiBmb250LWZhbWlseT0ic2Fucy1zZXJpZiIgZm9udC1zaXplPSIxNCIgbGVuZ3RoQWRqdXN0PSJzcGFjaW5nIiB0ZXh0TGVuZ3RoPSIxMTkiIHg9IjIzNjguNSIgeT0iMTU0LjIzNDQiPkdyYXBoaWNzIFJlbmRlcmVyPC90ZXh0PjwvZz48IS0tZW50aXR5IElucHV0IEhhbmRsaW5nLS0+PGcgaWQ9ImVsZW1fSW5wdXQgSGFuZGxpbmciPjxyZWN0IGZpbGw9IiNGMUYxRjEiIGhlaWdodD0iNDQuOTg0NCIgcng9IjIuNSIgcnk9IjIuNSIgc3R5bGU9InN0cm9rZTojMTgxODE4O3N0cm9rZS13aWR0aDowLjU7IiB3aWR0aD0iMTM4IiB4PSIyMTg3IiB5PSIyMjYiLz48cmVjdCBmaWxsPSIjRjFGMUYxIiBoZWlnaHQ9IjEwIiBzdHlsZT0ic3Ryb2tlOiMxODE4MTg7c3Ryb2tlLXdpZHRoOjAuNTsiIHdpZHRoPSIxNSIgeD0iMjMwNSIgeT0iMjMxIi8+PHJlY3QgZmlsbD0iI0YxRjFGMSIgaGVpZ2h0PSIyIiBzdHlsZT0ic3Ryb2tlOiMxODE4MTg7c3Ryb2tlLXdpZHRoOjAuNTsiIHdpZHRoPSI0IiB4PSIyMzAzIiB5PSIyMzMiLz48cmVjdCBmaWxsPSIjRjFGMUYxIiBoZWlnaHQ9IjIiIHN0eWxlPSJzdHJva2U6IzE4MTgxODtzdHJva2Utd2lkdGg6MC41OyIgd2lkdGg9IjQiIHg9IjIzMDMiIHk9IjIzNyIvPjx0ZXh0IGZpbGw9IiMwMDAwMDAiIGZvbnQtZmFtaWx5PSJzYW5zLXNlcmlmIiBmb250LXNpemU9IjE0IiBsZW5ndGhBZGp1c3Q9InNwYWNpbmciIHRleHRMZW5ndGg9Ijk4IiB4PSIyMjAyIiB5PSIyNTkuMjM0NCI+SW5wdXQgSGFuZGxpbmc8L3RleHQ+PC9nPjwhLS1saW5rIE1lZGlhIFBsYXliYWNrIChtZWRpYS8pIHRvIE1lZGlhUGxheWVyIChtZWRpYS9iYXNlLyktLT48ZyBpZD0ibGlua19NZWRpYSBQbGF5YmFjayAobWVkaWEvKV9NZWRpYVBsYXllciAobWVkaWEvYmFzZS8pIj48cGF0aCBkPSJNMzQ4LDE2Ni4zNCBDMzQ4LDE4Mi4xOCAzNDgsMjAzLjcgMzQ4LDIyMC42ICIgZmlsbD0ibm9uZSIgaWQ9Ik1lZGlhIFBsYXliYWNrIChtZWRpYS8pLXRvLU1lZGlhUGxheWVyIChtZWRpYS9iYXNlLykiIHN0eWxlPSJzdHJva2U6IzE4MTgxODtzdHJva2Utd2lkdGg6MS4wOyIvPjxwb2x5Z29uIGZpbGw9IiMxODE4MTgiIHBvaW50cz0iMzQ4LDIyNS42OSwzNTIsMjE2LjY5LDM0OCwyMjAuNjksMzQ0LDIxNi42OSwzNDgsMjI1LjY5IiBzdHlsZT0ic3Ryb2tlOiMxODE4MTg7c3Ryb2tlLXdpZHRoOjEuMDsiLz48L2c+PCEtLWxpbmsgSGFyZHdhcmUgQWJzdHJhY3Rpb24gdG8gUGxhdGZvcm0gQWJzdHJhY3Rpb24tLT48ZyBpZD0ibGlua19IYXJkd2FyZSBBYnN0cmFjdGlvbl9QbGF0Zm9ybSBBYnN0cmFjdGlvbiI+PHBhdGggZD0iTTExMywxNjYuMzQgQzExMywxODIuMTggMTEzLDIwMy43IDExMywyMjAuNiAiIGZpbGw9Im5vbmUiIGlkPSJIYXJkd2FyZSBBYnN0cmFjdGlvbi10by1QbGF0Zm9ybSBBYnN0cmFjdGlvbiIgc3R5bGU9InN0cm9rZTojMTgxODE4O3N0cm9rZS13aWR0aDoxLjA7Ii8+PHBvbHlnb24gZmlsbD0iIzE4MTgxOCIgcG9pbnRzPSIxMTMsMjI1LjY5LDExNywyMTYuNjksMTEzLDIyMC42OSwxMDksMjE2LjY5LDExMywyMjUuNjkiIHN0eWxlPSJzdHJva2U6IzE4MTgxODtzdHJva2Utd2lkdGg6MS4wOyIvPjwvZz48IS0tU1JDPVtUTEJCUmk4bTRCcHA1SWpFejAzeldxZUxMNDE1TWpKcUxnNWd1c3AwblI0WnN4bkt5VV9yMm5lZUZJSUFUc1BzUG9Va2IyWDlHdFVlMlhJczJ6eVRXOHlOaVprYnJybWs4UlY4cmoySlBFX2w1WHdSbDZTcGNBQ3M3a3NMZ2F4cnFNaTZPdkFhcU44YnN5V21wdHk1cDlXcGFEazM4QkNZaVhWQURrS1BqdldwcEhpQkp0alljeVp1U2JLSmdndFhjSWZ2bkxiaF82MG1ZRjBSSVJUYWNBXzN2d1ZMSDU3aHlPbkFaWjBOVTJaMmpoS19Fblp3X09VNFVqM2JiQTAySktpLXVuTW4wbkM0NktmU0thdElrWkwyZWY0Z0plcGFydE1wYlQ4ckYxUjZRY0hmeVFZV1ZRRXFfTXFfR0x0a0s1RVJkQXBUd2ZEYVpUbDRVTzdrWUJRUzRVR0RDUHlGSkVqNjE4aVhBSERfLUpjNDRKN2JCcUpGTURJNVNnRkZDSmhFTTZFcHVpbjBKRkhWdGJHczZtaUpiQUs4Z1R5WVhMVUxoai1qN1F6Yjl3Vk5OWFVkd1h6dFAtSklKb21WRV91dl9XMDBdLS0+PC9nPjwvc3ZnPg==;" vertex="1" parent="1">
            <mxGeometry x="-500" y="60" width="2203" height="340.3" as="geometry" />
          </mxCell>
        </UserObject>
        <UserObject label="" plantUmlData="{&#xa;  &quot;data&quot;: &quot;@startuml\npackage \&quot;Cobalt\&quot; {\n  [Networking Stack] -up-&gt; [HTTP request handling]\n  [HTTP request handling] --&gt; [HTML Parsing]\n  [HTTP request handling] --&gt; [CSS Parsing]\n  [HTTP request handling] --&gt; [JavaScript Execution]\n  \n  [HTML Parsing] --&gt; [DOM Generation]\n  [CSS Parsing] --&gt; [Stylesheet Generation]\n  [JavaScript Execution] --&gt; [DOM Modification]\n  \n  [DOM Generation] --&gt; [DOM Modification]\n  [Stylesheet Generation] --&gt; [DOM Modification]\n  \n  [DOM Modification] --&gt; [Rendering]\n  \n  [JavaScript Execution] --&gt; [Media Playback]\n  \n  [MediaPlayer] --&gt; [Media Playback]\n  \n  [Lifecycle Management]\n  [Platform Abstraction]\n  \n  [Networking Stack] -down-&gt; [Platform Abstraction]\n  [Rendering] -down-&gt; [Platform Abstraction]\n  [Media Playback] -down-&gt; [Platform Abstraction]\n  \n  package \&quot;Device Specific Implementations\&quot; {\n    [Media Decoder]\n    [Graphics Renderer]\n    [Input Handling]\n    \n    [Platform Abstraction] -down-&gt; [Media Decoder]\n    [Platform Abstraction] -down-&gt; [Graphics Renderer]\n    [Platform Abstraction] -down-&gt; [Input Handling]\n  }\n}\n\n@enduml&quot;,&#xa;  &quot;format&quot;: &quot;svg&quot;&#xa;}" id="J6V1U3YTcORKghmEE3JZ-2">
          <mxCell style="shape=image;noLabel=1;verticalAlign=top;aspect=fixed;imageAspect=0;image=data:image/svg+xml,PD94bWwgdmVyc2lvbj0iMS4wIiBlbmNvZGluZz0idXMtYXNjaWkiIHN0YW5kYWxvbmU9Im5vIj8+PHN2ZyB4bWxucz0iaHR0cDovL3d3dy53My5vcmcvMjAwMC9zdmciIHhtbG5zOnhsaW5rPSJodHRwOi8vd3d3LnczLm9yZy8xOTk5L3hsaW5rIiBjb250ZW50U3R5bGVUeXBlPSJ0ZXh0L2NzcyIgaGVpZ2h0PSI3NjFweCIgcHJlc2VydmVBc3BlY3RSYXRpbz0ibm9uZSIgc3R5bGU9IndpZHRoOjgxMXB4O2hlaWdodDo3NjFweDtiYWNrZ3JvdW5kOiNGRkZGRkY7IiB2ZXJzaW9uPSIxLjEiIHZpZXdCb3g9IjAgMCA4MTEgNzYxIiB3aWR0aD0iODExcHgiIHpvb21BbmRQYW49Im1hZ25pZnkiPjxkZWZzLz48Zz48IS0tY2x1c3RlciBDb2JhbHQtLT48ZyBpZD0iY2x1c3Rlcl9Db2JhbHQiPjxwYXRoIGQ9Ik04LjUsNiBMNTEuNSw2IEEzLjc1LDMuNzUgMCAwIDEgNTQsOC41IEw2MSwyNi45ODQ0IEw4MDEuNSwyNi45ODQ0IEEyLjUsMi41IDAgMCAxIDgwNCwyOS40ODQ0IEw4MDQsNzUxLjUgQTIuNSwyLjUgMCAwIDEgODAxLjUsNzU0IEw4LjUsNzU0IEEyLjUsMi41IDAgMCAxIDYsNzUxLjUgTDYsOC41IEEyLjUsMi41IDAgMCAxIDguNSw2ICIgZmlsbD0ibm9uZSIgc3R5bGU9InN0cm9rZTojMDAwMDAwO3N0cm9rZS13aWR0aDoxLjU7Ii8+PGxpbmUgc3R5bGU9InN0cm9rZTojMDAwMDAwO3N0cm9rZS13aWR0aDoxLjU7IiB4MT0iNiIgeDI9IjYxIiB5MT0iMjYuOTg0NCIgeTI9IjI2Ljk4NDQiLz48dGV4dCBmaWxsPSIjMDAwMDAwIiBmb250LWZhbWlseT0ic2Fucy1zZXJpZiIgZm9udC1zaXplPSIxNCIgZm9udC13ZWlnaHQ9ImJvbGQiIGxlbmd0aEFkanVzdD0ic3BhY2luZyIgdGV4dExlbmd0aD0iNDIiIHg9IjEwIiB5PSIyMS4yMzQ0Ij5Db2JhbHQ8L3RleHQ+PC9nPjwhLS1jbHVzdGVyIERldmljZSBTcGVjaWZpYyBJbXBsZW1lbnRhdGlvbnMtLT48ZyBpZD0iY2x1c3Rlcl9EZXZpY2UgU3BlY2lmaWMgSW1wbGVtZW50YXRpb25zIj48cGF0aCBkPSJNMzMuNSw2MzYgTDI1My41LDYzNiBBMy43NSwzLjc1IDAgMCAxIDI1Niw2MzguNSBMMjYzLDY1Ni45ODQ0IEw1NTkuNSw2NTYuOTg0NCBBMi41LDIuNSAwIDAgMSA1NjIsNjU5LjQ4NDQgTDU2Miw3MjcuNSBBMi41LDIuNSAwIDAgMSA1NTkuNSw3MzAgTDMzLjUsNzMwIEEyLjUsMi41IDAgMCAxIDMxLDcyNy41IEwzMSw2MzguNSBBMi41LDIuNSAwIDAgMSAzMy41LDYzNiAiIGZpbGw9Im5vbmUiIHN0eWxlPSJzdHJva2U6IzAwMDAwMDtzdHJva2Utd2lkdGg6MS41OyIvPjxsaW5lIHN0eWxlPSJzdHJva2U6IzAwMDAwMDtzdHJva2Utd2lkdGg6MS41OyIgeDE9IjMxIiB4Mj0iMjYzIiB5MT0iNjU2Ljk4NDQiIHkyPSI2NTYuOTg0NCIvPjx0ZXh0IGZpbGw9IiMwMDAwMDAiIGZvbnQtZmFtaWx5PSJzYW5zLXNlcmlmIiBmb250LXNpemU9IjE0IiBmb250LXdlaWdodD0iYm9sZCIgbGVuZ3RoQWRqdXN0PSJzcGFjaW5nIiB0ZXh0TGVuZ3RoPSIyMTkiIHg9IjM1IiB5PSI2NTEuMjM0NCI+RGV2aWNlIFNwZWNpZmljIEltcGxlbWVudGF0aW9uczwvdGV4dD48L2c+PCEtLWVudGl0eSBOZXR3b3JraW5nIFN0YWNrLS0+PGcgaWQ9ImVsZW1fTmV0d29ya2luZyBTdGFjayI+PHJlY3QgZmlsbD0iI0YxRjFGMSIgaGVpZ2h0PSI0NC45ODQ0IiByeD0iMi41IiByeT0iMi41IiBzdHlsZT0ic3Ryb2tlOiMxODE4MTg7c3Ryb2tlLXdpZHRoOjAuNTsiIHdpZHRoPSIxNTMiIHg9IjkzLjUiIHk9IjE0NCIvPjxyZWN0IGZpbGw9IiNGMUYxRjEiIGhlaWdodD0iMTAiIHN0eWxlPSJzdHJva2U6IzE4MTgxODtzdHJva2Utd2lkdGg6MC41OyIgd2lkdGg9IjE1IiB4PSIyMjYuNSIgeT0iMTQ5Ii8+PHJlY3QgZmlsbD0iI0YxRjFGMSIgaGVpZ2h0PSIyIiBzdHlsZT0ic3Ryb2tlOiMxODE4MTg7c3Ryb2tlLXdpZHRoOjAuNTsiIHdpZHRoPSI0IiB4PSIyMjQuNSIgeT0iMTUxIi8+PHJlY3QgZmlsbD0iI0YxRjFGMSIgaGVpZ2h0PSIyIiBzdHlsZT0ic3Ryb2tlOiMxODE4MTg7c3Ryb2tlLXdpZHRoOjAuNTsiIHdpZHRoPSI0IiB4PSIyMjQuNSIgeT0iMTU1Ii8+PHRleHQgZmlsbD0iIzAwMDAwMCIgZm9udC1mYW1pbHk9InNhbnMtc2VyaWYiIGZvbnQtc2l6ZT0iMTQiIGxlbmd0aEFkanVzdD0ic3BhY2luZyIgdGV4dExlbmd0aD0iMTEzIiB4PSIxMDguNSIgeT0iMTc3LjIzNDQiPk5ldHdvcmtpbmcgU3RhY2s8L3RleHQ+PC9nPjwhLS1lbnRpdHkgSFRUUCByZXF1ZXN0IGhhbmRsaW5nLS0+PGcgaWQ9ImVsZW1fSFRUUCByZXF1ZXN0IGhhbmRsaW5nIj48cmVjdCBmaWxsPSIjRjFGMUYxIiBoZWlnaHQ9IjQ0Ljk4NDQiIHJ4PSIyLjUiIHJ5PSIyLjUiIHN0eWxlPSJzdHJva2U6IzE4MTgxODtzdHJva2Utd2lkdGg6MC41OyIgd2lkdGg9IjE4NyIgeD0iMzMxLjUiIHk9IjM5Ii8+PHJlY3QgZmlsbD0iI0YxRjFGMSIgaGVpZ2h0PSIxMCIgc3R5bGU9InN0cm9rZTojMTgxODE4O3N0cm9rZS13aWR0aDowLjU7IiB3aWR0aD0iMTUiIHg9IjQ5OC41IiB5PSI0NCIvPjxyZWN0IGZpbGw9IiNGMUYxRjEiIGhlaWdodD0iMiIgc3R5bGU9InN0cm9rZTojMTgxODE4O3N0cm9rZS13aWR0aDowLjU7IiB3aWR0aD0iNCIgeD0iNDk2LjUiIHk9IjQ2Ii8+PHJlY3QgZmlsbD0iI0YxRjFGMSIgaGVpZ2h0PSIyIiBzdHlsZT0ic3Ryb2tlOiMxODE4MTg7c3Ryb2tlLXdpZHRoOjAuNTsiIHdpZHRoPSI0IiB4PSI0OTYuNSIgeT0iNTAiLz48dGV4dCBmaWxsPSIjMDAwMDAwIiBmb250LWZhbWlseT0ic2Fucy1zZXJpZiIgZm9udC1zaXplPSIxNCIgbGVuZ3RoQWRqdXN0PSJzcGFjaW5nIiB0ZXh0TGVuZ3RoPSIxNDciIHg9IjM0Ni41IiB5PSI3Mi4yMzQ0Ij5IVFRQIHJlcXVlc3QgaGFuZGxpbmc8L3RleHQ+PC9nPjwhLS1lbnRpdHkgSFRNTCBQYXJzaW5nLS0+PGcgaWQ9ImVsZW1fSFRNTCBQYXJzaW5nIj48cmVjdCBmaWxsPSIjRjFGMUYxIiBoZWlnaHQ9IjQ0Ljk4NDQiIHJ4PSIyLjUiIHJ5PSIyLjUiIHN0eWxlPSJzdHJva2U6IzE4MTgxODtzdHJva2Utd2lkdGg6MC41OyIgd2lkdGg9IjEyNCIgeD0iNjMxIiB5PSIxNDQiLz48cmVjdCBmaWxsPSIjRjFGMUYxIiBoZWlnaHQ9IjEwIiBzdHlsZT0ic3Ryb2tlOiMxODE4MTg7c3Ryb2tlLXdpZHRoOjAuNTsiIHdpZHRoPSIxNSIgeD0iNzM1IiB5PSIxNDkiLz48cmVjdCBmaWxsPSIjRjFGMUYxIiBoZWlnaHQ9IjIiIHN0eWxlPSJzdHJva2U6IzE4MTgxODtzdHJva2Utd2lkdGg6MC41OyIgd2lkdGg9IjQiIHg9IjczMyIgeT0iMTUxIi8+PHJlY3QgZmlsbD0iI0YxRjFGMSIgaGVpZ2h0PSIyIiBzdHlsZT0ic3Ryb2tlOiMxODE4MTg7c3Ryb2tlLXdpZHRoOjAuNTsiIHdpZHRoPSI0IiB4PSI3MzMiIHk9IjE1NSIvPjx0ZXh0IGZpbGw9IiMwMDAwMDAiIGZvbnQtZmFtaWx5PSJzYW5zLXNlcmlmIiBmb250LXNpemU9IjE0IiBsZW5ndGhBZGp1c3Q9InNwYWNpbmciIHRleHRMZW5ndGg9Ijg0IiB4PSI2NDYiIHk9IjE3Ny4yMzQ0Ij5IVE1MIFBhcnNpbmc8L3RleHQ+PC9nPjwhLS1lbnRpdHkgQ1NTIFBhcnNpbmctLT48ZyBpZD0iZWxlbV9DU1MgUGFyc2luZyI+PHJlY3QgZmlsbD0iI0YxRjFGMSIgaGVpZ2h0PSI0NC45ODQ0IiByeD0iMi41IiByeT0iMi41IiBzdHlsZT0ic3Ryb2tlOiMxODE4MTg7c3Ryb2tlLXdpZHRoOjAuNTsiIHdpZHRoPSIxMTciIHg9IjQyNi41IiB5PSIxNDQiLz48cmVjdCBmaWxsPSIjRjFGMUYxIiBoZWlnaHQ9IjEwIiBzdHlsZT0ic3Ryb2tlOiMxODE4MTg7c3Ryb2tlLXdpZHRoOjAuNTsiIHdpZHRoPSIxNSIgeD0iNTIzLjUiIHk9IjE0OSIvPjxyZWN0IGZpbGw9IiNGMUYxRjEiIGhlaWdodD0iMiIgc3R5bGU9InN0cm9rZTojMTgxODE4O3N0cm9rZS13aWR0aDowLjU7IiB3aWR0aD0iNCIgeD0iNTIxLjUiIHk9IjE1MSIvPjxyZWN0IGZpbGw9IiNGMUYxRjEiIGhlaWdodD0iMiIgc3R5bGU9InN0cm9rZTojMTgxODE4O3N0cm9rZS13aWR0aDowLjU7IiB3aWR0aD0iNCIgeD0iNTIxLjUiIHk9IjE1NSIvPjx0ZXh0IGZpbGw9IiMwMDAwMDAiIGZvbnQtZmFtaWx5PSJzYW5zLXNlcmlmIiBmb250LXNpemU9IjE0IiBsZW5ndGhBZGp1c3Q9InNwYWNpbmciIHRleHRMZW5ndGg9Ijc3IiB4PSI0NDEuNSIgeT0iMTc3LjIzNDQiPkNTUyBQYXJzaW5nPC90ZXh0PjwvZz48IS0tZW50aXR5IEphdmFTY3JpcHQgRXhlY3V0aW9uLS0+PGcgaWQ9ImVsZW1fSmF2YVNjcmlwdCBFeGVjdXRpb24iPjxyZWN0IGZpbGw9IiNGMUYxRjEiIGhlaWdodD0iNDQuOTg0NCIgcng9IjIuNSIgcnk9IjIuNSIgc3R5bGU9InN0cm9rZTojMTgxODE4O3N0cm9rZS13aWR0aDowLjU7IiB3aWR0aD0iMTgxIiB4PSIyMTEuNSIgeT0iMjQ5Ii8+PHJlY3QgZmlsbD0iI0YxRjFGMSIgaGVpZ2h0PSIxMCIgc3R5bGU9InN0cm9rZTojMTgxODE4O3N0cm9rZS13aWR0aDowLjU7IiB3aWR0aD0iMTUiIHg9IjM3Mi41IiB5PSIyNTQiLz48cmVjdCBmaWxsPSIjRjFGMUYxIiBoZWlnaHQ9IjIiIHN0eWxlPSJzdHJva2U6IzE4MTgxODtzdHJva2Utd2lkdGg6MC41OyIgd2lkdGg9IjQiIHg9IjM3MC41IiB5PSIyNTYiLz48cmVjdCBmaWxsPSIjRjFGMUYxIiBoZWlnaHQ9IjIiIHN0eWxlPSJzdHJva2U6IzE4MTgxODtzdHJva2Utd2lkdGg6MC41OyIgd2lkdGg9IjQiIHg9IjM3MC41IiB5PSIyNjAiLz48dGV4dCBmaWxsPSIjMDAwMDAwIiBmb250LWZhbWlseT0ic2Fucy1zZXJpZiIgZm9udC1zaXplPSIxNCIgbGVuZ3RoQWRqdXN0PSJzcGFjaW5nIiB0ZXh0TGVuZ3RoPSIxNDEiIHg9IjIyNi41IiB5PSIyODIuMjM0NCI+SmF2YVNjcmlwdCBFeGVjdXRpb248L3RleHQ+PC9nPjwhLS1lbnRpdHkgRE9NIEdlbmVyYXRpb24tLT48ZyBpZD0iZWxlbV9ET00gR2VuZXJhdGlvbiI+PHJlY3QgZmlsbD0iI0YxRjFGMSIgaGVpZ2h0PSI0NC45ODQ0IiByeD0iMi41IiByeT0iMi41IiBzdHlsZT0ic3Ryb2tlOiMxODE4MTg7c3Ryb2tlLXdpZHRoOjAuNTsiIHdpZHRoPSIxMzgiIHg9IjY1MCIgeT0iMjQ5Ii8+PHJlY3QgZmlsbD0iI0YxRjFGMSIgaGVpZ2h0PSIxMCIgc3R5bGU9InN0cm9rZTojMTgxODE4O3N0cm9rZS13aWR0aDowLjU7IiB3aWR0aD0iMTUiIHg9Ijc2OCIgeT0iMjU0Ii8+PHJlY3QgZmlsbD0iI0YxRjFGMSIgaGVpZ2h0PSIyIiBzdHlsZT0ic3Ryb2tlOiMxODE4MTg7c3Ryb2tlLXdpZHRoOjAuNTsiIHdpZHRoPSI0IiB4PSI3NjYiIHk9IjI1NiIvPjxyZWN0IGZpbGw9IiNGMUYxRjEiIGhlaWdodD0iMiIgc3R5bGU9InN0cm9rZTojMTgxODE4O3N0cm9rZS13aWR0aDowLjU7IiB3aWR0aD0iNCIgeD0iNzY2IiB5PSIyNjAiLz48dGV4dCBmaWxsPSIjMDAwMDAwIiBmb250LWZhbWlseT0ic2Fucy1zZXJpZiIgZm9udC1zaXplPSIxNCIgbGVuZ3RoQWRqdXN0PSJzcGFjaW5nIiB0ZXh0TGVuZ3RoPSI5OCIgeD0iNjY1IiB5PSIyODIuMjM0NCI+RE9NIEdlbmVyYXRpb248L3RleHQ+PC9nPjwhLS1lbnRpdHkgU3R5bGVzaGVldCBHZW5lcmF0aW9uLS0+PGcgaWQ9ImVsZW1fU3R5bGVzaGVldCBHZW5lcmF0aW9uIj48cmVjdCBmaWxsPSIjRjFGMUYxIiBoZWlnaHQ9IjQ0Ljk4NDQiIHJ4PSIyLjUiIHJ5PSIyLjUiIHN0eWxlPSJzdHJva2U6IzE4MTgxODtzdHJva2Utd2lkdGg6MC41OyIgd2lkdGg9IjE4NyIgeD0iNDI3LjUiIHk9IjI0OSIvPjxyZWN0IGZpbGw9IiNGMUYxRjEiIGhlaWdodD0iMTAiIHN0eWxlPSJzdHJva2U6IzE4MTgxODtzdHJva2Utd2lkdGg6MC41OyIgd2lkdGg9IjE1IiB4PSI1OTQuNSIgeT0iMjU0Ii8+PHJlY3QgZmlsbD0iI0YxRjFGMSIgaGVpZ2h0PSIyIiBzdHlsZT0ic3Ryb2tlOiMxODE4MTg7c3Ryb2tlLXdpZHRoOjAuNTsiIHdpZHRoPSI0IiB4PSI1OTIuNSIgeT0iMjU2Ii8+PHJlY3QgZmlsbD0iI0YxRjFGMSIgaGVpZ2h0PSIyIiBzdHlsZT0ic3Ryb2tlOiMxODE4MTg7c3Ryb2tlLXdpZHRoOjAuNTsiIHdpZHRoPSI0IiB4PSI1OTIuNSIgeT0iMjYwIi8+PHRleHQgZmlsbD0iIzAwMDAwMCIgZm9udC1mYW1pbHk9InNhbnMtc2VyaWYiIGZvbnQtc2l6ZT0iMTQiIGxlbmd0aEFkanVzdD0ic3BhY2luZyIgdGV4dExlbmd0aD0iMTQ3IiB4PSI0NDIuNSIgeT0iMjgyLjIzNDQiPlN0eWxlc2hlZXQgR2VuZXJhdGlvbjwvdGV4dD48L2c+PCEtLWVudGl0eSBET00gTW9kaWZpY2F0aW9uLS0+PGcgaWQ9ImVsZW1fRE9NIE1vZGlmaWNhdGlvbiI+PHJlY3QgZmlsbD0iI0YxRjFGMSIgaGVpZ2h0PSI0NC45ODQ0IiByeD0iMi41IiByeT0iMi41IiBzdHlsZT0ic3Ryb2tlOiMxODE4MTg7c3Ryb2tlLXdpZHRoOjAuNTsiIHdpZHRoPSIxNTIiIHg9IjQyNSIgeT0iMzU0Ii8+PHJlY3QgZmlsbD0iI0YxRjFGMSIgaGVpZ2h0PSIxMCIgc3R5bGU9InN0cm9rZTojMTgxODE4O3N0cm9rZS13aWR0aDowLjU7IiB3aWR0aD0iMTUiIHg9IjU1NyIgeT0iMzU5Ii8+PHJlY3QgZmlsbD0iI0YxRjFGMSIgaGVpZ2h0PSIyIiBzdHlsZT0ic3Ryb2tlOiMxODE4MTg7c3Ryb2tlLXdpZHRoOjAuNTsiIHdpZHRoPSI0IiB4PSI1NTUiIHk9IjM2MSIvPjxyZWN0IGZpbGw9IiNGMUYxRjEiIGhlaWdodD0iMiIgc3R5bGU9InN0cm9rZTojMTgxODE4O3N0cm9rZS13aWR0aDowLjU7IiB3aWR0aD0iNCIgeD0iNTU1IiB5PSIzNjUiLz48dGV4dCBmaWxsPSIjMDAwMDAwIiBmb250LWZhbWlseT0ic2Fucy1zZXJpZiIgZm9udC1zaXplPSIxNCIgbGVuZ3RoQWRqdXN0PSJzcGFjaW5nIiB0ZXh0TGVuZ3RoPSIxMTIiIHg9IjQ0MCIgeT0iMzg3LjIzNDQiPkRPTSBNb2RpZmljYXRpb248L3RleHQ+PC9nPjwhLS1lbnRpdHkgUmVuZGVyaW5nLS0+PGcgaWQ9ImVsZW1fUmVuZGVyaW5nIj48cmVjdCBmaWxsPSIjRjFGMUYxIiBoZWlnaHQ9IjQ0Ljk4NDQiIHJ4PSIyLjUiIHJ5PSIyLjUiIHN0eWxlPSJzdHJva2U6IzE4MTgxODtzdHJva2Utd2lkdGg6MC41OyIgd2lkdGg9IjEwMyIgeD0iMzkyLjUiIHk9IjQ1OSIvPjxyZWN0IGZpbGw9IiNGMUYxRjEiIGhlaWdodD0iMTAiIHN0eWxlPSJzdHJva2U6IzE4MTgxODtzdHJva2Utd2lkdGg6MC41OyIgd2lkdGg9IjE1IiB4PSI0NzUuNSIgeT0iNDY0Ii8+PHJlY3QgZmlsbD0iI0YxRjFGMSIgaGVpZ2h0PSIyIiBzdHlsZT0ic3Ryb2tlOiMxODE4MTg7c3Ryb2tlLXdpZHRoOjAuNTsiIHdpZHRoPSI0IiB4PSI0NzMuNSIgeT0iNDY2Ii8+PHJlY3QgZmlsbD0iI0YxRjFGMSIgaGVpZ2h0PSIyIiBzdHlsZT0ic3Ryb2tlOiMxODE4MTg7c3Ryb2tlLXdpZHRoOjAuNTsiIHdpZHRoPSI0IiB4PSI0NzMuNSIgeT0iNDcwIi8+PHRleHQgZmlsbD0iIzAwMDAwMCIgZm9udC1mYW1pbHk9InNhbnMtc2VyaWYiIGZvbnQtc2l6ZT0iMTQiIGxlbmd0aEFkanVzdD0ic3BhY2luZyIgdGV4dExlbmd0aD0iNjMiIHg9IjQwNy41IiB5PSI0OTIuMjM0NCI+UmVuZGVyaW5nPC90ZXh0PjwvZz48IS0tZW50aXR5IE1lZGlhIFBsYXliYWNrLS0+PGcgaWQ9ImVsZW1fTWVkaWEgUGxheWJhY2siPjxyZWN0IGZpbGw9IiNGMUYxRjEiIGhlaWdodD0iNDQuOTg0NCIgcng9IjIuNSIgcnk9IjIuNSIgc3R5bGU9InN0cm9rZTojMTgxODE4O3N0cm9rZS13aWR0aDowLjU7IiB3aWR0aD0iMTM4IiB4PSIyMzEiIHk9IjM1NCIvPjxyZWN0IGZpbGw9IiNGMUYxRjEiIGhlaWdodD0iMTAiIHN0eWxlPSJzdHJva2U6IzE4MTgxODtzdHJva2Utd2lkdGg6MC41OyIgd2lkdGg9IjE1IiB4PSIzNDkiIHk9IjM1OSIvPjxyZWN0IGZpbGw9IiNGMUYxRjEiIGhlaWdodD0iMiIgc3R5bGU9InN0cm9rZTojMTgxODE4O3N0cm9rZS13aWR0aDowLjU7IiB3aWR0aD0iNCIgeD0iMzQ3IiB5PSIzNjEiLz48cmVjdCBmaWxsPSIjRjFGMUYxIiBoZWlnaHQ9IjIiIHN0eWxlPSJzdHJva2U6IzE4MTgxODtzdHJva2Utd2lkdGg6MC41OyIgd2lkdGg9IjQiIHg9IjM0NyIgeT0iMzY1Ii8+PHRleHQgZmlsbD0iIzAwMDAwMCIgZm9udC1mYW1pbHk9InNhbnMtc2VyaWYiIGZvbnQtc2l6ZT0iMTQiIGxlbmd0aEFkanVzdD0ic3BhY2luZyIgdGV4dExlbmd0aD0iOTgiIHg9IjI0NiIgeT0iMzg3LjIzNDQiPk1lZGlhIFBsYXliYWNrPC90ZXh0PjwvZz48IS0tZW50aXR5IE1lZGlhUGxheWVyLS0+PGcgaWQ9ImVsZW1fTWVkaWFQbGF5ZXIiPjxyZWN0IGZpbGw9IiNGMUYxRjEiIGhlaWdodD0iNDQuOTg0NCIgcng9IjIuNSIgcnk9IjIuNSIgc3R5bGU9InN0cm9rZTojMTgxODE4O3N0cm9rZS13aWR0aDowLjU7IiB3aWR0aD0iMTE3IiB4PSI1OS41IiB5PSIyNDkiLz48cmVjdCBmaWxsPSIjRjFGMUYxIiBoZWlnaHQ9IjEwIiBzdHlsZT0ic3Ryb2tlOiMxODE4MTg7c3Ryb2tlLXdpZHRoOjAuNTsiIHdpZHRoPSIxNSIgeD0iMTU2LjUiIHk9IjI1NCIvPjxyZWN0IGZpbGw9IiNGMUYxRjEiIGhlaWdodD0iMiIgc3R5bGU9InN0cm9rZTojMTgxODE4O3N0cm9rZS13aWR0aDowLjU7IiB3aWR0aD0iNCIgeD0iMTU0LjUiIHk9IjI1NiIvPjxyZWN0IGZpbGw9IiNGMUYxRjEiIGhlaWdodD0iMiIgc3R5bGU9InN0cm9rZTojMTgxODE4O3N0cm9rZS13aWR0aDowLjU7IiB3aWR0aD0iNCIgeD0iMTU0LjUiIHk9IjI2MCIvPjx0ZXh0IGZpbGw9IiMwMDAwMDAiIGZvbnQtZmFtaWx5PSJzYW5zLXNlcmlmIiBmb250LXNpemU9IjE0IiBsZW5ndGhBZGp1c3Q9InNwYWNpbmciIHRleHRMZW5ndGg9Ijc3IiB4PSI3NC41IiB5PSIyODIuMjM0NCI+TWVkaWFQbGF5ZXI8L3RleHQ+PC9nPjwhLS1lbnRpdHkgTGlmZWN5Y2xlIE1hbmFnZW1lbnQtLT48ZyBpZD0iZWxlbV9MaWZlY3ljbGUgTWFuYWdlbWVudCI+PHJlY3QgZmlsbD0iI0YxRjFGMSIgaGVpZ2h0PSI0NC45ODQ0IiByeD0iMi41IiByeT0iMi41IiBzdHlsZT0ic3Ryb2tlOiMxODE4MTg7c3Ryb2tlLXdpZHRoOjAuNTsiIHdpZHRoPSIxODEiIHg9IjgzLjUiIHk9IjM5Ii8+PHJlY3QgZmlsbD0iI0YxRjFGMSIgaGVpZ2h0PSIxMCIgc3R5bGU9InN0cm9rZTojMTgxODE4O3N0cm9rZS13aWR0aDowLjU7IiB3aWR0aD0iMTUiIHg9IjI0NC41IiB5PSI0NCIvPjxyZWN0IGZpbGw9IiNGMUYxRjEiIGhlaWdodD0iMiIgc3R5bGU9InN0cm9rZTojMTgxODE4O3N0cm9rZS13aWR0aDowLjU7IiB3aWR0aD0iNCIgeD0iMjQyLjUiIHk9IjQ2Ii8+PHJlY3QgZmlsbD0iI0YxRjFGMSIgaGVpZ2h0PSIyIiBzdHlsZT0ic3Ryb2tlOiMxODE4MTg7c3Ryb2tlLXdpZHRoOjAuNTsiIHdpZHRoPSI0IiB4PSIyNDIuNSIgeT0iNTAiLz48dGV4dCBmaWxsPSIjMDAwMDAwIiBmb250LWZhbWlseT0ic2Fucy1zZXJpZiIgZm9udC1zaXplPSIxNCIgbGVuZ3RoQWRqdXN0PSJzcGFjaW5nIiB0ZXh0TGVuZ3RoPSIxNDEiIHg9Ijk4LjUiIHk9IjcyLjIzNDQiPkxpZmVjeWNsZSBNYW5hZ2VtZW50PC90ZXh0PjwvZz48IS0tZW50aXR5IFBsYXRmb3JtIEFic3RyYWN0aW9uLS0+PGcgaWQ9ImVsZW1fUGxhdGZvcm0gQWJzdHJhY3Rpb24iPjxyZWN0IGZpbGw9IiNGMUYxRjEiIGhlaWdodD0iNDQuOTg0NCIgcng9IjIuNSIgcnk9IjIuNSIgc3R5bGU9InN0cm9rZTojMTgxODE4O3N0cm9rZS13aWR0aDowLjU7IiB3aWR0aD0iMTgxIiB4PSIyMDkuNSIgeT0iNTY0Ii8+PHJlY3QgZmlsbD0iI0YxRjFGMSIgaGVpZ2h0PSIxMCIgc3R5bGU9InN0cm9rZTojMTgxODE4O3N0cm9rZS13aWR0aDowLjU7IiB3aWR0aD0iMTUiIHg9IjM3MC41IiB5PSI1NjkiLz48cmVjdCBmaWxsPSIjRjFGMUYxIiBoZWlnaHQ9IjIiIHN0eWxlPSJzdHJva2U6IzE4MTgxODtzdHJva2Utd2lkdGg6MC41OyIgd2lkdGg9IjQiIHg9IjM2OC41IiB5PSI1NzEiLz48cmVjdCBmaWxsPSIjRjFGMUYxIiBoZWlnaHQ9IjIiIHN0eWxlPSJzdHJva2U6IzE4MTgxODtzdHJva2Utd2lkdGg6MC41OyIgd2lkdGg9IjQiIHg9IjM2OC41IiB5PSI1NzUiLz48dGV4dCBmaWxsPSIjMDAwMDAwIiBmb250LWZhbWlseT0ic2Fucy1zZXJpZiIgZm9udC1zaXplPSIxNCIgbGVuZ3RoQWRqdXN0PSJzcGFjaW5nIiB0ZXh0TGVuZ3RoPSIxNDEiIHg9IjIyNC41IiB5PSI1OTcuMjM0NCI+UGxhdGZvcm0gQWJzdHJhY3Rpb248L3RleHQ+PC9nPjwhLS1lbnRpdHkgTWVkaWEgRGVjb2Rlci0tPjxnIGlkPSJlbGVtX01lZGlhIERlY29kZXIiPjxyZWN0IGZpbGw9IiNGMUYxRjEiIGhlaWdodD0iNDQuOTg0NCIgcng9IjIuNSIgcnk9IjIuNSIgc3R5bGU9InN0cm9rZTojMTgxODE4O3N0cm9rZS13aWR0aDowLjU7IiB3aWR0aD0iMTMxIiB4PSI0MTQuNSIgeT0iNjY5Ii8+PHJlY3QgZmlsbD0iI0YxRjFGMSIgaGVpZ2h0PSIxMCIgc3R5bGU9InN0cm9rZTojMTgxODE4O3N0cm9rZS13aWR0aDowLjU7IiB3aWR0aD0iMTUiIHg9IjUyNS41IiB5PSI2NzQiLz48cmVjdCBmaWxsPSIjRjFGMUYxIiBoZWlnaHQ9IjIiIHN0eWxlPSJzdHJva2U6IzE4MTgxODtzdHJva2Utd2lkdGg6MC41OyIgd2lkdGg9IjQiIHg9IjUyMy41IiB5PSI2NzYiLz48cmVjdCBmaWxsPSIjRjFGMUYxIiBoZWlnaHQ9IjIiIHN0eWxlPSJzdHJva2U6IzE4MTgxODtzdHJva2Utd2lkdGg6MC41OyIgd2lkdGg9IjQiIHg9IjUyMy41IiB5PSI2ODAiLz48dGV4dCBmaWxsPSIjMDAwMDAwIiBmb250LWZhbWlseT0ic2Fucy1zZXJpZiIgZm9udC1zaXplPSIxNCIgbGVuZ3RoQWRqdXN0PSJzcGFjaW5nIiB0ZXh0TGVuZ3RoPSI5MSIgeD0iNDI5LjUiIHk9IjcwMi4yMzQ0Ij5NZWRpYSBEZWNvZGVyPC90ZXh0PjwvZz48IS0tZW50aXR5IEdyYXBoaWNzIFJlbmRlcmVyLS0+PGcgaWQ9ImVsZW1fR3JhcGhpY3MgUmVuZGVyZXIiPjxyZWN0IGZpbGw9IiNGMUYxRjEiIGhlaWdodD0iNDQuOTg0NCIgcng9IjIuNSIgcnk9IjIuNSIgc3R5bGU9InN0cm9rZTojMTgxODE4O3N0cm9rZS13aWR0aDowLjU7IiB3aWR0aD0iMTU5IiB4PSIyMjAuNSIgeT0iNjY5Ii8+PHJlY3QgZmlsbD0iI0YxRjFGMSIgaGVpZ2h0PSIxMCIgc3R5bGU9InN0cm9rZTojMTgxODE4O3N0cm9rZS13aWR0aDowLjU7IiB3aWR0aD0iMTUiIHg9IjM1OS41IiB5PSI2NzQiLz48cmVjdCBmaWxsPSIjRjFGMUYxIiBoZWlnaHQ9IjIiIHN0eWxlPSJzdHJva2U6IzE4MTgxODtzdHJva2Utd2lkdGg6MC41OyIgd2lkdGg9IjQiIHg9IjM1Ny41IiB5PSI2NzYiLz48cmVjdCBmaWxsPSIjRjFGMUYxIiBoZWlnaHQ9IjIiIHN0eWxlPSJzdHJva2U6IzE4MTgxODtzdHJva2Utd2lkdGg6MC41OyIgd2lkdGg9IjQiIHg9IjM1Ny41IiB5PSI2ODAiLz48dGV4dCBmaWxsPSIjMDAwMDAwIiBmb250LWZhbWlseT0ic2Fucy1zZXJpZiIgZm9udC1zaXplPSIxNCIgbGVuZ3RoQWRqdXN0PSJzcGFjaW5nIiB0ZXh0TGVuZ3RoPSIxMTkiIHg9IjIzNS41IiB5PSI3MDIuMjM0NCI+R3JhcGhpY3MgUmVuZGVyZXI8L3RleHQ+PC9nPjwhLS1lbnRpdHkgSW5wdXQgSGFuZGxpbmctLT48ZyBpZD0iZWxlbV9JbnB1dCBIYW5kbGluZyI+PHJlY3QgZmlsbD0iI0YxRjFGMSIgaGVpZ2h0PSI0NC45ODQ0IiByeD0iMi41IiByeT0iMi41IiBzdHlsZT0ic3Ryb2tlOiMxODE4MTg7c3Ryb2tlLXdpZHRoOjAuNTsiIHdpZHRoPSIxMzgiIHg9IjQ3IiB5PSI2NjkiLz48cmVjdCBmaWxsPSIjRjFGMUYxIiBoZWlnaHQ9IjEwIiBzdHlsZT0ic3Ryb2tlOiMxODE4MTg7c3Ryb2tlLXdpZHRoOjAuNTsiIHdpZHRoPSIxNSIgeD0iMTY1IiB5PSI2NzQiLz48cmVjdCBmaWxsPSIjRjFGMUYxIiBoZWlnaHQ9IjIiIHN0eWxlPSJzdHJva2U6IzE4MTgxODtzdHJva2Utd2lkdGg6MC41OyIgd2lkdGg9IjQiIHg9IjE2MyIgeT0iNjc2Ii8+PHJlY3QgZmlsbD0iI0YxRjFGMSIgaGVpZ2h0PSIyIiBzdHlsZT0ic3Ryb2tlOiMxODE4MTg7c3Ryb2tlLXdpZHRoOjAuNTsiIHdpZHRoPSI0IiB4PSIxNjMiIHk9IjY4MCIvPjx0ZXh0IGZpbGw9IiMwMDAwMDAiIGZvbnQtZmFtaWx5PSJzYW5zLXNlcmlmIiBmb250LXNpemU9IjE0IiBsZW5ndGhBZGp1c3Q9InNwYWNpbmciIHRleHRMZW5ndGg9Ijk4IiB4PSI2MiIgeT0iNzAyLjIzNDQiPklucHV0IEhhbmRsaW5nPC90ZXh0PjwvZz48IS0tcmV2ZXJzZSBsaW5rIEhUVFAgcmVxdWVzdCBoYW5kbGluZyB0byBOZXR3b3JraW5nIFN0YWNrLS0+PGcgaWQ9ImxpbmtfSFRUUCByZXF1ZXN0IGhhbmRsaW5nX05ldHdvcmtpbmcgU3RhY2siPjxwYXRoIGQ9Ik0zNjYuODksODUuOTcgQzMyMy43NSwxMDMuNCAyNjUuMzYsMTI2Ljk4IDIyMy4zOSwxNDMuOTQgIiBmaWxsPSJub25lIiBpZD0iSFRUUCByZXF1ZXN0IGhhbmRsaW5nLWJhY2t0by1OZXR3b3JraW5nIFN0YWNrIiBzdHlsZT0ic3Ryb2tlOiMxODE4MTg7c3Ryb2tlLXdpZHRoOjEuMDsiLz48cG9seWdvbiBmaWxsPSIjMTgxODE4IiBwb2ludHM9IjM3MS41NCw4NC4wOSwzNjEuNjk3Miw4My43NDQ3LDM2Ni45MDI2LDg1Ljk1OTIsMzY0LjY4OCw5MS4xNjQ2LDM3MS41NCw4NC4wOSIgc3R5bGU9InN0cm9rZTojMTgxODE4O3N0cm9rZS13aWR0aDoxLjA7Ii8+PC9nPjwhLS1saW5rIEhUVFAgcmVxdWVzdCBoYW5kbGluZyB0byBIVE1MIFBhcnNpbmctLT48ZyBpZD0ibGlua19IVFRQIHJlcXVlc3QgaGFuZGxpbmdfSFRNTCBQYXJzaW5nIj48cGF0aCBkPSJNNDgxLjE4LDg0LjA5IEM1MjUuMzEsMTAxLjA1IDU4Ni42OCwxMjQuNjQgNjMyLDE0Mi4wNiAiIGZpbGw9Im5vbmUiIGlkPSJIVFRQIHJlcXVlc3QgaGFuZGxpbmctdG8tSFRNTCBQYXJzaW5nIiBzdHlsZT0ic3Ryb2tlOiMxODE4MTg7c3Ryb2tlLXdpZHRoOjEuMDsiLz48cG9seWdvbiBmaWxsPSIjMTgxODE4IiBwb2ludHM9IjYzNi44OSwxNDMuOTQsNjI5LjkxMTUsMTM2Ljk5MDEsNjMyLjIxOTYsMTQyLjE1NDcsNjI3LjA1NSwxNDQuNDYyNyw2MzYuODksMTQzLjk0IiBzdHlsZT0ic3Ryb2tlOiMxODE4MTg7c3Ryb2tlLXdpZHRoOjEuMDsiLz48L2c+PCEtLWxpbmsgSFRUUCByZXF1ZXN0IGhhbmRsaW5nIHRvIENTUyBQYXJzaW5nLS0+PGcgaWQ9ImxpbmtfSFRUUCByZXF1ZXN0IGhhbmRsaW5nX0NTUyBQYXJzaW5nIj48cGF0aCBkPSJNNDM3LjcyLDg0LjM0IEM0NDcuMDMsMTAwLjMyIDQ1OS43LDEyMi4wOCA0NjkuNTksMTM5LjA0ICIgZmlsbD0ibm9uZSIgaWQ9IkhUVFAgcmVxdWVzdCBoYW5kbGluZy10by1DU1MgUGFyc2luZyIgc3R5bGU9InN0cm9rZTojMTgxODE4O3N0cm9rZS13aWR0aDoxLjA7Ii8+PHBvbHlnb24gZmlsbD0iIzE4MTgxOCIgcG9pbnRzPSI0NzIuMjksMTQzLjY5LDQ3MS4yMjg0LDEzMy44OTg1LDQ2OS43Nzg2LDEzOS4zNjY1LDQ2NC4zMTA3LDEzNy45MTY3LDQ3Mi4yOSwxNDMuNjkiIHN0eWxlPSJzdHJva2U6IzE4MTgxODtzdHJva2Utd2lkdGg6MS4wOyIvPjwvZz48IS0tbGluayBIVFRQIHJlcXVlc3QgaGFuZGxpbmcgdG8gSmF2YVNjcmlwdCBFeGVjdXRpb24tLT48ZyBpZD0ibGlua19IVFRQIHJlcXVlc3QgaGFuZGxpbmdfSmF2YVNjcmlwdCBFeGVjdXRpb24iPjxwYXRoIGQ9Ik00MTIuMDcsODQuMzcgQzM4OS4yMiwxMjMuMDEgMzQxLjgsMjAzLjE5IDMxNy4zNCwyNDQuNTYgIiBmaWxsPSJub25lIiBpZD0iSFRUUCByZXF1ZXN0IGhhbmRsaW5nLXRvLUphdmFTY3JpcHQgRXhlY3V0aW9uIiBzdHlsZT0ic3Ryb2tlOiMxODE4MTg7c3Ryb2tlLXdpZHRoOjEuMDsiLz48cG9seWdvbiBmaWxsPSIjMTgxODE4IiBwb2ludHM9IjMxNC43NiwyNDguOTMsMzIyLjc4NDIsMjQzLjIxOTMsMzE3LjMwNTEsMjQ0LjYyNjIsMzE1Ljg5ODEsMjM5LjE0NzEsMzE0Ljc2LDI0OC45MyIgc3R5bGU9InN0cm9rZTojMTgxODE4O3N0cm9rZS13aWR0aDoxLjA7Ii8+PC9nPjwhLS1saW5rIEhUTUwgUGFyc2luZyB0byBET00gR2VuZXJhdGlvbi0tPjxnIGlkPSJsaW5rX0hUTUwgUGFyc2luZ19ET00gR2VuZXJhdGlvbiI+PHBhdGggZD0iTTY5OC41MSwxODkuMzQgQzcwMi41MSwyMDUuMTggNzA3Ljk0LDIyNi43IDcxMi4yMSwyNDMuNiAiIGZpbGw9Im5vbmUiIGlkPSJIVE1MIFBhcnNpbmctdG8tRE9NIEdlbmVyYXRpb24iIHN0eWxlPSJzdHJva2U6IzE4MTgxODtzdHJva2Utd2lkdGg6MS4wOyIvPjxwb2x5Z29uIGZpbGw9IiMxODE4MTgiIHBvaW50cz0iNzEzLjQ5LDI0OC42OSw3MTUuMTYwOSwyMzguOTgzOSw3MTIuMjYzOSwyNDMuODQyNyw3MDcuNDA1MiwyNDAuOTQ1Nyw3MTMuNDksMjQ4LjY5IiBzdHlsZT0ic3Ryb2tlOiMxODE4MTg7c3Ryb2tlLXdpZHRoOjEuMDsiLz48L2c+PCEtLWxpbmsgQ1NTIFBhcnNpbmcgdG8gU3R5bGVzaGVldCBHZW5lcmF0aW9uLS0+PGcgaWQ9ImxpbmtfQ1NTIFBhcnNpbmdfU3R5bGVzaGVldCBHZW5lcmF0aW9uIj48cGF0aCBkPSJNNDkyLjYzLDE4OS4zNCBDNDk4LjE3LDIwNS4xOCA1MDUuNjksMjI2LjcgNTExLjYsMjQzLjYgIiBmaWxsPSJub25lIiBpZD0iQ1NTIFBhcnNpbmctdG8tU3R5bGVzaGVldCBHZW5lcmF0aW9uIiBzdHlsZT0ic3Ryb2tlOiMxODE4MTg7c3Ryb2tlLXdpZHRoOjEuMDsiLz48cG9seWdvbiBmaWxsPSIjMTgxODE4IiBwb2ludHM9IjUxMy4zOCwyNDguNjksNTE0LjE3ODMsMjM4Ljg3MzYsNTExLjcyNjMsMjQzLjk3MTQsNTA2LjYyODUsMjQxLjUxOTQsNTEzLjM4LDI0OC42OSIgc3R5bGU9InN0cm9rZTojMTgxODE4O3N0cm9rZS13aWR0aDoxLjA7Ii8+PC9nPjwhLS1saW5rIEphdmFTY3JpcHQgRXhlY3V0aW9uIHRvIERPTSBNb2RpZmljYXRpb24tLT48ZyBpZD0ibGlua19KYXZhU2NyaXB0IEV4ZWN1dGlvbl9ET00gTW9kaWZpY2F0aW9uIj48cGF0aCBkPSJNMzQzLjcyLDI5NC4wOSBDMzc2LjIyLDMxMC45MiA0MjEuMzEsMzM0LjI2IDQ1NC44OSwzNTEuNjMgIiBmaWxsPSJub25lIiBpZD0iSmF2YVNjcmlwdCBFeGVjdXRpb24tdG8tRE9NIE1vZGlmaWNhdGlvbiIgc3R5bGU9InN0cm9rZTojMTgxODE4O3N0cm9rZS13aWR0aDoxLjA7Ii8+PHBvbHlnb24gZmlsbD0iIzE4MTgxOCIgcG9pbnRzPSI0NTkuMzQsMzUzLjk0LDQ1My4xODY0LDM0Ni4yNTAyLDQ1NC44OTk3LDM1MS42NDEzLDQ0OS41MDg2LDM1My4zNTQ2LDQ1OS4zNCwzNTMuOTQiIHN0eWxlPSJzdHJva2U6IzE4MTgxODtzdHJva2Utd2lkdGg6MS4wOyIvPjwvZz48IS0tbGluayBET00gR2VuZXJhdGlvbiB0byBET00gTW9kaWZpY2F0aW9uLS0+PGcgaWQ9ImxpbmtfRE9NIEdlbmVyYXRpb25fRE9NIE1vZGlmaWNhdGlvbiI+PHBhdGggZD0iTTY3My4zLDI5NC4wOSBDNjM3LjY5LDMxMC45MiA1ODguMjksMzM0LjI2IDU1MS41MSwzNTEuNjMgIiBmaWxsPSJub25lIiBpZD0iRE9NIEdlbmVyYXRpb24tdG8tRE9NIE1vZGlmaWNhdGlvbiIgc3R5bGU9InN0cm9rZTojMTgxODE4O3N0cm9rZS13aWR0aDoxLjA7Ii8+PHBvbHlnb24gZmlsbD0iIzE4MTgxOCIgcG9pbnRzPSI1NDYuNjQsMzUzLjk0LDU1Ni40ODU4LDM1My42OTQxLDU1MS4xNTY5LDM1MS43OTU5LDU1My4wNTUyLDM0Ni40NjcsNTQ2LjY0LDM1My45NCIgc3R5bGU9InN0cm9rZTojMTgxODE4O3N0cm9rZS13aWR0aDoxLjA7Ii8+PC9nPjwhLS1saW5rIFN0eWxlc2hlZXQgR2VuZXJhdGlvbiB0byBET00gTW9kaWZpY2F0aW9uLS0+PGcgaWQ9ImxpbmtfU3R5bGVzaGVldCBHZW5lcmF0aW9uX0RPTSBNb2RpZmljYXRpb24iPjxwYXRoIGQ9Ik01MTYuNzYsMjk0LjM0IEM1MTMuNjgsMzEwLjE4IDUwOS41LDMzMS43IDUwNi4yMiwzNDguNiAiIGZpbGw9Im5vbmUiIGlkPSJTdHlsZXNoZWV0IEdlbmVyYXRpb24tdG8tRE9NIE1vZGlmaWNhdGlvbiIgc3R5bGU9InN0cm9rZTojMTgxODE4O3N0cm9rZS13aWR0aDoxLjA7Ii8+PHBvbHlnb24gZmlsbD0iIzE4MTgxOCIgcG9pbnRzPSI1MDUuMjQsMzUzLjY5LDUxMC44NjQyLDM0NS42MDQ5LDUwNi4xODIxLDM0OC43Nzk2LDUwMy4wMDc1LDM0NC4wOTc1LDUwNS4yNCwzNTMuNjkiIHN0eWxlPSJzdHJva2U6IzE4MTgxODtzdHJva2Utd2lkdGg6MS4wOyIvPjwvZz48IS0tbGluayBET00gTW9kaWZpY2F0aW9uIHRvIFJlbmRlcmluZy0tPjxnIGlkPSJsaW5rX0RPTSBNb2RpZmljYXRpb25fUmVuZGVyaW5nIj48cGF0aCBkPSJNNDg4LjkxLDM5OS4zNCBDNDgwLjA3LDQxNS4zMiA0NjguMDMsNDM3LjA4IDQ1OC42NCw0NTQuMDQgIiBmaWxsPSJub25lIiBpZD0iRE9NIE1vZGlmaWNhdGlvbi10by1SZW5kZXJpbmciIHN0eWxlPSJzdHJva2U6IzE4MTgxODtzdHJva2Utd2lkdGg6MS4wOyIvPjxwb2x5Z29uIGZpbGw9IiMxODE4MTgiIHBvaW50cz0iNDU2LjA3LDQ1OC42OSw0NjMuOTIyNiw0NTIuNzQ1NSw0NTguNDg3Myw0NTQuMzEzMiw0NTYuOTE5Niw0NDguODc3OSw0NTYuMDcsNDU4LjY5IiBzdHlsZT0ic3Ryb2tlOiMxODE4MTg7c3Ryb2tlLXdpZHRoOjEuMDsiLz48L2c+PCEtLWxpbmsgSmF2YVNjcmlwdCBFeGVjdXRpb24gdG8gTWVkaWEgUGxheWJhY2stLT48ZyBpZD0ibGlua19KYXZhU2NyaXB0IEV4ZWN1dGlvbl9NZWRpYSBQbGF5YmFjayI+PHBhdGggZD0iTTMwMS41OCwyOTQuMzQgQzMwMS4yNywzMTAuMTggMzAwLjg1LDMzMS43IDMwMC41MiwzNDguNiAiIGZpbGw9Im5vbmUiIGlkPSJKYXZhU2NyaXB0IEV4ZWN1dGlvbi10by1NZWRpYSBQbGF5YmFjayIgc3R5bGU9InN0cm9rZTojMTgxODE4O3N0cm9rZS13aWR0aDoxLjA7Ii8+PHBvbHlnb24gZmlsbD0iIzE4MTgxOCIgcG9pbnRzPSIzMDAuNDIsMzUzLjY5LDMwNC41OTkyLDM0NC43NzE4LDMwMC41MiwzNDguNjkxLDI5Ni42MDA4LDM0NC42MTE4LDMwMC40MiwzNTMuNjkiIHN0eWxlPSJzdHJva2U6IzE4MTgxODtzdHJva2Utd2lkdGg6MS4wOyIvPjwvZz48IS0tbGluayBNZWRpYVBsYXllciB0byBNZWRpYSBQbGF5YmFjay0tPjxnIGlkPSJsaW5rX01lZGlhUGxheWVyX01lZGlhIFBsYXliYWNrIj48cGF0aCBkPSJNMTU2LjE1LDI5NC4wOSBDMTg1Ljc2LDMxMC44NSAyMjYuNzksMzM0LjA3IDI1Ny40NSwzNTEuNDIgIiBmaWxsPSJub25lIiBpZD0iTWVkaWFQbGF5ZXItdG8tTWVkaWEgUGxheWJhY2siIHN0eWxlPSJzdHJva2U6IzE4MTgxODtzdHJva2Utd2lkdGg6MS4wOyIvPjxwb2x5Z29uIGZpbGw9IiMxODE4MTgiIHBvaW50cz0iMjYxLjksMzUzLjk0LDI1Ni4wNDUxLDM0Ni4wMjA0LDI1Ny41NTA5LDM1MS40NzMxLDI1Mi4wOTgxLDM1Mi45Nzg5LDI2MS45LDM1My45NCIgc3R5bGU9InN0cm9rZTojMTgxODE4O3N0cm9rZS13aWR0aDoxLjA7Ii8+PC9nPjwhLS1saW5rIE5ldHdvcmtpbmcgU3RhY2sgdG8gUGxhdGZvcm0gQWJzdHJhY3Rpb24tLT48ZyBpZD0ibGlua19OZXR3b3JraW5nIFN0YWNrX1BsYXRmb3JtIEFic3RyYWN0aW9uIj48cGF0aCBkPSJNMTExLjg5LDE4OS4wOSBDODUuNTYsMjAyLjE0IDU3LjAyLDIyMS42MyA0MiwyNDkgQzMyLjM4LDI2Ni41MyAzNC45MSwyNzUuMyA0MiwyOTQgQzg3LjI2LDQxMy40MiAyMDYuMjcsNTE1LjM3IDI2NS41LDU2MC41NyAiIGZpbGw9Im5vbmUiIGlkPSJOZXR3b3JraW5nIFN0YWNrLXRvLVBsYXRmb3JtIEFic3RyYWN0aW9uIiBzdHlsZT0ic3Ryb2tlOiMxODE4MTg7c3Ryb2tlLXdpZHRoOjEuMDsiLz48cG9seWdvbiBmaWxsPSIjMTgxODE4IiBwb2ludHM9IjI2OS42Niw1NjMuNzMsMjY0LjkxNDEsNTU1LjEsMjY1LjY3ODksNTYwLjcwNDksMjYwLjA3NCw1NjEuNDY5OCwyNjkuNjYsNTYzLjczIiBzdHlsZT0ic3Ryb2tlOiMxODE4MTg7c3Ryb2tlLXdpZHRoOjEuMDsiLz48L2c+PCEtLWxpbmsgUmVuZGVyaW5nIHRvIFBsYXRmb3JtIEFic3RyYWN0aW9uLS0+PGcgaWQ9ImxpbmtfUmVuZGVyaW5nX1BsYXRmb3JtIEFic3RyYWN0aW9uIj48cGF0aCBkPSJNNDEzLjgxLDUwNC4wOSBDMzkwLjU4LDUyMC43MSAzNTguNDYsNTQzLjY5IDMzNC4yNiw1NjAuOTkgIiBmaWxsPSJub25lIiBpZD0iUmVuZGVyaW5nLXRvLVBsYXRmb3JtIEFic3RyYWN0aW9uIiBzdHlsZT0ic3Ryb2tlOiMxODE4MTg7c3Ryb2tlLXdpZHRoOjEuMDsiLz48cG9seWdvbiBmaWxsPSIjMTgxODE4IiBwb2ludHM9IjMzMC4xNSw1NjMuOTQsMzM5LjgwMTIsNTYxLjk3NjYsMzM0LjIyMjUsNTYxLjAzOTIsMzM1LjE1OTksNTU1LjQ2MDYsMzMwLjE1LDU2My45NCIgc3R5bGU9InN0cm9rZTojMTgxODE4O3N0cm9rZS13aWR0aDoxLjA7Ii8+PC9nPjwhLS1saW5rIE1lZGlhIFBsYXliYWNrIHRvIFBsYXRmb3JtIEFic3RyYWN0aW9uLS0+PGcgaWQ9ImxpbmtfTWVkaWEgUGxheWJhY2tfUGxhdGZvcm0gQWJzdHJhY3Rpb24iPjxwYXRoIGQ9Ik0zMDAsMzk5LjM3IEMzMDAsNDM3Ljc4IDMwMCw1MTcuMjIgMzAwLDU1OC44ICIgZmlsbD0ibm9uZSIgaWQ9Ik1lZGlhIFBsYXliYWNrLXRvLVBsYXRmb3JtIEFic3RyYWN0aW9uIiBzdHlsZT0ic3Ryb2tlOiMxODE4MTg7c3Ryb2tlLXdpZHRoOjEuMDsiLz48cG9seWdvbiBmaWxsPSIjMTgxODE4IiBwb2ludHM9IjMwMCw1NjMuOTMsMzA0LDU1NC45MywzMDAsNTU4LjkzLDI5Niw1NTQuOTMsMzAwLDU2My45MyIgc3R5bGU9InN0cm9rZTojMTgxODE4O3N0cm9rZS13aWR0aDoxLjA7Ii8+PC9nPjwhLS1saW5rIFBsYXRmb3JtIEFic3RyYWN0aW9uIHRvIE1lZGlhIERlY29kZXItLT48ZyBpZD0ibGlua19QbGF0Zm9ybSBBYnN0cmFjdGlvbl9NZWRpYSBEZWNvZGVyIj48cGF0aCBkPSJNMzU4LjMzLDYwOS4wNyBDMzcxLjM1LDYxNC42NSAzODQuODksNjIxLjA2IDM5Nyw2MjggQzQxNS43NCw2MzguNzQgNDM1LjExLDY1My4xMSA0NTAuNDIsNjY1LjM2ICIgZmlsbD0ibm9uZSIgaWQ9IlBsYXRmb3JtIEFic3RyYWN0aW9uLXRvLU1lZGlhIERlY29kZXIiIHN0eWxlPSJzdHJva2U6IzE4MTgxODtzdHJva2Utd2lkdGg6MS4wOyIvPjxwb2x5Z29uIGZpbGw9IiMxODE4MTgiIHBvaW50cz0iNDU0LjYyLDY2OC43NSw0NTAuMTIyMiw2NTkuOTg4Miw0NTAuNzI2OCw2NjUuNjEyNiw0NDUuMTAyNCw2NjYuMjE3Myw0NTQuNjIsNjY4Ljc1IiBzdHlsZT0ic3Ryb2tlOiMxODE4MTg7c3Ryb2tlLXdpZHRoOjEuMDsiLz48L2c+PCEtLWxpbmsgUGxhdGZvcm0gQWJzdHJhY3Rpb24gdG8gR3JhcGhpY3MgUmVuZGVyZXItLT48ZyBpZD0ibGlua19QbGF0Zm9ybSBBYnN0cmFjdGlvbl9HcmFwaGljcyBSZW5kZXJlciI+PHBhdGggZD0iTTMwMCw2MDkuMzQgQzMwMCw2MjUuMTggMzAwLDY0Ni43IDMwMCw2NjMuNiAiIGZpbGw9Im5vbmUiIGlkPSJQbGF0Zm9ybSBBYnN0cmFjdGlvbi10by1HcmFwaGljcyBSZW5kZXJlciIgc3R5bGU9InN0cm9rZTojMTgxODE4O3N0cm9rZS13aWR0aDoxLjA7Ii8+PHBvbHlnb24gZmlsbD0iIzE4MTgxOCIgcG9pbnRzPSIzMDAsNjY4LjY5LDMwNCw2NTkuNjksMzAwLDY2My42OSwyOTYsNjU5LjY5LDMwMCw2NjguNjkiIHN0eWxlPSJzdHJva2U6IzE4MTgxODtzdHJva2Utd2lkdGg6MS4wOyIvPjwvZz48IS0tbGluayBQbGF0Zm9ybSBBYnN0cmFjdGlvbiB0byBJbnB1dCBIYW5kbGluZy0tPjxnIGlkPSJsaW5rX1BsYXRmb3JtIEFic3RyYWN0aW9uX0lucHV0IEhhbmRsaW5nIj48cGF0aCBkPSJNMjQyLjMsNjA5LjA2IEMyMjkuMTEsNjE0LjY3IDIxNS4zNSw2MjEuMSAyMDMsNjI4IEMxODMuMzksNjM4Ljk1IDE2Mi45Miw2NTMuNDggMTQ2Ljc3LDY2NS43NyAiIGZpbGw9Im5vbmUiIGlkPSJQbGF0Zm9ybSBBYnN0cmFjdGlvbi10by1JbnB1dCBIYW5kbGluZyIgc3R5bGU9InN0cm9rZTojMTgxODE4O3N0cm9rZS13aWR0aDoxLjA7Ii8+PHBvbHlnb24gZmlsbD0iIzE4MTgxOCIgcG9pbnRzPSIxNDIuNzYsNjY4Ljg0LDE1Mi4zMzY5LDY2Ni41NDE0LDE0Ni43MjksNjY1Ljc5OSwxNDcuNDcxMyw2NjAuMTkxMSwxNDIuNzYsNjY4Ljg0IiBzdHlsZT0ic3Ryb2tlOiMxODE4MTg7c3Ryb2tlLXdpZHRoOjEuMDsiLz48L2c+PCEtLVNSQz1bWlBERFJlQ200OE50RVNLZVV3dkdnR2ZMYVlncWc2R05pSFpDNEFvMHhIZ0pEQWZvem1CRTN3NEc4aDRRbGtWdFBrbkhvN1F1OVBaRVA4SVBjU0JsMTYzcEdVT1d6T3dCQkdJYzhhOW1Ja015bTZRbk5sa1d3UmthbWEyQThpdWc5Z21iX05fMGlJZmwxSnhndVhidTVXSEZpLSAtdW51MWZoV295X0gwaDNQVVk1YmJUb3pKWXhnUzdTbkFheUdCVWtMYWVDQ1VDWWZKOFREYlVqemw5ZGVudm1YY3NHdEdTWC00MXNfN0p4LWVNX284SGFweEZSb0l1SHA1N3kzQ3lIbEt6ZG1MRGpJd0lWaVlqVTRCaW8zODIzcU5yWjc4SWZrY2MwYXFZVEd3bEtNNHFpZFJnZGlTTG91RWVOT1BhaFBRVVczalBubk5MZm92eHVEQVVDdTkwNFFsZDJpalNQS3JWcE9HQmtvMU40dlVPaDhBNWpaUk5nNUJFMmgxbmhfTWJLQU0xSE1qVDZpLVhFVHEyenZjQ0k4T29aQ1otSHBuREpkeTBdLS0+PC9nPjwvc3ZnPg==;" vertex="1" parent="1">
            <mxGeometry x="-500" y="408" width="811" height="761" as="geometry" />
          </mxCell>
        </UserObject>
        <UserObject label="" plantUmlData="{&#xa;  &quot;data&quot;: &quot;@startuml\npackage \&quot;Cobalt\&quot; {\n\n  component \&quot;Networking Stack\&quot; as Net\n  \n  component \&quot;HTML Parser\&quot; \n  component \&quot;DOM Generator\&quot; \n  component \&quot;CSS Parser\&quot; \n  component \&quot;Stylesheet Generator\&quot; \n  component \&quot;JavaScript Execution Engine\&quot; as JS\n  component \&quot;DOM Modifier\&quot; \n\n  component \&quot;Rendering Engine\&quot; \n\n  component \&quot;Media Playback\&quot; \n  \n  rectangle \&quot;Lifecycle Management\&quot; \n\n  rectangle \&quot;Platform Abstraction\&quot; \n  \n  Net --&gt; \&quot;HTML Parser\&quot; : sends HTML\n  Net --&gt; \&quot;CSS Parser\&quot; : sends CSS\n  Net --&gt; JS : sends JS\n\n  \&quot;HTML Parser\&quot; --&gt; \&quot;DOM Generator\&quot; : sends DOM Tree\n  \&quot;CSS Parser\&quot; --&gt; \&quot;Stylesheet Generator\&quot; : sends Style Rules\n  JS --&gt; \&quot;DOM Modifier\&quot; : modifies DOM\n\n  \&quot;DOM Generator\&quot; --&gt; \&quot;DOM Modifier\&quot;\n  \&quot;Stylesheet Generator\&quot; --&gt; \&quot;DOM Modifier\&quot;\n\n  \&quot;DOM Modifier\&quot; --&gt; \&quot;Rendering Engine\&quot; : provides Render Tree\n\n  JS --&gt; \&quot;Media Playback\&quot; : controls playback\n\n  Net --&gt; \&quot;Platform Abstraction\&quot; \n  \&quot;Rendering Engine\&quot;--&gt; \&quot;Platform Abstraction\&quot; \n  \&quot;Media Playback\&quot; --&gt; \&quot;Platform Abstraction\&quot; \n\n  rectangle \&quot;Device Specific Implementations\&quot; {\n    component \&quot;Media Decoder\&quot; \n    component \&quot;Graphics Renderer\&quot; \n    component \&quot;Input Handling\&quot; \n\n    \&quot;Platform Abstraction\&quot; --&gt; \&quot;Media Decoder\&quot;\n    \&quot;Platform Abstraction\&quot; --&gt; \&quot;Graphics Renderer\&quot;\n    \&quot;Platform Abstraction\&quot; --&gt; \&quot;Input Handling\&quot;\n  }\n}\n@enduml&quot;,&#xa;  &quot;format&quot;: &quot;svg&quot;&#xa;}" id="J6V1U3YTcORKghmEE3JZ-10">
          <mxCell style="shape=image;noLabel=1;verticalAlign=top;aspect=fixed;imageAspect=0;image=data:image/svg+xml,PD94bWwgdmVyc2lvbj0iMS4wIiBlbmNvZGluZz0idXMtYXNjaWkiIHN0YW5kYWxvbmU9Im5vIj8+PHN2ZyB4bWxucz0iaHR0cDovL3d3dy53My5vcmcvMjAwMC9zdmciIHhtbG5zOnhsaW5rPSJodHRwOi8vd3d3LnczLm9yZy8xOTk5L3hsaW5rIiBjb250ZW50U3R5bGVUeXBlPSJ0ZXh0L2NzcyIgaGVpZ2h0PSI4MzJweCIgcHJlc2VydmVBc3BlY3RSYXRpbz0ibm9uZSIgc3R5bGU9IndpZHRoOjY5NHB4O2hlaWdodDo4MzJweDtiYWNrZ3JvdW5kOiNGRkZGRkY7IiB2ZXJzaW9uPSIxLjEiIHZpZXdCb3g9IjAgMCA2OTQgODMyIiB3aWR0aD0iNjk0cHgiIHpvb21BbmRQYW49Im1hZ25pZnkiPjxkZWZzLz48Zz48IS0tY2x1c3RlciBDb2JhbHQtLT48ZyBpZD0iY2x1c3Rlcl9Db2JhbHQiPjxwYXRoIGQ9Ik04LjUsNiBMNTEuNSw2IEEzLjc1LDMuNzUgMCAwIDEgNTQsOC41IEw2MSwyNi45ODQ0IEw2ODQuNSwyNi45ODQ0IEEyLjUsMi41IDAgMCAxIDY4NywyOS40ODQ0IEw2ODcsODIyLjUgQTIuNSwyLjUgMCAwIDEgNjg0LjUsODI1IEw4LjUsODI1IEEyLjUsMi41IDAgMCAxIDYsODIyLjUgTDYsOC41IEEyLjUsMi41IDAgMCAxIDguNSw2ICIgZmlsbD0ibm9uZSIgc3R5bGU9InN0cm9rZTojMDAwMDAwO3N0cm9rZS13aWR0aDoxLjU7Ii8+PGxpbmUgc3R5bGU9InN0cm9rZTojMDAwMDAwO3N0cm9rZS13aWR0aDoxLjU7IiB4MT0iNiIgeDI9IjYxIiB5MT0iMjYuOTg0NCIgeTI9IjI2Ljk4NDQiLz48dGV4dCBmaWxsPSIjMDAwMDAwIiBmb250LWZhbWlseT0ic2Fucy1zZXJpZiIgZm9udC1zaXplPSIxNCIgZm9udC13ZWlnaHQ9ImJvbGQiIGxlbmd0aEFkanVzdD0ic3BhY2luZyIgdGV4dExlbmd0aD0iNDIiIHg9IjEwIiB5PSIyMS4yMzQ0Ij5Db2JhbHQ8L3RleHQ+PC9nPjwhLS1jbHVzdGVyIERldmljZSBTcGVjaWZpYyBJbXBsZW1lbnRhdGlvbnMtLT48ZyBpZD0iY2x1c3Rlcl9EZXZpY2UgU3BlY2lmaWMgSW1wbGVtZW50YXRpb25zIj48cmVjdCBmaWxsPSJub25lIiBoZWlnaHQ9Ijk0IiByeD0iMi41IiByeT0iMi41IiBzdHlsZT0ic3Ryb2tlOiMxODE4MTg7c3Ryb2tlLXdpZHRoOjEuMDsiIHdpZHRoPSI1MzEiIHg9IjEzMiIgeT0iNzA3Ii8+PHRleHQgZmlsbD0iIzAwMDAwMCIgZm9udC1mYW1pbHk9InNhbnMtc2VyaWYiIGZvbnQtc2l6ZT0iMTQiIGZvbnQtd2VpZ2h0PSJib2xkIiBsZW5ndGhBZGp1c3Q9InNwYWNpbmciIHRleHRMZW5ndGg9IjIxOSIgeD0iMjg4IiB5PSI3MjIuMjM0NCI+RGV2aWNlIFNwZWNpZmljIEltcGxlbWVudGF0aW9uczwvdGV4dD48L2c+PCEtLWVudGl0eSBOZXQtLT48ZyBpZD0iZWxlbV9OZXQiPjxyZWN0IGZpbGw9IiNGMUYxRjEiIGhlaWdodD0iNDQuOTg0NCIgcng9IjIuNSIgcnk9IjIuNSIgc3R5bGU9InN0cm9rZTojMTgxODE4O3N0cm9rZS13aWR0aDowLjU7IiB3aWR0aD0iMTUzIiB4PSIzNTguNSIgeT0iMzkiLz48cmVjdCBmaWxsPSIjRjFGMUYxIiBoZWlnaHQ9IjEwIiBzdHlsZT0ic3Ryb2tlOiMxODE4MTg7c3Ryb2tlLXdpZHRoOjAuNTsiIHdpZHRoPSIxNSIgeD0iNDkxLjUiIHk9IjQ0Ii8+PHJlY3QgZmlsbD0iI0YxRjFGMSIgaGVpZ2h0PSIyIiBzdHlsZT0ic3Ryb2tlOiMxODE4MTg7c3Ryb2tlLXdpZHRoOjAuNTsiIHdpZHRoPSI0IiB4PSI0ODkuNSIgeT0iNDYiLz48cmVjdCBmaWxsPSIjRjFGMUYxIiBoZWlnaHQ9IjIiIHN0eWxlPSJzdHJva2U6IzE4MTgxODtzdHJva2Utd2lkdGg6MC41OyIgd2lkdGg9IjQiIHg9IjQ4OS41IiB5PSI1MCIvPjx0ZXh0IGZpbGw9IiMwMDAwMDAiIGZvbnQtZmFtaWx5PSJzYW5zLXNlcmlmIiBmb250LXNpemU9IjE0IiBsZW5ndGhBZGp1c3Q9InNwYWNpbmciIHRleHRMZW5ndGg9IjExMyIgeD0iMzczLjUiIHk9IjcyLjIzNDQiPk5ldHdvcmtpbmcgU3RhY2s8L3RleHQ+PC9nPjwhLS1lbnRpdHkgSFRNTCBQYXJzZXItLT48ZyBpZD0iZWxlbV9IVE1MIFBhcnNlciI+PHJlY3QgZmlsbD0iI0YxRjFGMSIgaGVpZ2h0PSI0NC45ODQ0IiByeD0iMi41IiByeT0iMi41IiBzdHlsZT0ic3Ryb2tlOiMxODE4MTg7c3Ryb2tlLXdpZHRoOjAuNTsiIHdpZHRoPSIxMTciIHg9Ijc5LjUiIHk9IjE1OSIvPjxyZWN0IGZpbGw9IiNGMUYxRjEiIGhlaWdodD0iMTAiIHN0eWxlPSJzdHJva2U6IzE4MTgxODtzdHJva2Utd2lkdGg6MC41OyIgd2lkdGg9IjE1IiB4PSIxNzYuNSIgeT0iMTY0Ii8+PHJlY3QgZmlsbD0iI0YxRjFGMSIgaGVpZ2h0PSIyIiBzdHlsZT0ic3Ryb2tlOiMxODE4MTg7c3Ryb2tlLXdpZHRoOjAuNTsiIHdpZHRoPSI0IiB4PSIxNzQuNSIgeT0iMTY2Ii8+PHJlY3QgZmlsbD0iI0YxRjFGMSIgaGVpZ2h0PSIyIiBzdHlsZT0ic3Ryb2tlOiMxODE4MTg7c3Ryb2tlLXdpZHRoOjAuNTsiIHdpZHRoPSI0IiB4PSIxNzQuNSIgeT0iMTcwIi8+PHRleHQgZmlsbD0iIzAwMDAwMCIgZm9udC1mYW1pbHk9InNhbnMtc2VyaWYiIGZvbnQtc2l6ZT0iMTQiIGxlbmd0aEFkanVzdD0ic3BhY2luZyIgdGV4dExlbmd0aD0iNzciIHg9Ijk0LjUiIHk9IjE5Mi4yMzQ0Ij5IVE1MIFBhcnNlcjwvdGV4dD48L2c+PCEtLWVudGl0eSBET00gR2VuZXJhdG9yLS0+PGcgaWQ9ImVsZW1fRE9NIEdlbmVyYXRvciI+PHJlY3QgZmlsbD0iI0YxRjFGMSIgaGVpZ2h0PSI0NC45ODQ0IiByeD0iMi41IiByeT0iMi41IiBzdHlsZT0ic3Ryb2tlOiMxODE4MTg7c3Ryb2tlLXdpZHRoOjAuNTsiIHdpZHRoPSIxMzEiIHg9IjIyLjUiIHk9IjI3OSIvPjxyZWN0IGZpbGw9IiNGMUYxRjEiIGhlaWdodD0iMTAiIHN0eWxlPSJzdHJva2U6IzE4MTgxODtzdHJva2Utd2lkdGg6MC41OyIgd2lkdGg9IjE1IiB4PSIxMzMuNSIgeT0iMjg0Ii8+PHJlY3QgZmlsbD0iI0YxRjFGMSIgaGVpZ2h0PSIyIiBzdHlsZT0ic3Ryb2tlOiMxODE4MTg7c3Ryb2tlLXdpZHRoOjAuNTsiIHdpZHRoPSI0IiB4PSIxMzEuNSIgeT0iMjg2Ii8+PHJlY3QgZmlsbD0iI0YxRjFGMSIgaGVpZ2h0PSIyIiBzdHlsZT0ic3Ryb2tlOiMxODE4MTg7c3Ryb2tlLXdpZHRoOjAuNTsiIHdpZHRoPSI0IiB4PSIxMzEuNSIgeT0iMjkwIi8+PHRleHQgZmlsbD0iIzAwMDAwMCIgZm9udC1mYW1pbHk9InNhbnMtc2VyaWYiIGZvbnQtc2l6ZT0iMTQiIGxlbmd0aEFkanVzdD0ic3BhY2luZyIgdGV4dExlbmd0aD0iOTEiIHg9IjM3LjUiIHk9IjMxMi4yMzQ0Ij5ET00gR2VuZXJhdG9yPC90ZXh0PjwvZz48IS0tZW50aXR5IENTUyBQYXJzZXItLT48ZyBpZD0iZWxlbV9DU1MgUGFyc2VyIj48cmVjdCBmaWxsPSIjRjFGMUYxIiBoZWlnaHQ9IjQ0Ljk4NDQiIHJ4PSIyLjUiIHJ5PSIyLjUiIHN0eWxlPSJzdHJva2U6IzE4MTgxODtzdHJva2Utd2lkdGg6MC41OyIgd2lkdGg9IjExMCIgeD0iMjY4IiB5PSIxNTkiLz48cmVjdCBmaWxsPSIjRjFGMUYxIiBoZWlnaHQ9IjEwIiBzdHlsZT0ic3Ryb2tlOiMxODE4MTg7c3Ryb2tlLXdpZHRoOjAuNTsiIHdpZHRoPSIxNSIgeD0iMzU4IiB5PSIxNjQiLz48cmVjdCBmaWxsPSIjRjFGMUYxIiBoZWlnaHQ9IjIiIHN0eWxlPSJzdHJva2U6IzE4MTgxODtzdHJva2Utd2lkdGg6MC41OyIgd2lkdGg9IjQiIHg9IjM1NiIgeT0iMTY2Ii8+PHJlY3QgZmlsbD0iI0YxRjFGMSIgaGVpZ2h0PSIyIiBzdHlsZT0ic3Ryb2tlOiMxODE4MTg7c3Ryb2tlLXdpZHRoOjAuNTsiIHdpZHRoPSI0IiB4PSIzNTYiIHk9IjE3MCIvPjx0ZXh0IGZpbGw9IiMwMDAwMDAiIGZvbnQtZmFtaWx5PSJzYW5zLXNlcmlmIiBmb250LXNpemU9IjE0IiBsZW5ndGhBZGp1c3Q9InNwYWNpbmciIHRleHRMZW5ndGg9IjcwIiB4PSIyODMiIHk9IjE5Mi4yMzQ0Ij5DU1MgUGFyc2VyPC90ZXh0PjwvZz48IS0tZW50aXR5IFN0eWxlc2hlZXQgR2VuZXJhdG9yLS0+PGcgaWQ9ImVsZW1fU3R5bGVzaGVldCBHZW5lcmF0b3IiPjxyZWN0IGZpbGw9IiNGMUYxRjEiIGhlaWdodD0iNDQuOTg0NCIgcng9IjIuNSIgcnk9IjIuNSIgc3R5bGU9InN0cm9rZTojMTgxODE4O3N0cm9rZS13aWR0aDowLjU7IiB3aWR0aD0iMTgwIiB4PSIxODkiIHk9IjI3OSIvPjxyZWN0IGZpbGw9IiNGMUYxRjEiIGhlaWdodD0iMTAiIHN0eWxlPSJzdHJva2U6IzE4MTgxODtzdHJva2Utd2lkdGg6MC41OyIgd2lkdGg9IjE1IiB4PSIzNDkiIHk9IjI4NCIvPjxyZWN0IGZpbGw9IiNGMUYxRjEiIGhlaWdodD0iMiIgc3R5bGU9InN0cm9rZTojMTgxODE4O3N0cm9rZS13aWR0aDowLjU7IiB3aWR0aD0iNCIgeD0iMzQ3IiB5PSIyODYiLz48cmVjdCBmaWxsPSIjRjFGMUYxIiBoZWlnaHQ9IjIiIHN0eWxlPSJzdHJva2U6IzE4MTgxODtzdHJva2Utd2lkdGg6MC41OyIgd2lkdGg9IjQiIHg9IjM0NyIgeT0iMjkwIi8+PHRleHQgZmlsbD0iIzAwMDAwMCIgZm9udC1mYW1pbHk9InNhbnMtc2VyaWYiIGZvbnQtc2l6ZT0iMTQiIGxlbmd0aEFkanVzdD0ic3BhY2luZyIgdGV4dExlbmd0aD0iMTQwIiB4PSIyMDQiIHk9IjMxMi4yMzQ0Ij5TdHlsZXNoZWV0IEdlbmVyYXRvcjwvdGV4dD48L2c+PCEtLWVudGl0eSBKUy0tPjxnIGlkPSJlbGVtX0pTIj48cmVjdCBmaWxsPSIjRjFGMUYxIiBoZWlnaHQ9IjQ0Ljk4NDQiIHJ4PSIyLjUiIHJ5PSIyLjUiIHN0eWxlPSJzdHJva2U6IzE4MTgxODtzdHJva2Utd2lkdGg6MC41OyIgd2lkdGg9IjIzMCIgeD0iNDA0IiB5PSIyNzkiLz48cmVjdCBmaWxsPSIjRjFGMUYxIiBoZWlnaHQ9IjEwIiBzdHlsZT0ic3Ryb2tlOiMxODE4MTg7c3Ryb2tlLXdpZHRoOjAuNTsiIHdpZHRoPSIxNSIgeD0iNjE0IiB5PSIyODQiLz48cmVjdCBmaWxsPSIjRjFGMUYxIiBoZWlnaHQ9IjIiIHN0eWxlPSJzdHJva2U6IzE4MTgxODtzdHJva2Utd2lkdGg6MC41OyIgd2lkdGg9IjQiIHg9IjYxMiIgeT0iMjg2Ii8+PHJlY3QgZmlsbD0iI0YxRjFGMSIgaGVpZ2h0PSIyIiBzdHlsZT0ic3Ryb2tlOiMxODE4MTg7c3Ryb2tlLXdpZHRoOjAuNTsiIHdpZHRoPSI0IiB4PSI2MTIiIHk9IjI5MCIvPjx0ZXh0IGZpbGw9IiMwMDAwMDAiIGZvbnQtZmFtaWx5PSJzYW5zLXNlcmlmIiBmb250LXNpemU9IjE0IiBsZW5ndGhBZGp1c3Q9InNwYWNpbmciIHRleHRMZW5ndGg9IjE5MCIgeD0iNDE5IiB5PSIzMTIuMjM0NCI+SmF2YVNjcmlwdCBFeGVjdXRpb24gRW5naW5lPC90ZXh0PjwvZz48IS0tZW50aXR5IERPTSBNb2RpZmllci0tPjxnIGlkPSJlbGVtX0RPTSBNb2RpZmllciI+PHJlY3QgZmlsbD0iI0YxRjFGMSIgaGVpZ2h0PSI0NC45ODQ0IiByeD0iMi41IiByeT0iMi41IiBzdHlsZT0ic3Ryb2tlOiMxODE4MTg7c3Ryb2tlLXdpZHRoOjAuNTsiIHdpZHRoPSIxMjQiIHg9IjI0MCIgeT0iMzk5Ii8+PHJlY3QgZmlsbD0iI0YxRjFGMSIgaGVpZ2h0PSIxMCIgc3R5bGU9InN0cm9rZTojMTgxODE4O3N0cm9rZS13aWR0aDowLjU7IiB3aWR0aD0iMTUiIHg9IjM0NCIgeT0iNDA0Ii8+PHJlY3QgZmlsbD0iI0YxRjFGMSIgaGVpZ2h0PSIyIiBzdHlsZT0ic3Ryb2tlOiMxODE4MTg7c3Ryb2tlLXdpZHRoOjAuNTsiIHdpZHRoPSI0IiB4PSIzNDIiIHk9IjQwNiIvPjxyZWN0IGZpbGw9IiNGMUYxRjEiIGhlaWdodD0iMiIgc3R5bGU9InN0cm9rZTojMTgxODE4O3N0cm9rZS13aWR0aDowLjU7IiB3aWR0aD0iNCIgeD0iMzQyIiB5PSI0MTAiLz48dGV4dCBmaWxsPSIjMDAwMDAwIiBmb250LWZhbWlseT0ic2Fucy1zZXJpZiIgZm9udC1zaXplPSIxNCIgbGVuZ3RoQWRqdXN0PSJzcGFjaW5nIiB0ZXh0TGVuZ3RoPSI4NCIgeD0iMjU1IiB5PSI0MzIuMjM0NCI+RE9NIE1vZGlmaWVyPC90ZXh0PjwvZz48IS0tZW50aXR5IFJlbmRlcmluZyBFbmdpbmUtLT48ZyBpZD0iZWxlbV9SZW5kZXJpbmcgRW5naW5lIj48cmVjdCBmaWxsPSIjRjFGMUYxIiBoZWlnaHQ9IjQ0Ljk4NDQiIHJ4PSIyLjUiIHJ5PSIyLjUiIHN0eWxlPSJzdHJva2U6IzE4MTgxODtzdHJva2Utd2lkdGg6MC41OyIgd2lkdGg9IjE1MiIgeD0iMjY1IiB5PSI1MTkiLz48cmVjdCBmaWxsPSIjRjFGMUYxIiBoZWlnaHQ9IjEwIiBzdHlsZT0ic3Ryb2tlOiMxODE4MTg7c3Ryb2tlLXdpZHRoOjAuNTsiIHdpZHRoPSIxNSIgeD0iMzk3IiB5PSI1MjQiLz48cmVjdCBmaWxsPSIjRjFGMUYxIiBoZWlnaHQ9IjIiIHN0eWxlPSJzdHJva2U6IzE4MTgxODtzdHJva2Utd2lkdGg6MC41OyIgd2lkdGg9IjQiIHg9IjM5NSIgeT0iNTI2Ii8+PHJlY3QgZmlsbD0iI0YxRjFGMSIgaGVpZ2h0PSIyIiBzdHlsZT0ic3Ryb2tlOiMxODE4MTg7c3Ryb2tlLXdpZHRoOjAuNTsiIHdpZHRoPSI0IiB4PSIzOTUiIHk9IjUzMCIvPjx0ZXh0IGZpbGw9IiMwMDAwMDAiIGZvbnQtZmFtaWx5PSJzYW5zLXNlcmlmIiBmb250LXNpemU9IjE0IiBsZW5ndGhBZGp1c3Q9InNwYWNpbmciIHRleHRMZW5ndGg9IjExMiIgeD0iMjgwIiB5PSI1NTIuMjM0NCI+UmVuZGVyaW5nIEVuZ2luZTwvdGV4dD48L2c+PCEtLWVudGl0eSBNZWRpYSBQbGF5YmFjay0tPjxnIGlkPSJlbGVtX01lZGlhIFBsYXliYWNrIj48cmVjdCBmaWxsPSIjRjFGMUYxIiBoZWlnaHQ9IjQ0Ljk4NDQiIHJ4PSIyLjUiIHJ5PSIyLjUiIHN0eWxlPSJzdHJva2U6IzE4MTgxODtzdHJva2Utd2lkdGg6MC41OyIgd2lkdGg9IjEzOCIgeD0iNDM2IiB5PSIzOTkiLz48cmVjdCBmaWxsPSIjRjFGMUYxIiBoZWlnaHQ9IjEwIiBzdHlsZT0ic3Ryb2tlOiMxODE4MTg7c3Ryb2tlLXdpZHRoOjAuNTsiIHdpZHRoPSIxNSIgeD0iNTU0IiB5PSI0MDQiLz48cmVjdCBmaWxsPSIjRjFGMUYxIiBoZWlnaHQ9IjIiIHN0eWxlPSJzdHJva2U6IzE4MTgxODtzdHJva2Utd2lkdGg6MC41OyIgd2lkdGg9IjQiIHg9IjU1MiIgeT0iNDA2Ii8+PHJlY3QgZmlsbD0iI0YxRjFGMSIgaGVpZ2h0PSIyIiBzdHlsZT0ic3Ryb2tlOiMxODE4MTg7c3Ryb2tlLXdpZHRoOjAuNTsiIHdpZHRoPSI0IiB4PSI1NTIiIHk9IjQxMCIvPjx0ZXh0IGZpbGw9IiMwMDAwMDAiIGZvbnQtZmFtaWx5PSJzYW5zLXNlcmlmIiBmb250LXNpemU9IjE0IiBsZW5ndGhBZGp1c3Q9InNwYWNpbmciIHRleHRMZW5ndGg9Ijk4IiB4PSI0NTEiIHk9IjQzMi4yMzQ0Ij5NZWRpYSBQbGF5YmFjazwvdGV4dD48L2c+PCEtLWVudGl0eSBMaWZlY3ljbGUgTWFuYWdlbWVudC0tPjxnIGlkPSJlbGVtX0xpZmVjeWNsZSBNYW5hZ2VtZW50Ij48cmVjdCBmaWxsPSIjRjFGMUYxIiBoZWlnaHQ9IjM0Ljk4NDQiIHJ4PSIyLjUiIHJ5PSIyLjUiIHN0eWxlPSJzdHJva2U6IzE4MTgxODtzdHJva2Utd2lkdGg6MC41OyIgd2lkdGg9IjE2MSIgeD0iNTAuNSIgeT0iNDQiLz48dGV4dCBmaWxsPSIjMDAwMDAwIiBmb250LWZhbWlseT0ic2Fucy1zZXJpZiIgZm9udC1zaXplPSIxNCIgbGVuZ3RoQWRqdXN0PSJzcGFjaW5nIiB0ZXh0TGVuZ3RoPSIxNDEiIHg9IjYwLjUiIHk9IjY3LjIzNDQiPkxpZmVjeWNsZSBNYW5hZ2VtZW50PC90ZXh0PjwvZz48IS0tZW50aXR5IFBsYXRmb3JtIEFic3RyYWN0aW9uLS0+PGcgaWQ9ImVsZW1fUGxhdGZvcm0gQWJzdHJhY3Rpb24iPjxyZWN0IGZpbGw9IiNGMUYxRjEiIGhlaWdodD0iMzQuOTg0NCIgcng9IjIuNSIgcnk9IjIuNSIgc3R5bGU9InN0cm9rZTojMTgxODE4O3N0cm9rZS13aWR0aDowLjU7IiB3aWR0aD0iMTYxIiB4PSIzMzUuNSIgeT0iNjI1Ii8+PHRleHQgZmlsbD0iIzAwMDAwMCIgZm9udC1mYW1pbHk9InNhbnMtc2VyaWYiIGZvbnQtc2l6ZT0iMTQiIGxlbmd0aEFkanVzdD0ic3BhY2luZyIgdGV4dExlbmd0aD0iMTQxIiB4PSIzNDUuNSIgeT0iNjQ4LjIzNDQiPlBsYXRmb3JtIEFic3RyYWN0aW9uPC90ZXh0PjwvZz48IS0tZW50aXR5IE1lZGlhIERlY29kZXItLT48ZyBpZD0iZWxlbV9NZWRpYSBEZWNvZGVyIj48cmVjdCBmaWxsPSIjRjFGMUYxIiBoZWlnaHQ9IjQ0Ljk4NDQiIHJ4PSIyLjUiIHJ5PSIyLjUiIHN0eWxlPSJzdHJva2U6IzE4MTgxODtzdHJva2Utd2lkdGg6MC41OyIgd2lkdGg9IjEzMSIgeD0iMTQ4LjUiIHk9Ijc0MCIvPjxyZWN0IGZpbGw9IiNGMUYxRjEiIGhlaWdodD0iMTAiIHN0eWxlPSJzdHJva2U6IzE4MTgxODtzdHJva2Utd2lkdGg6MC41OyIgd2lkdGg9IjE1IiB4PSIyNTkuNSIgeT0iNzQ1Ii8+PHJlY3QgZmlsbD0iI0YxRjFGMSIgaGVpZ2h0PSIyIiBzdHlsZT0ic3Ryb2tlOiMxODE4MTg7c3Ryb2tlLXdpZHRoOjAuNTsiIHdpZHRoPSI0IiB4PSIyNTcuNSIgeT0iNzQ3Ii8+PHJlY3QgZmlsbD0iI0YxRjFGMSIgaGVpZ2h0PSIyIiBzdHlsZT0ic3Ryb2tlOiMxODE4MTg7c3Ryb2tlLXdpZHRoOjAuNTsiIHdpZHRoPSI0IiB4PSIyNTcuNSIgeT0iNzUxIi8+PHRleHQgZmlsbD0iIzAwMDAwMCIgZm9udC1mYW1pbHk9InNhbnMtc2VyaWYiIGZvbnQtc2l6ZT0iMTQiIGxlbmd0aEFkanVzdD0ic3BhY2luZyIgdGV4dExlbmd0aD0iOTEiIHg9IjE2My41IiB5PSI3NzMuMjM0NCI+TWVkaWEgRGVjb2RlcjwvdGV4dD48L2c+PCEtLWVudGl0eSBHcmFwaGljcyBSZW5kZXJlci0tPjxnIGlkPSJlbGVtX0dyYXBoaWNzIFJlbmRlcmVyIj48cmVjdCBmaWxsPSIjRjFGMUYxIiBoZWlnaHQ9IjQ0Ljk4NDQiIHJ4PSIyLjUiIHJ5PSIyLjUiIHN0eWxlPSJzdHJva2U6IzE4MTgxODtzdHJva2Utd2lkdGg6MC41OyIgd2lkdGg9IjE1OSIgeD0iMzE0LjUiIHk9Ijc0MCIvPjxyZWN0IGZpbGw9IiNGMUYxRjEiIGhlaWdodD0iMTAiIHN0eWxlPSJzdHJva2U6IzE4MTgxODtzdHJva2Utd2lkdGg6MC41OyIgd2lkdGg9IjE1IiB4PSI0NTMuNSIgeT0iNzQ1Ii8+PHJlY3QgZmlsbD0iI0YxRjFGMSIgaGVpZ2h0PSIyIiBzdHlsZT0ic3Ryb2tlOiMxODE4MTg7c3Ryb2tlLXdpZHRoOjAuNTsiIHdpZHRoPSI0IiB4PSI0NTEuNSIgeT0iNzQ3Ii8+PHJlY3QgZmlsbD0iI0YxRjFGMSIgaGVpZ2h0PSIyIiBzdHlsZT0ic3Ryb2tlOiMxODE4MTg7c3Ryb2tlLXdpZHRoOjAuNTsiIHdpZHRoPSI0IiB4PSI0NTEuNSIgeT0iNzUxIi8+PHRleHQgZmlsbD0iIzAwMDAwMCIgZm9udC1mYW1pbHk9InNhbnMtc2VyaWYiIGZvbnQtc2l6ZT0iMTQiIGxlbmd0aEFkanVzdD0ic3BhY2luZyIgdGV4dExlbmd0aD0iMTE5IiB4PSIzMjkuNSIgeT0iNzczLjIzNDQiPkdyYXBoaWNzIFJlbmRlcmVyPC90ZXh0PjwvZz48IS0tZW50aXR5IElucHV0IEhhbmRsaW5nLS0+PGcgaWQ9ImVsZW1fSW5wdXQgSGFuZGxpbmciPjxyZWN0IGZpbGw9IiNGMUYxRjEiIGhlaWdodD0iNDQuOTg0NCIgcng9IjIuNSIgcnk9IjIuNSIgc3R5bGU9InN0cm9rZTojMTgxODE4O3N0cm9rZS13aWR0aDowLjU7IiB3aWR0aD0iMTM4IiB4PSI1MDkiIHk9Ijc0MCIvPjxyZWN0IGZpbGw9IiNGMUYxRjEiIGhlaWdodD0iMTAiIHN0eWxlPSJzdHJva2U6IzE4MTgxODtzdHJva2Utd2lkdGg6MC41OyIgd2lkdGg9IjE1IiB4PSI2MjciIHk9Ijc0NSIvPjxyZWN0IGZpbGw9IiNGMUYxRjEiIGhlaWdodD0iMiIgc3R5bGU9InN0cm9rZTojMTgxODE4O3N0cm9rZS13aWR0aDowLjU7IiB3aWR0aD0iNCIgeD0iNjI1IiB5PSI3NDciLz48cmVjdCBmaWxsPSIjRjFGMUYxIiBoZWlnaHQ9IjIiIHN0eWxlPSJzdHJva2U6IzE4MTgxODtzdHJva2Utd2lkdGg6MC41OyIgd2lkdGg9IjQiIHg9IjYyNSIgeT0iNzUxIi8+PHRleHQgZmlsbD0iIzAwMDAwMCIgZm9udC1mYW1pbHk9InNhbnMtc2VyaWYiIGZvbnQtc2l6ZT0iMTQiIGxlbmd0aEFkanVzdD0ic3BhY2luZyIgdGV4dExlbmd0aD0iOTgiIHg9IjUyNCIgeT0iNzczLjIzNDQiPklucHV0IEhhbmRsaW5nPC90ZXh0PjwvZz48IS0tbGluayBOZXQgdG8gSFRNTCBQYXJzZXItLT48ZyBpZD0ibGlua19OZXRfSFRNTCBQYXJzZXIiPjxwYXRoIGQ9Ik0zNzMuMiw4NC4wNCBDMzQ4LjE4LDkyLjk5IDMxOS4wOSwxMDMuNjggMjkzLDExNCBDMjU4Ljc1LDEyNy41NCAyMjAuNzQsMTQzLjgzIDE5MC45NCwxNTYuOSAiIGZpbGw9Im5vbmUiIGlkPSJOZXQtdG8tSFRNTCBQYXJzZXIiIHN0eWxlPSJzdHJva2U6IzE4MTgxODtzdHJva2Utd2lkdGg6MS4wOyIvPjxwb2x5Z29uIGZpbGw9IiMxODE4MTgiIHBvaW50cz0iMTg2LjIyLDE1OC45NiwxOTYuMDY4OCwxNTkuMDAyOCwxOTAuNzk3OCwxNTYuOTQ5MiwxOTIuODUxNCwxNTEuNjc4MiwxODYuMjIsMTU4Ljk2IiBzdHlsZT0ic3Ryb2tlOiMxODE4MTg7c3Ryb2tlLXdpZHRoOjEuMDsiLz48dGV4dCBmaWxsPSIjMDAwMDAwIiBmb250LWZhbWlseT0ic2Fucy1zZXJpZiIgZm9udC1zaXplPSIxMyIgbGVuZ3RoQWRqdXN0PSJzcGFjaW5nIiB0ZXh0TGVuZ3RoPSI2OSIgeD0iMjk0IiB5PSIxMjcuMjg5MSI+c2VuZHMgSFRNTDwvdGV4dD48L2c+PCEtLWxpbmsgTmV0IHRvIENTUyBQYXJzZXItLT48ZyBpZD0ibGlua19OZXRfQ1NTIFBhcnNlciI+PHBhdGggZD0iTTQxNC40Niw4NC4xNCBDMzk1LjQzLDEwNC4xOSAzNjcuMTMsMTM0IDM0Ny4wNiwxNTUuMTUgIiBmaWxsPSJub25lIiBpZD0iTmV0LXRvLUNTUyBQYXJzZXIiIHN0eWxlPSJzdHJva2U6IzE4MTgxODtzdHJva2Utd2lkdGg6MS4wOyIvPjxwb2x5Z29uIGZpbGw9IiMxODE4MTgiIHBvaW50cz0iMzQzLjQxLDE1OC45OSwzNTIuNTEzOCwxNTUuMjMyMywzNDYuODU4NiwxNTUuMzY5NywzNDYuNzIxMywxNDkuNzE0NSwzNDMuNDEsMTU4Ljk5IiBzdHlsZT0ic3Ryb2tlOiMxODE4MTg7c3Ryb2tlLXdpZHRoOjEuMDsiLz48dGV4dCBmaWxsPSIjMDAwMDAwIiBmb250LWZhbWlseT0ic2Fucy1zZXJpZiIgZm9udC1zaXplPSIxMyIgbGVuZ3RoQWRqdXN0PSJzcGFjaW5nIiB0ZXh0TGVuZ3RoPSI2MyIgeD0iMzg2IiB5PSIxMjcuMjg5MSI+c2VuZHMgQ1NTPC90ZXh0PjwvZz48IS0tbGluayBOZXQgdG8gSlMtLT48ZyBpZD0ibGlua19OZXRfSlMiPjxwYXRoIGQ9Ik00NDUuMjQsODQuMDkgQzQ0OS40Miw5My4yMyA0NTQuMTYsMTA0LjA0IDQ1OCwxMTQgQzQ3OS42MSwxNzAuMDUgNTAwLjM5LDIzNy4zNiA1MTEuMjMsMjczLjg0ICIgZmlsbD0ibm9uZSIgaWQ9Ik5ldC10by1KUyIgc3R5bGU9InN0cm9rZTojMTgxODE4O3N0cm9rZS13aWR0aDoxLjA7Ii8+PHBvbHlnb24gZmlsbD0iIzE4MTgxOCIgcG9pbnRzPSI1MTIuNzYsMjc4Ljk5LDUxNC4wNTMyLDI2OS4yMjY0LDUxMS4zNDY5LDI3NC4xOTM5LDUwNi4zNzk0LDI3MS40ODc1LDUxMi43NiwyNzguOTkiIHN0eWxlPSJzdHJva2U6IzE4MTgxODtzdHJva2Utd2lkdGg6MS4wOyIvPjx0ZXh0IGZpbGw9IiMwMDAwMDAiIGZvbnQtZmFtaWx5PSJzYW5zLXNlcmlmIiBmb250LXNpemU9IjEzIiBsZW5ndGhBZGp1c3Q9InNwYWNpbmciIHRleHRMZW5ndGg9IjU2IiB4PSI0ODkiIHk9IjE4Ny4yODkxIj5zZW5kcyBKUzwvdGV4dD48L2c+PCEtLWxpbmsgSFRNTCBQYXJzZXIgdG8gRE9NIEdlbmVyYXRvci0tPjxnIGlkPSJsaW5rX0hUTUwgUGFyc2VyX0RPTSBHZW5lcmF0b3IiPjxwYXRoIGQ9Ik0xMjguODMsMjA0LjE0IEMxMjAuNDQsMjIzLjk0IDEwOC4wMiwyNTMuMjYgOTkuMDgsMjc0LjM2ICIgZmlsbD0ibm9uZSIgaWQ9IkhUTUwgUGFyc2VyLXRvLURPTSBHZW5lcmF0b3IiIHN0eWxlPSJzdHJva2U6IzE4MTgxODtzdHJva2Utd2lkdGg6MS4wOyIvPjxwb2x5Z29uIGZpbGw9IiMxODE4MTgiIHBvaW50cz0iOTcuMTEsMjc4Ljk5LDEwNC4yOTY1LDI3Mi4yNTU1LDk5LjA1NTQsMjc0LjM4NCw5Ni45MjY5LDI2OS4xNDI4LDk3LjExLDI3OC45OSIgc3R5bGU9InN0cm9rZTojMTgxODE4O3N0cm9rZS13aWR0aDoxLjA7Ii8+PHRleHQgZmlsbD0iIzAwMDAwMCIgZm9udC1mYW1pbHk9InNhbnMtc2VyaWYiIGZvbnQtc2l6ZT0iMTMiIGxlbmd0aEFkanVzdD0ic3BhY2luZyIgdGV4dExlbmd0aD0iOTciIHg9IjExNyIgeT0iMjQ3LjI4OTEiPnNlbmRzIERPTSBUcmVlPC90ZXh0PjwvZz48IS0tbGluayBDU1MgUGFyc2VyIHRvIFN0eWxlc2hlZXQgR2VuZXJhdG9yLS0+PGcgaWQ9ImxpbmtfQ1NTIFBhcnNlcl9TdHlsZXNoZWV0IEdlbmVyYXRvciI+PHBhdGggZD0iTTMxNC45MywyMDQuMTQgQzMwNy41OCwyMjMuODUgMjk2LjcxLDI1My4wMSAyODguODUsMjc0LjA5ICIgZmlsbD0ibm9uZSIgaWQ9IkNTUyBQYXJzZXItdG8tU3R5bGVzaGVldCBHZW5lcmF0b3IiIHN0eWxlPSJzdHJva2U6IzE4MTgxODtzdHJva2Utd2lkdGg6MS4wOyIvPjxwb2x5Z29uIGZpbGw9IiMxODE4MTgiIHBvaW50cz0iMjg3LjAyLDI3OC45OSwyOTMuOTA2NiwyNzEuOTQ5MSwyODguNzYzMSwyNzQuMzAzNywyODYuNDA4NSwyNjkuMTYwMSwyODcuMDIsMjc4Ljk5IiBzdHlsZT0ic3Ryb2tlOiMxODE4MTg7c3Ryb2tlLXdpZHRoOjEuMDsiLz48dGV4dCBmaWxsPSIjMDAwMDAwIiBmb250LWZhbWlseT0ic2Fucy1zZXJpZiIgZm9udC1zaXplPSIxMyIgbGVuZ3RoQWRqdXN0PSJzcGFjaW5nIiB0ZXh0TGVuZ3RoPSIxMTYiIHg9IjMwNCIgeT0iMjQ3LjI4OTEiPnNlbmRzIFN0eWxlIFJ1bGVzPC90ZXh0PjwvZz48IS0tbGluayBKUyB0byBET00gTW9kaWZpZXItLT48ZyBpZD0ibGlua19KU19ET00gTW9kaWZpZXIiPjxwYXRoIGQ9Ik00NzcuMzksMzI0LjA3IEM0NTkuOTIsMzMzLjIgNDM5LjQyLDM0NC4wMiA0MjEsMzU0IEMzOTUuNDUsMzY3Ljg1IDM2Ny4wMiwzODMuNzIgMzQ0LjM3LDM5Ni40OCAiIGZpbGw9Im5vbmUiIGlkPSJKUy10by1ET00gTW9kaWZpZXIiIHN0eWxlPSJzdHJva2U6IzE4MTgxODtzdHJva2Utd2lkdGg6MS4wOyIvPjxwb2x5Z29uIGZpbGw9IiMxODE4MTgiIHBvaW50cz0iMzM5LjkxLDM5OC45OSwzNDkuNzE0MiwzOTguMDUzMywzNDQuMjY1MiwzOTYuNTMzOSwzNDUuNzg0NSwzOTEuMDg0OSwzMzkuOTEsMzk4Ljk5IiBzdHlsZT0ic3Ryb2tlOiMxODE4MTg7c3Ryb2tlLXdpZHRoOjEuMDsiLz48dGV4dCBmaWxsPSIjMDAwMDAwIiBmb250LWZhbWlseT0ic2Fucy1zZXJpZiIgZm9udC1zaXplPSIxMyIgbGVuZ3RoQWRqdXN0PSJzcGFjaW5nIiB0ZXh0TGVuZ3RoPSI4MCIgeD0iNDIyIiB5PSIzNjcuMjg5MSI+bW9kaWZpZXMgRE9NPC90ZXh0PjwvZz48IS0tbGluayBET00gR2VuZXJhdG9yIHRvIERPTSBNb2RpZmllci0tPjxnIGlkPSJsaW5rX0RPTSBHZW5lcmF0b3JfRE9NIE1vZGlmaWVyIj48cGF0aCBkPSJNMTI3LjI1LDMyNC4xNCBDMTY0LjM2LDM0NC42IDIxOS45MiwzNzUuMjQgMjU4LjM5LDM5Ni40NiAiIGZpbGw9Im5vbmUiIGlkPSJET00gR2VuZXJhdG9yLXRvLURPTSBNb2RpZmllciIgc3R5bGU9InN0cm9rZTojMTgxODE4O3N0cm9rZS13aWR0aDoxLjA7Ii8+PHBvbHlnb24gZmlsbD0iIzE4MTgxOCIgcG9pbnRzPSIyNjMsMzk4Ljk5LDI1Ny4wNTU1LDM5MS4xMzc0LDI1OC42MjMyLDM5Ni41NzI3LDI1My4xODc5LDM5OC4xNDA0LDI2MywzOTguOTkiIHN0eWxlPSJzdHJva2U6IzE4MTgxODtzdHJva2Utd2lkdGg6MS4wOyIvPjwvZz48IS0tbGluayBTdHlsZXNoZWV0IEdlbmVyYXRvciB0byBET00gTW9kaWZpZXItLT48ZyBpZD0ibGlua19TdHlsZXNoZWV0IEdlbmVyYXRvcl9ET00gTW9kaWZpZXIiPjxwYXRoIGQ9Ik0yODMuMjIsMzI0LjE0IEMyODcuMDQsMzQzLjc3IDI5Mi43LDM3Mi43NyAyOTYuOCwzOTMuODIgIiBmaWxsPSJub25lIiBpZD0iU3R5bGVzaGVldCBHZW5lcmF0b3ItdG8tRE9NIE1vZGlmaWVyIiBzdHlsZT0ic3Ryb2tlOiMxODE4MTg7c3Ryb2tlLXdpZHRoOjEuMDsiLz48cG9seWdvbiBmaWxsPSIjMTgxODE4IiBwb2ludHM9IjI5Ny44MSwzOTguOTksMzAwLjAxNTYsMzg5LjM5MTMsMjk2Ljg1NDEsMzk0LjA4MjIsMjkyLjE2MzIsMzkwLjkyMDcsMjk3LjgxLDM5OC45OSIgc3R5bGU9InN0cm9rZTojMTgxODE4O3N0cm9rZS13aWR0aDoxLjA7Ii8+PC9nPjwhLS1saW5rIERPTSBNb2RpZmllciB0byBSZW5kZXJpbmcgRW5naW5lLS0+PGcgaWQ9ImxpbmtfRE9NIE1vZGlmaWVyX1JlbmRlcmluZyBFbmdpbmUiPjxwYXRoIGQ9Ik0zMDkuMTUsNDQ0LjE0IEMzMTUuNjcsNDYzLjg1IDMyNS4zMSw0OTMuMDEgMzMyLjI3LDUxNC4wOSAiIGZpbGw9Im5vbmUiIGlkPSJET00gTW9kaWZpZXItdG8tUmVuZGVyaW5nIEVuZ2luZSIgc3R5bGU9InN0cm9rZTojMTgxODE4O3N0cm9rZS13aWR0aDoxLjA7Ii8+PHBvbHlnb24gZmlsbD0iIzE4MTgxOCIgcG9pbnRzPSIzMzMuODksNTE4Ljk5LDMzNC44NTY0LDUwOS4xODg3LDMzMi4zMTc0LDUxNC4yNDM3LDMyNy4yNjI0LDUxMS43MDQ4LDMzMy44OSw1MTguOTkiIHN0eWxlPSJzdHJva2U6IzE4MTgxODtzdHJva2Utd2lkdGg6MS4wOyIvPjx0ZXh0IGZpbGw9IiMwMDAwMDAiIGZvbnQtZmFtaWx5PSJzYW5zLXNlcmlmIiBmb250LXNpemU9IjEzIiBsZW5ndGhBZGp1c3Q9InNwYWNpbmciIHRleHRMZW5ndGg9IjEzOCIgeD0iMzI0IiB5PSI0ODcuMjg5MSI+cHJvdmlkZXMgUmVuZGVyIFRyZWU8L3RleHQ+PC9nPjwhLS1saW5rIEpTIHRvIE1lZGlhIFBsYXliYWNrLS0+PGcgaWQ9ImxpbmtfSlNfTWVkaWEgUGxheWJhY2siPjxwYXRoIGQ9Ik01MTYuNDMsMzI0LjE0IEM1MTQuMSwzNDMuNzcgNTEwLjY2LDM3Mi43NyA1MDguMTcsMzkzLjgyICIgZmlsbD0ibm9uZSIgaWQ9IkpTLXRvLU1lZGlhIFBsYXliYWNrIiBzdHlsZT0ic3Ryb2tlOiMxODE4MTg7c3Ryb2tlLXdpZHRoOjEuMDsiLz48cG9seWdvbiBmaWxsPSIjMTgxODE4IiBwb2ludHM9IjUwNy41NSwzOTguOTksNTEyLjU5OTYsMzkwLjUzNDEsNTA4LjE0OTEsMzk0LjAyNiw1MDQuNjU3MiwzODkuNTc1Niw1MDcuNTUsMzk4Ljk5IiBzdHlsZT0ic3Ryb2tlOiMxODE4MTg7c3Ryb2tlLXdpZHRoOjEuMDsiLz48dGV4dCBmaWxsPSIjMDAwMDAwIiBmb250LWZhbWlseT0ic2Fucy1zZXJpZiIgZm9udC1zaXplPSIxMyIgbGVuZ3RoQWRqdXN0PSJzcGFjaW5nIiB0ZXh0TGVuZ3RoPSIxMTYiIHg9IjUxMyIgeT0iMzY3LjI4OTEiPmNvbnRyb2xzIHBsYXliYWNrPC90ZXh0PjwvZz48IS0tbGluayBOZXQgdG8gUGxhdGZvcm0gQWJzdHJhY3Rpb24tLT48ZyBpZD0ibGlua19OZXRfUGxhdGZvcm0gQWJzdHJhY3Rpb24iPjxwYXRoIGQ9Ik01MTEuNjIsNjkuMzcgQzU4MC4yLDgwLjI0IDY3MCwxMDguMjUgNjcwLDE4MC41IEM2NzAsMTgwLjUgNjcwLDE4MC41IDY3MCw1NDIuNSBDNjcwLDU3OS40MiA1NzUuNjcsNjA4LjExIDUwMS45OCw2MjQuODggIiBmaWxsPSJub25lIiBpZD0iTmV0LXRvLVBsYXRmb3JtIEFic3RyYWN0aW9uIiBzdHlsZT0ic3Ryb2tlOiMxODE4MTg7c3Ryb2tlLXdpZHRoOjEuMDsiLz48cG9seWdvbiBmaWxsPSIjMTgxODE4IiBwb2ludHM9IjQ5Ni43Miw2MjYuMDcsNTA2LjM3ODgsNjI3Ljk5NTUsNTAxLjU5NzksNjI0Ljk3MTgsNTA0LjYyMTYsNjIwLjE5MDksNDk2LjcyLDYyNi4wNyIgc3R5bGU9InN0cm9rZTojMTgxODE4O3N0cm9rZS13aWR0aDoxLjA7Ii8+PC9nPjwhLS1saW5rIFJlbmRlcmluZyBFbmdpbmUgdG8gUGxhdGZvcm0gQWJzdHJhY3Rpb24tLT48ZyBpZD0ibGlua19SZW5kZXJpbmcgRW5naW5lX1BsYXRmb3JtIEFic3RyYWN0aW9uIj48cGF0aCBkPSJNMzU3LjY0LDU2NC40NyBDMzcwLjM4LDU4MS4yOCAzODcuODEsNjA0LjI5IDQwMC4zLDYyMC43NyAiIGZpbGw9Im5vbmUiIGlkPSJSZW5kZXJpbmcgRW5naW5lLXRvLVBsYXRmb3JtIEFic3RyYWN0aW9uIiBzdHlsZT0ic3Ryb2tlOiMxODE4MTg7c3Ryb2tlLXdpZHRoOjEuMDsiLz48cG9seWdvbiBmaWxsPSIjMTgxODE4IiBwb2ludHM9IjQwMy4zNiw2MjQuODIsNDAxLjEyMTYsNjE1LjIyODksNDAwLjM0NCw2MjAuODMyLDM5NC43NDA5LDYyMC4wNTQ1LDQwMy4zNiw2MjQuODIiIHN0eWxlPSJzdHJva2U6IzE4MTgxODtzdHJva2Utd2lkdGg6MS4wOyIvPjwvZz48IS0tbGluayBNZWRpYSBQbGF5YmFjayB0byBQbGF0Zm9ybSBBYnN0cmFjdGlvbi0tPjxnIGlkPSJsaW5rX01lZGlhIFBsYXliYWNrX1BsYXRmb3JtIEFic3RyYWN0aW9uIj48cGF0aCBkPSJNNDk2LjE0LDQ0NC4zIEM0NzkuMDcsNDg2LjMgNDQxLjgxLDU3Ny45OCA0MjQuNzksNjE5Ljg2ICIgZmlsbD0ibm9uZSIgaWQ9Ik1lZGlhIFBsYXliYWNrLXRvLVBsYXRmb3JtIEFic3RyYWN0aW9uIiBzdHlsZT0ic3Ryb2tlOiMxODE4MTg7c3Ryb2tlLXdpZHRoOjEuMDsiLz48cG9seWdvbiBmaWxsPSIjMTgxODE4IiBwb2ludHM9IjQyMi44Miw2MjQuNzEsNDI5LjkxMjcsNjE3Ljg3NjcsNDI0LjcwMTUsNjIwLjA3NzUsNDIyLjUwMDcsNjE0Ljg2NjMsNDIyLjgyLDYyNC43MSIgc3R5bGU9InN0cm9rZTojMTgxODE4O3N0cm9rZS13aWR0aDoxLjA7Ii8+PC9nPjwhLS1saW5rIFBsYXRmb3JtIEFic3RyYWN0aW9uIHRvIE1lZGlhIERlY29kZXItLT48ZyBpZD0ibGlua19QbGF0Zm9ybSBBYnN0cmFjdGlvbl9NZWRpYSBEZWNvZGVyIj48cGF0aCBkPSJNMzc0Ljk4LDY2MC4xIEMzNTEuNTMsNjcwLjIxIDMyMS45Miw2ODQuMDMgMjk3LDY5OSBDMjc4LjYzLDcxMC4wNCAyNTkuNDMsNzI0LjI5IDI0NC4xMyw3MzYuNCAiIGZpbGw9Im5vbmUiIGlkPSJQbGF0Zm9ybSBBYnN0cmFjdGlvbi10by1NZWRpYSBEZWNvZGVyIiBzdHlsZT0ic3Ryb2tlOiMxODE4MTg7c3Ryb2tlLXdpZHRoOjEuMDsiLz48cG9seWdvbiBmaWxsPSIjMTgxODE4IiBwb2ludHM9IjIzOS45Miw3MzkuNzYsMjQ5LjQ1MzMsNzM3LjI4NjcsMjQzLjgzMjcsNzM2LjY0NywyNDQuNDcyNCw3MzEuMDI2NCwyMzkuOTIsNzM5Ljc2IiBzdHlsZT0ic3Ryb2tlOiMxODE4MTg7c3Ryb2tlLXdpZHRoOjEuMDsiLz48L2c+PCEtLWxpbmsgUGxhdGZvcm0gQWJzdHJhY3Rpb24gdG8gR3JhcGhpY3MgUmVuZGVyZXItLT48ZyBpZD0ibGlua19QbGF0Zm9ybSBBYnN0cmFjdGlvbl9HcmFwaGljcyBSZW5kZXJlciI+PHBhdGggZD0iTTQxMi44OSw2NjAuMTYgQzQwOS4yOCw2NzkuNTMgNDAzLjI3LDcxMS43NyAzOTksNzM0LjY5ICIgZmlsbD0ibm9uZSIgaWQ9IlBsYXRmb3JtIEFic3RyYWN0aW9uLXRvLUdyYXBoaWNzIFJlbmRlcmVyIiBzdHlsZT0ic3Ryb2tlOiMxODE4MTg7c3Ryb2tlLXdpZHRoOjEuMDsiLz48cG9seWdvbiBmaWxsPSIjMTgxODE4IiBwb2ludHM9IjM5OC4wNiw3MzkuNzIsNDAzLjYzODcsNzMxLjYwMzUsMzk4Ljk3NDUsNzM0LjgwNDMsMzk1Ljc3MzcsNzMwLjE0MDIsMzk4LjA2LDczOS43MiIgc3R5bGU9InN0cm9rZTojMTgxODE4O3N0cm9rZS13aWR0aDoxLjA7Ii8+PC9nPjwhLS1saW5rIFBsYXRmb3JtIEFic3RyYWN0aW9uIHRvIElucHV0IEhhbmRsaW5nLS0+PGcgaWQ9ImxpbmtfUGxhdGZvcm0gQWJzdHJhY3Rpb25fSW5wdXQgSGFuZGxpbmciPjxwYXRoIGQ9Ik00MzguODcsNjYwLjE2IEM0NjYuMzMsNjgwLjE2IDUxMi42Myw3MTMuODkgNTQ0LjIyLDczNi44OSAiIGZpbGw9Im5vbmUiIGlkPSJQbGF0Zm9ybSBBYnN0cmFjdGlvbi10by1JbnB1dCBIYW5kbGluZyIgc3R5bGU9InN0cm9rZTojMTgxODE4O3N0cm9rZS13aWR0aDoxLjA7Ii8+PHBvbHlnb24gZmlsbD0iIzE4MTgxOCIgcG9pbnRzPSI1NDguMzgsNzM5LjkzLDU0My40NTc2LDczMS4zOTk0LDU0NC4zMzc2LDczNi45ODc0LDUzOC43NDk2LDczNy44Njc0LDU0OC4zOCw3MzkuOTMiIHN0eWxlPSJzdHJva2U6IzE4MTgxODtzdHJva2Utd2lkdGg6MS4wOyIvPjwvZz48IS0tU1JDPVtYUEREUmk4bTQ4TnRFU0tlVW93R0hRS0E0M3pnTWFJdVc3NjZPOTdPYmNEZUtTTlRFdDRtdkJWaThpX3RQZnhWRTlobjR5aUdtZ2RRaXpvNnkxaTQwNW1MTWFjSzVpOUZqRF9BZDhKQzhCNDRYeTFBZTRFWXNrMW81dF8wWGZhSUpUV2ZwUnZZTUExNG13cGc1UVQ5Q1k5QngzTjd5ZVhlbnpMaFRjNDlEcTlSY0Z5V0Zya1g5Q25iOVlHd2Yta2FSb0xNZ0pXOER3elR0QTlDcUxITnpIcXdHOG9mT0IzOXNOTmxlZ1gzQ0NXamFyYkVBTnc4MF84aGZ5LU9JU2dyODVkVGZHNkh0WHdLQVUxek5yaDNVRU5Qenc5YU9KOXZ3eUdQR0tkTUlnV0VjcjBwRXlfR01HRFA5dXkySEs2NVRjRk5mUkNVcHJWN0V1RE9ZUGczZDZQdURyeGdnaDB6NHE5Z3lsMk95eW0tV2dCLVRmRVNqT3dIbGdZMlhZU0ZpQnhaU3dJMy1ha0VHMWpyNElhdmdPbHJqSGxFa3RrRnc1NThRckhVV2h1VjFpc3paNnd1Rl9xNXR2dHk3enYtUEpFeTI4d0dRRUhxVkd3aEdrVmtGUjhBQndpXzdNM1dUUy1HZ19KLUN4UkEyeUZxS04wVnFYMm9hbGZpT1NiYWNqQ0xRcWltdmhVSGg5X3Y0a3p4VTJkZlUyQi01anAtMDAwMF0tLT48L2c+PC9zdmc+;" vertex="1" parent="1">
            <mxGeometry x="-500" y="1190" width="694" height="832" as="geometry" />
          </mxCell>
        </UserObject>
        <UserObject label="" plantUmlData="{&#xa;  &quot;data&quot;: &quot;@startuml\npackage \&quot;Cobalt\&quot; {\n\n  package \&quot;Networking\&quot; {\n    component \&quot;Networking Stack\&quot; as Net\n  }\n\n  package \&quot;Rendering\&quot; {\n    component \&quot;DOM Modifier\&quot;\n    component \&quot;Rendering Engine\&quot;\n  }\n\n  package \&quot;Web Content Processing\&quot; {\n    component \&quot;HTML Parser\&quot; \n    component \&quot;DOM Generator\&quot; \n    component \&quot;CSS Parser\&quot; \n    component \&quot;Stylesheet Generator\&quot; \n    component \&quot;JavaScript Execution Engine\&quot; as JS\n  }\n\n  package \&quot;Media\&quot; {\n    component \&quot;Media Playback\&quot;\n  }\n  \n  rectangle \&quot;Lifecycle Management\&quot;\n  rectangle \&quot;Platform Abstraction\&quot; \n\n  \n  Net --&gt; \&quot;HTML Parser\&quot; : Sends HTML\n  Net --&gt; \&quot;CSS Parser\&quot; : Sends CSS\n  Net --&gt; JS : Sends JS\n\n  \&quot;HTML Parser\&quot; --&gt; \&quot;DOM Generator\&quot; : Sends DOM Tree\n  \&quot;CSS Parser\&quot; --&gt; \&quot;Stylesheet Generator\&quot; : Sends Style Rules\n  JS --&gt; \&quot;DOM Modifier\&quot; : Modifies DOM\n\n  \&quot;DOM Generator\&quot; --&gt; \&quot;DOM Modifier\&quot;\n  \&quot;Stylesheet Generator\&quot; --&gt; \&quot;DOM Modifier\&quot;\n\n  \&quot;DOM Modifier\&quot; --&gt; \&quot;Rendering Engine\&quot; : Provides Render Tree\n\n  JS --&gt; \&quot;Media Playback\&quot; : Controls playback\n\n  Net --&gt; \&quot;Platform Abstraction\&quot; \n  \&quot;Rendering Engine\&quot;--&gt; \&quot;Platform Abstraction\&quot; \n  \&quot;Media Playback\&quot; --&gt; \&quot;Platform Abstraction\&quot; \n\n  rectangle \&quot;Device Specific Implementations\&quot; {\n    component \&quot;Media Decoder\&quot; \n    component \&quot;Graphics Renderer\&quot; \n    component \&quot;Input Handling\&quot; \n\n    \&quot;Platform Abstraction\&quot; --&gt; \&quot;Media Decoder\&quot;\n    \&quot;Platform Abstraction\&quot; --&gt; \&quot;Graphics Renderer\&quot;\n    \&quot;Platform Abstraction\&quot; --&gt; \&quot;Input Handling\&quot;\n  }\n}\n\n@enduml&quot;,&#xa;  &quot;format&quot;: &quot;svg&quot;&#xa;}" id="J6V1U3YTcORKghmEE3JZ-11">
          <mxCell style="shape=image;noLabel=1;verticalAlign=top;aspect=fixed;imageAspect=0;image=data:image/svg+xml,PD94bWwgdmVyc2lvbj0iMS4wIiBlbmNvZGluZz0idXMtYXNjaWkiIHN0YW5kYWxvbmU9Im5vIj8+PHN2ZyB4bWxucz0iaHR0cDovL3d3dy53My5vcmcvMjAwMC9zdmciIHhtbG5zOnhsaW5rPSJodHRwOi8vd3d3LnczLm9yZy8xOTk5L3hsaW5rIiBjb250ZW50U3R5bGVUeXBlPSJ0ZXh0L2NzcyIgaGVpZ2h0PSI5MzZweCIgcHJlc2VydmVBc3BlY3RSYXRpbz0ibm9uZSIgc3R5bGU9IndpZHRoOjY1MHB4O2hlaWdodDo5MzZweDtiYWNrZ3JvdW5kOiNGRkZGRkY7IiB2ZXJzaW9uPSIxLjEiIHZpZXdCb3g9IjAgMCA2NTAgOTM2IiB3aWR0aD0iNjUwcHgiIHpvb21BbmRQYW49Im1hZ25pZnkiPjxkZWZzLz48Zz48IS0tY2x1c3RlciBDb2JhbHQtLT48ZyBpZD0iY2x1c3Rlcl9Db2JhbHQiPjxwYXRoIGQ9Ik04LjUsNiBMNTEuNSw2IEEzLjc1LDMuNzUgMCAwIDEgNTQsOC41IEw2MSwyNi45ODQ0IEw2MzMuNSwyNi45ODQ0IEEyLjUsMi41IDAgMCAxIDYzNiwyOS40ODQ0IEw2MzYsOTI2LjUgQTIuNSwyLjUgMCAwIDEgNjMzLjUsOTI5IEw4LjUsOTI5IEEyLjUsMi41IDAgMCAxIDYsOTI2LjUgTDYsOC41IEEyLjUsMi41IDAgMCAxIDguNSw2ICIgZmlsbD0ibm9uZSIgc3R5bGU9InN0cm9rZTojMDAwMDAwO3N0cm9rZS13aWR0aDoxLjU7Ii8+PGxpbmUgc3R5bGU9InN0cm9rZTojMDAwMDAwO3N0cm9rZS13aWR0aDoxLjU7IiB4MT0iNiIgeDI9IjYxIiB5MT0iMjYuOTg0NCIgeTI9IjI2Ljk4NDQiLz48dGV4dCBmaWxsPSIjMDAwMDAwIiBmb250LWZhbWlseT0ic2Fucy1zZXJpZiIgZm9udC1zaXplPSIxNCIgZm9udC13ZWlnaHQ9ImJvbGQiIGxlbmd0aEFkanVzdD0ic3BhY2luZyIgdGV4dExlbmd0aD0iNDIiIHg9IjEwIiB5PSIyMS4yMzQ0Ij5Db2JhbHQ8L3RleHQ+PC9nPjwhLS1jbHVzdGVyIE5ldHdvcmtpbmctLT48ZyBpZD0iY2x1c3Rlcl9OZXR3b3JraW5nIj48cGF0aCBkPSJNMjc2LjUsNDcgTDM0OC41LDQ3IEEzLjc1LDMuNzUgMCAwIDEgMzUxLDQ5LjUgTDM1OCw2Ny45ODQ0IEw0NTcuNSw2Ny45ODQ0IEEyLjUsMi41IDAgMCAxIDQ2MCw3MC40ODQ0IEw0NjAsMTM4LjUgQTIuNSwyLjUgMCAwIDEgNDU3LjUsMTQxIEwyNzYuNSwxNDEgQTIuNSwyLjUgMCAwIDEgMjc0LDEzOC41IEwyNzQsNDkuNSBBMi41LDIuNSAwIDAgMSAyNzYuNSw0NyAiIGZpbGw9Im5vbmUiIHN0eWxlPSJzdHJva2U6IzAwMDAwMDtzdHJva2Utd2lkdGg6MS41OyIvPjxsaW5lIHN0eWxlPSJzdHJva2U6IzAwMDAwMDtzdHJva2Utd2lkdGg6MS41OyIgeDE9IjI3NCIgeDI9IjM1OCIgeTE9IjY3Ljk4NDQiIHkyPSI2Ny45ODQ0Ii8+PHRleHQgZmlsbD0iIzAwMDAwMCIgZm9udC1mYW1pbHk9InNhbnMtc2VyaWYiIGZvbnQtc2l6ZT0iMTQiIGZvbnQtd2VpZ2h0PSJib2xkIiBsZW5ndGhBZGp1c3Q9InNwYWNpbmciIHRleHRMZW5ndGg9IjcxIiB4PSIyNzgiIHk9IjYyLjIzNDQiPk5ldHdvcmtpbmc8L3RleHQ+PC9nPjwhLS1jbHVzdGVyIFJlbmRlcmluZy0tPjxnIGlkPSJjbHVzdGVyX1JlbmRlcmluZyI+PHBhdGggZD0iTTIzOS41LDQ0OSBMMzAzLjUsNDQ5IEEzLjc1LDMuNzUgMCAwIDEgMzA2LDQ1MS41IEwzMTMsNDY5Ljk4NDQgTDQ0MS41LDQ2OS45ODQ0IEEyLjUsMi41IDAgMCAxIDQ0NCw0NzIuNDg0NCBMNDQ0LDY3OS41IEEyLjUsMi41IDAgMCAxIDQ0MS41LDY4MiBMMjM5LjUsNjgyIEEyLjUsMi41IDAgMCAxIDIzNyw2NzkuNSBMMjM3LDQ1MS41IEEyLjUsMi41IDAgMCAxIDIzOS41LDQ0OSAiIGZpbGw9Im5vbmUiIHN0eWxlPSJzdHJva2U6IzAwMDAwMDtzdHJva2Utd2lkdGg6MS41OyIvPjxsaW5lIHN0eWxlPSJzdHJva2U6IzAwMDAwMDtzdHJva2Utd2lkdGg6MS41OyIgeDE9IjIzNyIgeDI9IjMxMyIgeTE9IjQ2OS45ODQ0IiB5Mj0iNDY5Ljk4NDQiLz48dGV4dCBmaWxsPSIjMDAwMDAwIiBmb250LWZhbWlseT0ic2Fucy1zZXJpZiIgZm9udC1zaXplPSIxNCIgZm9udC13ZWlnaHQ9ImJvbGQiIGxlbmd0aEFkanVzdD0ic3BhY2luZyIgdGV4dExlbmd0aD0iNjMiIHg9IjI0MSIgeT0iNDY0LjIzNDQiPlJlbmRlcmluZzwvdGV4dD48L2c+PCEtLWNsdXN0ZXIgV2ViIENvbnRlbnQgUHJvY2Vzc2luZy0tPjxnIGlkPSJjbHVzdGVyX1dlYiBDb250ZW50IFByb2Nlc3NpbmciPjxwYXRoIGQ9Ik01NC41LDE4OCBMMjA5LjUsMTg4IEEzLjc1LDMuNzUgMCAwIDEgMjEyLDE5MC41IEwyMTksMjA4Ljk4NDQgTDYwOS41LDIwOC45ODQ0IEEyLjUsMi41IDAgMCAxIDYxMiwyMTEuNDg0NCBMNjEyLDM5OS41IEEyLjUsMi41IDAgMCAxIDYwOS41LDQwMiBMNTQuNSw0MDIgQTIuNSwyLjUgMCAwIDEgNTIsMzk5LjUgTDUyLDE5MC41IEEyLjUsMi41IDAgMCAxIDU0LjUsMTg4ICIgZmlsbD0ibm9uZSIgc3R5bGU9InN0cm9rZTojMDAwMDAwO3N0cm9rZS13aWR0aDoxLjU7Ii8+PGxpbmUgc3R5bGU9InN0cm9rZTojMDAwMDAwO3N0cm9rZS13aWR0aDoxLjU7IiB4MT0iNTIiIHgyPSIyMTkiIHkxPSIyMDguOTg0NCIgeTI9IjIwOC45ODQ0Ii8+PHRleHQgZmlsbD0iIzAwMDAwMCIgZm9udC1mYW1pbHk9InNhbnMtc2VyaWYiIGZvbnQtc2l6ZT0iMTQiIGZvbnQtd2VpZ2h0PSJib2xkIiBsZW5ndGhBZGp1c3Q9InNwYWNpbmciIHRleHRMZW5ndGg9IjE1NCIgeD0iNTYiIHk9IjIwMy4yMzQ0Ij5XZWIgQ29udGVudCBQcm9jZXNzaW5nPC90ZXh0PjwvZz48IS0tY2x1c3RlciBNZWRpYS0tPjxnIGlkPSJjbHVzdGVyX01lZGlhIj48cGF0aCBkPSJNNDUuNSw1ODggTDgxLjUsNTg4IEEzLjc1LDMuNzUgMCAwIDEgODQsNTkwLjUgTDkxLDYwOC45ODQ0IEwyMTAuNSw2MDguOTg0NCBBMi41LDIuNSAwIDAgMSAyMTMsNjExLjQ4NDQgTDIxMyw2NzkuNSBBMi41LDIuNSAwIDAgMSAyMTAuNSw2ODIgTDQ1LjUsNjgyIEEyLjUsMi41IDAgMCAxIDQzLDY3OS41IEw0Myw1OTAuNSBBMi41LDIuNSAwIDAgMSA0NS41LDU4OCAiIGZpbGw9Im5vbmUiIHN0eWxlPSJzdHJva2U6IzAwMDAwMDtzdHJva2Utd2lkdGg6MS41OyIvPjxsaW5lIHN0eWxlPSJzdHJva2U6IzAwMDAwMDtzdHJva2Utd2lkdGg6MS41OyIgeDE9IjQzIiB4Mj0iOTEiIHkxPSI2MDguOTg0NCIgeTI9IjYwOC45ODQ0Ii8+PHRleHQgZmlsbD0iIzAwMDAwMCIgZm9udC1mYW1pbHk9InNhbnMtc2VyaWYiIGZvbnQtc2l6ZT0iMTQiIGZvbnQtd2VpZ2h0PSJib2xkIiBsZW5ndGhBZGp1c3Q9InNwYWNpbmciIHRleHRMZW5ndGg9IjM1IiB4PSI0NyIgeT0iNjAzLjIzNDQiPk1lZGlhPC90ZXh0PjwvZz48IS0tY2x1c3RlciBEZXZpY2UgU3BlY2lmaWMgSW1wbGVtZW50YXRpb25zLS0+PGcgaWQ9ImNsdXN0ZXJfRGV2aWNlIFNwZWNpZmljIEltcGxlbWVudGF0aW9ucyI+PHJlY3QgZmlsbD0ibm9uZSIgaGVpZ2h0PSI5NCIgcng9IjIuNSIgcnk9IjIuNSIgc3R5bGU9InN0cm9rZTojMTgxODE4O3N0cm9rZS13aWR0aDoxLjA7IiB3aWR0aD0iNTMxIiB4PSIzMCIgeT0iODExIi8+PHRleHQgZmlsbD0iIzAwMDAwMCIgZm9udC1mYW1pbHk9InNhbnMtc2VyaWYiIGZvbnQtc2l6ZT0iMTQiIGZvbnQtd2VpZ2h0PSJib2xkIiBsZW5ndGhBZGp1c3Q9InNwYWNpbmciIHRleHRMZW5ndGg9IjIxOSIgeD0iMTg2IiB5PSI4MjYuMjM0NCI+RGV2aWNlIFNwZWNpZmljIEltcGxlbWVudGF0aW9uczwvdGV4dD48L2c+PCEtLWVudGl0eSBMaWZlY3ljbGUgTWFuYWdlbWVudC0tPjxnIGlkPSJlbGVtX0xpZmVjeWNsZSBNYW5hZ2VtZW50Ij48cmVjdCBmaWxsPSIjRjFGMUYxIiBoZWlnaHQ9IjM0Ljk4NDQiIHJ4PSIyLjUiIHJ5PSIyLjUiIHN0eWxlPSJzdHJva2U6IzE4MTgxODtzdHJva2Utd2lkdGg6MC41OyIgd2lkdGg9IjE2MSIgeD0iNzAuNSIgeT0iODUiLz48dGV4dCBmaWxsPSIjMDAwMDAwIiBmb250LWZhbWlseT0ic2Fucy1zZXJpZiIgZm9udC1zaXplPSIxNCIgbGVuZ3RoQWRqdXN0PSJzcGFjaW5nIiB0ZXh0TGVuZ3RoPSIxNDEiIHg9IjgwLjUiIHk9IjEwOC4yMzQ0Ij5MaWZlY3ljbGUgTWFuYWdlbWVudDwvdGV4dD48L2c+PCEtLWVudGl0eSBQbGF0Zm9ybSBBYnN0cmFjdGlvbi0tPjxnIGlkPSJlbGVtX1BsYXRmb3JtIEFic3RyYWN0aW9uIj48cmVjdCBmaWxsPSIjRjFGMUYxIiBoZWlnaHQ9IjM0Ljk4NDQiIHJ4PSIyLjUiIHJ5PSIyLjUiIHN0eWxlPSJzdHJva2U6IzE4MTgxODtzdHJva2Utd2lkdGg6MC41OyIgd2lkdGg9IjE2MSIgeD0iMTM0LjUiIHk9IjcyOSIvPjx0ZXh0IGZpbGw9IiMwMDAwMDAiIGZvbnQtZmFtaWx5PSJzYW5zLXNlcmlmIiBmb250LXNpemU9IjE0IiBsZW5ndGhBZGp1c3Q9InNwYWNpbmciIHRleHRMZW5ndGg9IjE0MSIgeD0iMTQ0LjUiIHk9Ijc1Mi4yMzQ0Ij5QbGF0Zm9ybSBBYnN0cmFjdGlvbjwvdGV4dD48L2c+PCEtLWVudGl0eSBOZXQtLT48ZyBpZD0iZWxlbV9OZXQiPjxyZWN0IGZpbGw9IiNGMUYxRjEiIGhlaWdodD0iNDQuOTg0NCIgcng9IjIuNSIgcnk9IjIuNSIgc3R5bGU9InN0cm9rZTojMTgxODE4O3N0cm9rZS13aWR0aDowLjU7IiB3aWR0aD0iMTUzIiB4PSIyOTAuNSIgeT0iODAiLz48cmVjdCBmaWxsPSIjRjFGMUYxIiBoZWlnaHQ9IjEwIiBzdHlsZT0ic3Ryb2tlOiMxODE4MTg7c3Ryb2tlLXdpZHRoOjAuNTsiIHdpZHRoPSIxNSIgeD0iNDIzLjUiIHk9Ijg1Ii8+PHJlY3QgZmlsbD0iI0YxRjFGMSIgaGVpZ2h0PSIyIiBzdHlsZT0ic3Ryb2tlOiMxODE4MTg7c3Ryb2tlLXdpZHRoOjAuNTsiIHdpZHRoPSI0IiB4PSI0MjEuNSIgeT0iODciLz48cmVjdCBmaWxsPSIjRjFGMUYxIiBoZWlnaHQ9IjIiIHN0eWxlPSJzdHJva2U6IzE4MTgxODtzdHJva2Utd2lkdGg6MC41OyIgd2lkdGg9IjQiIHg9IjQyMS41IiB5PSI5MSIvPjx0ZXh0IGZpbGw9IiMwMDAwMDAiIGZvbnQtZmFtaWx5PSJzYW5zLXNlcmlmIiBmb250LXNpemU9IjE0IiBsZW5ndGhBZGp1c3Q9InNwYWNpbmciIHRleHRMZW5ndGg9IjExMyIgeD0iMzA1LjUiIHk9IjExMy4yMzQ0Ij5OZXR3b3JraW5nIFN0YWNrPC90ZXh0PjwvZz48IS0tZW50aXR5IERPTSBNb2RpZmllci0tPjxnIGlkPSJlbGVtX0RPTSBNb2RpZmllciI+PHJlY3QgZmlsbD0iI0YxRjFGMSIgaGVpZ2h0PSI0NC45ODQ0IiByeD0iMi41IiByeT0iMi41IiBzdHlsZT0ic3Ryb2tlOiMxODE4MTg7c3Ryb2tlLXdpZHRoOjAuNTsiIHdpZHRoPSIxMjQiIHg9IjI1MyIgeT0iNDgyIi8+PHJlY3QgZmlsbD0iI0YxRjFGMSIgaGVpZ2h0PSIxMCIgc3R5bGU9InN0cm9rZTojMTgxODE4O3N0cm9rZS13aWR0aDowLjU7IiB3aWR0aD0iMTUiIHg9IjM1NyIgeT0iNDg3Ii8+PHJlY3QgZmlsbD0iI0YxRjFGMSIgaGVpZ2h0PSIyIiBzdHlsZT0ic3Ryb2tlOiMxODE4MTg7c3Ryb2tlLXdpZHRoOjAuNTsiIHdpZHRoPSI0IiB4PSIzNTUiIHk9IjQ4OSIvPjxyZWN0IGZpbGw9IiNGMUYxRjEiIGhlaWdodD0iMiIgc3R5bGU9InN0cm9rZTojMTgxODE4O3N0cm9rZS13aWR0aDowLjU7IiB3aWR0aD0iNCIgeD0iMzU1IiB5PSI0OTMiLz48dGV4dCBmaWxsPSIjMDAwMDAwIiBmb250LWZhbWlseT0ic2Fucy1zZXJpZiIgZm9udC1zaXplPSIxNCIgbGVuZ3RoQWRqdXN0PSJzcGFjaW5nIiB0ZXh0TGVuZ3RoPSI4NCIgeD0iMjY4IiB5PSI1MTUuMjM0NCI+RE9NIE1vZGlmaWVyPC90ZXh0PjwvZz48IS0tZW50aXR5IFJlbmRlcmluZyBFbmdpbmUtLT48ZyBpZD0iZWxlbV9SZW5kZXJpbmcgRW5naW5lIj48cmVjdCBmaWxsPSIjRjFGMUYxIiBoZWlnaHQ9IjQ0Ljk4NDQiIHJ4PSIyLjUiIHJ5PSIyLjUiIHN0eWxlPSJzdHJva2U6IzE4MTgxODtzdHJva2Utd2lkdGg6MC41OyIgd2lkdGg9IjE1MiIgeD0iMjUzIiB5PSI2MjEiLz48cmVjdCBmaWxsPSIjRjFGMUYxIiBoZWlnaHQ9IjEwIiBzdHlsZT0ic3Ryb2tlOiMxODE4MTg7c3Ryb2tlLXdpZHRoOjAuNTsiIHdpZHRoPSIxNSIgeD0iMzg1IiB5PSI2MjYiLz48cmVjdCBmaWxsPSIjRjFGMUYxIiBoZWlnaHQ9IjIiIHN0eWxlPSJzdHJva2U6IzE4MTgxODtzdHJva2Utd2lkdGg6MC41OyIgd2lkdGg9IjQiIHg9IjM4MyIgeT0iNjI4Ii8+PHJlY3QgZmlsbD0iI0YxRjFGMSIgaGVpZ2h0PSIyIiBzdHlsZT0ic3Ryb2tlOiMxODE4MTg7c3Ryb2tlLXdpZHRoOjAuNTsiIHdpZHRoPSI0IiB4PSIzODMiIHk9IjYzMiIvPjx0ZXh0IGZpbGw9IiMwMDAwMDAiIGZvbnQtZmFtaWx5PSJzYW5zLXNlcmlmIiBmb250LXNpemU9IjE0IiBsZW5ndGhBZGp1c3Q9InNwYWNpbmciIHRleHRMZW5ndGg9IjExMiIgeD0iMjY4IiB5PSI2NTQuMjM0NCI+UmVuZGVyaW5nIEVuZ2luZTwvdGV4dD48L2c+PCEtLWVudGl0eSBIVE1MIFBhcnNlci0tPjxnIGlkPSJlbGVtX0hUTUwgUGFyc2VyIj48cmVjdCBmaWxsPSIjRjFGMUYxIiBoZWlnaHQ9IjQ0Ljk4NDQiIHJ4PSIyLjUiIHJ5PSIyLjUiIHN0eWxlPSJzdHJva2U6IzE4MTgxODtzdHJva2Utd2lkdGg6MC41OyIgd2lkdGg9IjExNyIgeD0iMzMzLjUiIHk9IjIyMSIvPjxyZWN0IGZpbGw9IiNGMUYxRjEiIGhlaWdodD0iMTAiIHN0eWxlPSJzdHJva2U6IzE4MTgxODtzdHJva2Utd2lkdGg6MC41OyIgd2lkdGg9IjE1IiB4PSI0MzAuNSIgeT0iMjI2Ii8+PHJlY3QgZmlsbD0iI0YxRjFGMSIgaGVpZ2h0PSIyIiBzdHlsZT0ic3Ryb2tlOiMxODE4MTg7c3Ryb2tlLXdpZHRoOjAuNTsiIHdpZHRoPSI0IiB4PSI0MjguNSIgeT0iMjI4Ii8+PHJlY3QgZmlsbD0iI0YxRjFGMSIgaGVpZ2h0PSIyIiBzdHlsZT0ic3Ryb2tlOiMxODE4MTg7c3Ryb2tlLXdpZHRoOjAuNTsiIHdpZHRoPSI0IiB4PSI0MjguNSIgeT0iMjMyIi8+PHRleHQgZmlsbD0iIzAwMDAwMCIgZm9udC1mYW1pbHk9InNhbnMtc2VyaWYiIGZvbnQtc2l6ZT0iMTQiIGxlbmd0aEFkanVzdD0ic3BhY2luZyIgdGV4dExlbmd0aD0iNzciIHg9IjM0OC41IiB5PSIyNTQuMjM0NCI+SFRNTCBQYXJzZXI8L3RleHQ+PC9nPjwhLS1lbnRpdHkgRE9NIEdlbmVyYXRvci0tPjxnIGlkPSJlbGVtX0RPTSBHZW5lcmF0b3IiPjxyZWN0IGZpbGw9IiNGMUYxRjEiIGhlaWdodD0iNDQuOTg0NCIgcng9IjIuNSIgcnk9IjIuNSIgc3R5bGU9InN0cm9rZTojMTgxODE4O3N0cm9rZS13aWR0aDowLjU7IiB3aWR0aD0iMTMxIiB4PSIyNDkuNSIgeT0iMzQxIi8+PHJlY3QgZmlsbD0iI0YxRjFGMSIgaGVpZ2h0PSIxMCIgc3R5bGU9InN0cm9rZTojMTgxODE4O3N0cm9rZS13aWR0aDowLjU7IiB3aWR0aD0iMTUiIHg9IjM2MC41IiB5PSIzNDYiLz48cmVjdCBmaWxsPSIjRjFGMUYxIiBoZWlnaHQ9IjIiIHN0eWxlPSJzdHJva2U6IzE4MTgxODtzdHJva2Utd2lkdGg6MC41OyIgd2lkdGg9IjQiIHg9IjM1OC41IiB5PSIzNDgiLz48cmVjdCBmaWxsPSIjRjFGMUYxIiBoZWlnaHQ9IjIiIHN0eWxlPSJzdHJva2U6IzE4MTgxODtzdHJva2Utd2lkdGg6MC41OyIgd2lkdGg9IjQiIHg9IjM1OC41IiB5PSIzNTIiLz48dGV4dCBmaWxsPSIjMDAwMDAwIiBmb250LWZhbWlseT0ic2Fucy1zZXJpZiIgZm9udC1zaXplPSIxNCIgbGVuZ3RoQWRqdXN0PSJzcGFjaW5nIiB0ZXh0TGVuZ3RoPSI5MSIgeD0iMjY0LjUiIHk9IjM3NC4yMzQ0Ij5ET00gR2VuZXJhdG9yPC90ZXh0PjwvZz48IS0tZW50aXR5IENTUyBQYXJzZXItLT48ZyBpZD0iZWxlbV9DU1MgUGFyc2VyIj48cmVjdCBmaWxsPSIjRjFGMUYxIiBoZWlnaHQ9IjQ0Ljk4NDQiIHJ4PSIyLjUiIHJ5PSIyLjUiIHN0eWxlPSJzdHJva2U6IzE4MTgxODtzdHJva2Utd2lkdGg6MC41OyIgd2lkdGg9IjExMCIgeD0iNDg2IiB5PSIyMjEiLz48cmVjdCBmaWxsPSIjRjFGMUYxIiBoZWlnaHQ9IjEwIiBzdHlsZT0ic3Ryb2tlOiMxODE4MTg7c3Ryb2tlLXdpZHRoOjAuNTsiIHdpZHRoPSIxNSIgeD0iNTc2IiB5PSIyMjYiLz48cmVjdCBmaWxsPSIjRjFGMUYxIiBoZWlnaHQ9IjIiIHN0eWxlPSJzdHJva2U6IzE4MTgxODtzdHJva2Utd2lkdGg6MC41OyIgd2lkdGg9IjQiIHg9IjU3NCIgeT0iMjI4Ii8+PHJlY3QgZmlsbD0iI0YxRjFGMSIgaGVpZ2h0PSIyIiBzdHlsZT0ic3Ryb2tlOiMxODE4MTg7c3Ryb2tlLXdpZHRoOjAuNTsiIHdpZHRoPSI0IiB4PSI1NzQiIHk9IjIzMiIvPjx0ZXh0IGZpbGw9IiMwMDAwMDAiIGZvbnQtZmFtaWx5PSJzYW5zLXNlcmlmIiBmb250LXNpemU9IjE0IiBsZW5ndGhBZGp1c3Q9InNwYWNpbmciIHRleHRMZW5ndGg9IjcwIiB4PSI1MDEiIHk9IjI1NC4yMzQ0Ij5DU1MgUGFyc2VyPC90ZXh0PjwvZz48IS0tZW50aXR5IFN0eWxlc2hlZXQgR2VuZXJhdG9yLS0+PGcgaWQ9ImVsZW1fU3R5bGVzaGVldCBHZW5lcmF0b3IiPjxyZWN0IGZpbGw9IiNGMUYxRjEiIGhlaWdodD0iNDQuOTg0NCIgcng9IjIuNSIgcnk9IjIuNSIgc3R5bGU9InN0cm9rZTojMTgxODE4O3N0cm9rZS13aWR0aDowLjU7IiB3aWR0aD0iMTgwIiB4PSI0MTYiIHk9IjM0MSIvPjxyZWN0IGZpbGw9IiNGMUYxRjEiIGhlaWdodD0iMTAiIHN0eWxlPSJzdHJva2U6IzE4MTgxODtzdHJva2Utd2lkdGg6MC41OyIgd2lkdGg9IjE1IiB4PSI1NzYiIHk9IjM0NiIvPjxyZWN0IGZpbGw9IiNGMUYxRjEiIGhlaWdodD0iMiIgc3R5bGU9InN0cm9rZTojMTgxODE4O3N0cm9rZS13aWR0aDowLjU7IiB3aWR0aD0iNCIgeD0iNTc0IiB5PSIzNDgiLz48cmVjdCBmaWxsPSIjRjFGMUYxIiBoZWlnaHQ9IjIiIHN0eWxlPSJzdHJva2U6IzE4MTgxODtzdHJva2Utd2lkdGg6MC41OyIgd2lkdGg9IjQiIHg9IjU3NCIgeT0iMzUyIi8+PHRleHQgZmlsbD0iIzAwMDAwMCIgZm9udC1mYW1pbHk9InNhbnMtc2VyaWYiIGZvbnQtc2l6ZT0iMTQiIGxlbmd0aEFkanVzdD0ic3BhY2luZyIgdGV4dExlbmd0aD0iMTQwIiB4PSI0MzEiIHk9IjM3NC4yMzQ0Ij5TdHlsZXNoZWV0IEdlbmVyYXRvcjwvdGV4dD48L2c+PCEtLWVudGl0eSBKUy0tPjxnIGlkPSJlbGVtX0pTIj48cmVjdCBmaWxsPSIjRjFGMUYxIiBoZWlnaHQ9IjQ0Ljk4NDQiIHJ4PSIyLjUiIHJ5PSIyLjUiIHN0eWxlPSJzdHJva2U6IzE4MTgxODtzdHJva2Utd2lkdGg6MC41OyIgd2lkdGg9IjIzMCIgeD0iNjgiIHk9IjIyMSIvPjxyZWN0IGZpbGw9IiNGMUYxRjEiIGhlaWdodD0iMTAiIHN0eWxlPSJzdHJva2U6IzE4MTgxODtzdHJva2Utd2lkdGg6MC41OyIgd2lkdGg9IjE1IiB4PSIyNzgiIHk9IjIyNiIvPjxyZWN0IGZpbGw9IiNGMUYxRjEiIGhlaWdodD0iMiIgc3R5bGU9InN0cm9rZTojMTgxODE4O3N0cm9rZS13aWR0aDowLjU7IiB3aWR0aD0iNCIgeD0iMjc2IiB5PSIyMjgiLz48cmVjdCBmaWxsPSIjRjFGMUYxIiBoZWlnaHQ9IjIiIHN0eWxlPSJzdHJva2U6IzE4MTgxODtzdHJva2Utd2lkdGg6MC41OyIgd2lkdGg9IjQiIHg9IjI3NiIgeT0iMjMyIi8+PHRleHQgZmlsbD0iIzAwMDAwMCIgZm9udC1mYW1pbHk9InNhbnMtc2VyaWYiIGZvbnQtc2l6ZT0iMTQiIGxlbmd0aEFkanVzdD0ic3BhY2luZyIgdGV4dExlbmd0aD0iMTkwIiB4PSI4MyIgeT0iMjU0LjIzNDQiPkphdmFTY3JpcHQgRXhlY3V0aW9uIEVuZ2luZTwvdGV4dD48L2c+PCEtLWVudGl0eSBNZWRpYSBQbGF5YmFjay0tPjxnIGlkPSJlbGVtX01lZGlhIFBsYXliYWNrIj48cmVjdCBmaWxsPSIjRjFGMUYxIiBoZWlnaHQ9IjQ0Ljk4NDQiIHJ4PSIyLjUiIHJ5PSIyLjUiIHN0eWxlPSJzdHJva2U6IzE4MTgxODtzdHJva2Utd2lkdGg6MC41OyIgd2lkdGg9IjEzOCIgeD0iNTkiIHk9IjYyMSIvPjxyZWN0IGZpbGw9IiNGMUYxRjEiIGhlaWdodD0iMTAiIHN0eWxlPSJzdHJva2U6IzE4MTgxODtzdHJva2Utd2lkdGg6MC41OyIgd2lkdGg9IjE1IiB4PSIxNzciIHk9IjYyNiIvPjxyZWN0IGZpbGw9IiNGMUYxRjEiIGhlaWdodD0iMiIgc3R5bGU9InN0cm9rZTojMTgxODE4O3N0cm9rZS13aWR0aDowLjU7IiB3aWR0aD0iNCIgeD0iMTc1IiB5PSI2MjgiLz48cmVjdCBmaWxsPSIjRjFGMUYxIiBoZWlnaHQ9IjIiIHN0eWxlPSJzdHJva2U6IzE4MTgxODtzdHJva2Utd2lkdGg6MC41OyIgd2lkdGg9IjQiIHg9IjE3NSIgeT0iNjMyIi8+PHRleHQgZmlsbD0iIzAwMDAwMCIgZm9udC1mYW1pbHk9InNhbnMtc2VyaWYiIGZvbnQtc2l6ZT0iMTQiIGxlbmd0aEFkanVzdD0ic3BhY2luZyIgdGV4dExlbmd0aD0iOTgiIHg9Ijc0IiB5PSI2NTQuMjM0NCI+TWVkaWEgUGxheWJhY2s8L3RleHQ+PC9nPjwhLS1lbnRpdHkgTWVkaWEgRGVjb2Rlci0tPjxnIGlkPSJlbGVtX01lZGlhIERlY29kZXIiPjxyZWN0IGZpbGw9IiNGMUYxRjEiIGhlaWdodD0iNDQuOTg0NCIgcng9IjIuNSIgcnk9IjIuNSIgc3R5bGU9InN0cm9rZTojMTgxODE4O3N0cm9rZS13aWR0aDowLjU7IiB3aWR0aD0iMTMxIiB4PSI0Ni41IiB5PSI4NDQiLz48cmVjdCBmaWxsPSIjRjFGMUYxIiBoZWlnaHQ9IjEwIiBzdHlsZT0ic3Ryb2tlOiMxODE4MTg7c3Ryb2tlLXdpZHRoOjAuNTsiIHdpZHRoPSIxNSIgeD0iMTU3LjUiIHk9Ijg0OSIvPjxyZWN0IGZpbGw9IiNGMUYxRjEiIGhlaWdodD0iMiIgc3R5bGU9InN0cm9rZTojMTgxODE4O3N0cm9rZS13aWR0aDowLjU7IiB3aWR0aD0iNCIgeD0iMTU1LjUiIHk9Ijg1MSIvPjxyZWN0IGZpbGw9IiNGMUYxRjEiIGhlaWdodD0iMiIgc3R5bGU9InN0cm9rZTojMTgxODE4O3N0cm9rZS13aWR0aDowLjU7IiB3aWR0aD0iNCIgeD0iMTU1LjUiIHk9Ijg1NSIvPjx0ZXh0IGZpbGw9IiMwMDAwMDAiIGZvbnQtZmFtaWx5PSJzYW5zLXNlcmlmIiBmb250LXNpemU9IjE0IiBsZW5ndGhBZGp1c3Q9InNwYWNpbmciIHRleHRMZW5ndGg9IjkxIiB4PSI2MS41IiB5PSI4NzcuMjM0NCI+TWVkaWEgRGVjb2RlcjwvdGV4dD48L2c+PCEtLWVudGl0eSBHcmFwaGljcyBSZW5kZXJlci0tPjxnIGlkPSJlbGVtX0dyYXBoaWNzIFJlbmRlcmVyIj48cmVjdCBmaWxsPSIjRjFGMUYxIiBoZWlnaHQ9IjQ0Ljk4NDQiIHJ4PSIyLjUiIHJ5PSIyLjUiIHN0eWxlPSJzdHJva2U6IzE4MTgxODtzdHJva2Utd2lkdGg6MC41OyIgd2lkdGg9IjE1OSIgeD0iMjEyLjUiIHk9Ijg0NCIvPjxyZWN0IGZpbGw9IiNGMUYxRjEiIGhlaWdodD0iMTAiIHN0eWxlPSJzdHJva2U6IzE4MTgxODtzdHJva2Utd2lkdGg6MC41OyIgd2lkdGg9IjE1IiB4PSIzNTEuNSIgeT0iODQ5Ii8+PHJlY3QgZmlsbD0iI0YxRjFGMSIgaGVpZ2h0PSIyIiBzdHlsZT0ic3Ryb2tlOiMxODE4MTg7c3Ryb2tlLXdpZHRoOjAuNTsiIHdpZHRoPSI0IiB4PSIzNDkuNSIgeT0iODUxIi8+PHJlY3QgZmlsbD0iI0YxRjFGMSIgaGVpZ2h0PSIyIiBzdHlsZT0ic3Ryb2tlOiMxODE4MTg7c3Ryb2tlLXdpZHRoOjAuNTsiIHdpZHRoPSI0IiB4PSIzNDkuNSIgeT0iODU1Ii8+PHRleHQgZmlsbD0iIzAwMDAwMCIgZm9udC1mYW1pbHk9InNhbnMtc2VyaWYiIGZvbnQtc2l6ZT0iMTQiIGxlbmd0aEFkanVzdD0ic3BhY2luZyIgdGV4dExlbmd0aD0iMTE5IiB4PSIyMjcuNSIgeT0iODc3LjIzNDQiPkdyYXBoaWNzIFJlbmRlcmVyPC90ZXh0PjwvZz48IS0tZW50aXR5IElucHV0IEhhbmRsaW5nLS0+PGcgaWQ9ImVsZW1fSW5wdXQgSGFuZGxpbmciPjxyZWN0IGZpbGw9IiNGMUYxRjEiIGhlaWdodD0iNDQuOTg0NCIgcng9IjIuNSIgcnk9IjIuNSIgc3R5bGU9InN0cm9rZTojMTgxODE4O3N0cm9rZS13aWR0aDowLjU7IiB3aWR0aD0iMTM4IiB4PSI0MDciIHk9Ijg0NCIvPjxyZWN0IGZpbGw9IiNGMUYxRjEiIGhlaWdodD0iMTAiIHN0eWxlPSJzdHJva2U6IzE4MTgxODtzdHJva2Utd2lkdGg6MC41OyIgd2lkdGg9IjE1IiB4PSI1MjUiIHk9Ijg0OSIvPjxyZWN0IGZpbGw9IiNGMUYxRjEiIGhlaWdodD0iMiIgc3R5bGU9InN0cm9rZTojMTgxODE4O3N0cm9rZS13aWR0aDowLjU7IiB3aWR0aD0iNCIgeD0iNTIzIiB5PSI4NTEiLz48cmVjdCBmaWxsPSIjRjFGMUYxIiBoZWlnaHQ9IjIiIHN0eWxlPSJzdHJva2U6IzE4MTgxODtzdHJva2Utd2lkdGg6MC41OyIgd2lkdGg9IjQiIHg9IjUyMyIgeT0iODU1Ii8+PHRleHQgZmlsbD0iIzAwMDAwMCIgZm9udC1mYW1pbHk9InNhbnMtc2VyaWYiIGZvbnQtc2l6ZT0iMTQiIGxlbmd0aEFkanVzdD0ic3BhY2luZyIgdGV4dExlbmd0aD0iOTgiIHg9IjQyMiIgeT0iODc3LjIzNDQiPklucHV0IEhhbmRsaW5nPC90ZXh0PjwvZz48IS0tbGluayBOZXQgdG8gSFRNTCBQYXJzZXItLT48ZyBpZD0ibGlua19OZXRfSFRNTCBQYXJzZXIiPjxwYXRoIGQ9Ik0zNzAuOTEsMTI1LjIyIEMzNzUuMzEsMTQ5LjcgMzgyLjQ3LDE4OS41MSAzODcuMjEsMjE1Ljg1ICIgZmlsbD0ibm9uZSIgaWQ9Ik5ldC10by1IVE1MIFBhcnNlciIgc3R5bGU9InN0cm9rZTojMTgxODE4O3N0cm9rZS13aWR0aDoxLjA7Ii8+PHBvbHlnb24gZmlsbD0iIzE4MTgxOCIgcG9pbnRzPSIzODguMTIsMjIwLjkzLDM5MC40NjUsMjExLjM2NDQsMzg3LjIzNTYsMjE2LjAwODgsMzgyLjU5MTIsMjEyLjc3OTQsMzg4LjEyLDIyMC45MyIgc3R5bGU9InN0cm9rZTojMTgxODE4O3N0cm9rZS13aWR0aDoxLjA7Ii8+PHRleHQgZmlsbD0iIzAwMDAwMCIgZm9udC1mYW1pbHk9InNhbnMtc2VyaWYiIGZvbnQtc2l6ZT0iMTMiIGxlbmd0aEFkanVzdD0ic3BhY2luZyIgdGV4dExlbmd0aD0iNjkiIHg9IjM3OSIgeT0iMTcwLjI4OTEiPlNlbmRzIEhUTUw8L3RleHQ+PC9nPjwhLS1saW5rIE5ldCB0byBDU1MgUGFyc2VyLS0+PGcgaWQ9ImxpbmtfTmV0X0NTUyBQYXJzZXIiPjxwYXRoIGQ9Ik00MDguMzMsMTI1LjA5IEM0MjQuMTUsMTM0LjEgNDQxLjk4LDE0NS4yMiA0NTcsMTU3IEM0NzkuOTgsMTc1LjAzIDUwMy4wMiwxOTkgNTE5LjE0LDIxNi45NyAiIGZpbGw9Im5vbmUiIGlkPSJOZXQtdG8tQ1NTIFBhcnNlciIgc3R5bGU9InN0cm9rZTojMTgxODE4O3N0cm9rZS13aWR0aDoxLjA7Ii8+PHBvbHlnb24gZmlsbD0iIzE4MTgxOCIgcG9pbnRzPSI1MjIuNjcsMjIwLjk0LDUxOS42NzgxLDIxMS41NTY2LDUxOS4zNDczLDIxNy4yMDM3LDUxMy43MDAxLDIxNi44NzI5LDUyMi42NywyMjAuOTQiIHN0eWxlPSJzdHJva2U6IzE4MTgxODtzdHJva2Utd2lkdGg6MS4wOyIvPjx0ZXh0IGZpbGw9IiMwMDAwMDAiIGZvbnQtZmFtaWx5PSJzYW5zLXNlcmlmIiBmb250LXNpemU9IjEzIiBsZW5ndGhBZGp1c3Q9InNwYWNpbmciIHRleHRMZW5ndGg9IjYzIiB4PSI0NzUiIHk9IjE3MC4yODkxIj5TZW5kcyBDU1M8L3RleHQ+PC9nPjwhLS1saW5rIE5ldCB0byBKUy0tPjxnIGlkPSJsaW5rX05ldF9KUyI+PHBhdGggZD0iTTMzOC4yNSwxMjUuMjIgQzMwNS4wMywxNTAuMzEgMjUwLjQ5LDE5MS41MSAyMTUuNjksMjE3LjggIiBmaWxsPSJub25lIiBpZD0iTmV0LXRvLUpTIiBzdHlsZT0ic3Ryb2tlOiMxODE4MTg7c3Ryb2tlLXdpZHRoOjEuMDsiLz48cG9seWdvbiBmaWxsPSIjMTgxODE4IiBwb2ludHM9IjIxMS41NSwyMjAuOTMsMjIxLjE0NSwyMTguNzA4MSwyMTUuNTQzMSwyMTcuOTIwOSwyMTYuMzMwNCwyMTIuMzE5MSwyMTEuNTUsMjIwLjkzIiBzdHlsZT0ic3Ryb2tlOiMxODE4MTg7c3Ryb2tlLXdpZHRoOjEuMDsiLz48dGV4dCBmaWxsPSIjMDAwMDAwIiBmb250LWZhbWlseT0ic2Fucy1zZXJpZiIgZm9udC1zaXplPSIxMyIgbGVuZ3RoQWRqdXN0PSJzcGFjaW5nIiB0ZXh0TGVuZ3RoPSI1NiIgeD0iMjkyIiB5PSIxNzAuMjg5MSI+U2VuZHMgSlM8L3RleHQ+PC9nPjwhLS1saW5rIEhUTUwgUGFyc2VyIHRvIERPTSBHZW5lcmF0b3ItLT48ZyBpZD0ibGlua19IVE1MIFBhcnNlcl9ET00gR2VuZXJhdG9yIj48cGF0aCBkPSJNMzc3Ljg4LDI2Ni4xNCBDMzY0LjkxLDI4Ni4wMiAzNDUuNjYsMzE1LjUxIDMzMS44OSwzMzYuNjIgIiBmaWxsPSJub25lIiBpZD0iSFRNTCBQYXJzZXItdG8tRE9NIEdlbmVyYXRvciIgc3R5bGU9InN0cm9rZTojMTgxODE4O3N0cm9rZS13aWR0aDoxLjA7Ii8+PHBvbHlnb24gZmlsbD0iIzE4MTgxOCIgcG9pbnRzPSIzMjkuMDMsMzQwLjk5LDMzNy4yOTU3LDMzNS42MzQ5LDMzMS43NjA1LDMzNi44MDE0LDMzMC41OTM5LDMzMS4yNjYxLDMyOS4wMywzNDAuOTkiIHN0eWxlPSJzdHJva2U6IzE4MTgxODtzdHJva2Utd2lkdGg6MS4wOyIvPjx0ZXh0IGZpbGw9IiMwMDAwMDAiIGZvbnQtZmFtaWx5PSJzYW5zLXNlcmlmIiBmb250LXNpemU9IjEzIiBsZW5ndGhBZGp1c3Q9InNwYWNpbmciIHRleHRMZW5ndGg9Ijk3IiB4PSIzNTkiIHk9IjMwOS4yODkxIj5TZW5kcyBET00gVHJlZTwvdGV4dD48L2c+PCEtLWxpbmsgQ1NTIFBhcnNlciB0byBTdHlsZXNoZWV0IEdlbmVyYXRvci0tPjxnIGlkPSJsaW5rX0NTUyBQYXJzZXJfU3R5bGVzaGVldCBHZW5lcmF0b3IiPjxwYXRoIGQ9Ik01MzQuNTgsMjY2LjE0IEM1MjguNzMsMjg1Ljg1IDUyMC4wOCwzMTUuMDEgNTEzLjgzLDMzNi4wOSAiIGZpbGw9Im5vbmUiIGlkPSJDU1MgUGFyc2VyLXRvLVN0eWxlc2hlZXQgR2VuZXJhdG9yIiBzdHlsZT0ic3Ryb2tlOiMxODE4MTg7c3Ryb2tlLXdpZHRoOjEuMDsiLz48cG9seWdvbiBmaWxsPSIjMTgxODE4IiBwb2ludHM9IjUxMi4zOCwzNDAuOTksNTE4Ljc4MTEsMzMzLjUwNDksNTEzLjgwNjMsMzM2LjE5NzcsNTExLjExMzUsMzMxLjIyMjksNTEyLjM4LDM0MC45OSIgc3R5bGU9InN0cm9rZTojMTgxODE4O3N0cm9rZS13aWR0aDoxLjA7Ii8+PHRleHQgZmlsbD0iIzAwMDAwMCIgZm9udC1mYW1pbHk9InNhbnMtc2VyaWYiIGZvbnQtc2l6ZT0iMTMiIGxlbmd0aEFkanVzdD0ic3BhY2luZyIgdGV4dExlbmd0aD0iMTE2IiB4PSI1MjYiIHk9IjMwOS4yODkxIj5TZW5kcyBTdHlsZSBSdWxlczwvdGV4dD48L2c+PCEtLWxpbmsgSlMgdG8gRE9NIE1vZGlmaWVyLS0+PGcgaWQ9ImxpbmtfSlNfRE9NIE1vZGlmaWVyIj48cGF0aCBkPSJNMTY4LjY2LDI2Ni4wOSBDMTQ3Ljg5LDMwMC4zNCAxMTUuNCwzNjcuNTggMTQ5LDQxMCBDMTU4LjY0LDQyMi4xNyAxNjguNzIsNDExLjkxIDE4Myw0MTggQzIxOS45NSw0MzMuNzUgMjU4LjAzLDQ1OS42NCAyODMuNzQsNDc4LjgxICIgZmlsbD0ibm9uZSIgaWQ9IkpTLXRvLURPTSBNb2RpZmllciIgc3R5bGU9InN0cm9rZTojMTgxODE4O3N0cm9rZS13aWR0aDoxLjA7Ii8+PHBvbHlnb24gZmlsbD0iIzE4MTgxOCIgcG9pbnRzPSIyODcuNzUsNDgxLjgzLDI4Mi45Njk2LDQ3My4yMTkxLDI4My43NTY5LDQ3OC44MjA5LDI3OC4xNTUsNDc5LjYwODEsMjg3Ljc1LDQ4MS44MyIgc3R5bGU9InN0cm9rZTojMTgxODE4O3N0cm9rZS13aWR0aDoxLjA7Ii8+PHRleHQgZmlsbD0iIzAwMDAwMCIgZm9udC1mYW1pbHk9InNhbnMtc2VyaWYiIGZvbnQtc2l6ZT0iMTMiIGxlbmd0aEFkanVzdD0ic3BhY2luZyIgdGV4dExlbmd0aD0iODEiIHg9IjE1MCIgeT0iMzY5LjI4OTEiPk1vZGlmaWVzIERPTTwvdGV4dD48L2c+PCEtLWxpbmsgRE9NIEdlbmVyYXRvciB0byBET00gTW9kaWZpZXItLT48ZyBpZD0ibGlua19ET00gR2VuZXJhdG9yX0RPTSBNb2RpZmllciI+PHBhdGggZD0iTTMxNSwzODYuMjIgQzMxNSw0MTAuNyAzMTUsNDUwLjUxIDMxNSw0NzYuODUgIiBmaWxsPSJub25lIiBpZD0iRE9NIEdlbmVyYXRvci10by1ET00gTW9kaWZpZXIiIHN0eWxlPSJzdHJva2U6IzE4MTgxODtzdHJva2Utd2lkdGg6MS4wOyIvPjxwb2x5Z29uIGZpbGw9IiMxODE4MTgiIHBvaW50cz0iMzE1LDQ4MS45MywzMTksNDcyLjkzLDMxNSw0NzYuOTMsMzExLDQ3Mi45MywzMTUsNDgxLjkzIiBzdHlsZT0ic3Ryb2tlOiMxODE4MTg7c3Ryb2tlLXdpZHRoOjEuMDsiLz48L2c+PCEtLWxpbmsgU3R5bGVzaGVldCBHZW5lcmF0b3IgdG8gRE9NIE1vZGlmaWVyLS0+PGcgaWQ9ImxpbmtfU3R5bGVzaGVldCBHZW5lcmF0b3JfRE9NIE1vZGlmaWVyIj48cGF0aCBkPSJNNDc2LjE2LDM4Ni4yMiBDNDQxLjY4LDQxMS4zMSAzODUuMDYsNDUyLjUxIDM0OC45NCw0NzguOCAiIGZpbGw9Im5vbmUiIGlkPSJTdHlsZXNoZWV0IEdlbmVyYXRvci10by1ET00gTW9kaWZpZXIiIHN0eWxlPSJzdHJva2U6IzE4MTgxODtzdHJva2Utd2lkdGg6MS4wOyIvPjxwb2x5Z29uIGZpbGw9IiMxODE4MTgiIHBvaW50cz0iMzQ0LjYzLDQ4MS45MywzNTQuMjYwNCw0NzkuODY3NCwzNDguNjcyNCw0NzguOTg3NCwzNDkuNTUyNCw0NzMuMzk5NCwzNDQuNjMsNDgxLjkzIiBzdHlsZT0ic3Ryb2tlOiMxODE4MTg7c3Ryb2tlLXdpZHRoOjEuMDsiLz48L2c+PCEtLWxpbmsgRE9NIE1vZGlmaWVyIHRvIFJlbmRlcmluZyBFbmdpbmUtLT48ZyBpZD0ibGlua19ET00gTW9kaWZpZXJfUmVuZGVyaW5nIEVuZ2luZSI+PHBhdGggZD0iTTMxNy4yMiw1MjcuMjEgQzMxOS42OCw1NTEuMjYgMzIzLjY0LDU5MC4wNSAzMjYuMjgsNjE1LjkgIiBmaWxsPSJub25lIiBpZD0iRE9NIE1vZGlmaWVyLXRvLVJlbmRlcmluZyBFbmdpbmUiIHN0eWxlPSJzdHJva2U6IzE4MTgxODtzdHJva2Utd2lkdGg6MS4wOyIvPjxwb2x5Z29uIGZpbGw9IiMxODE4MTgiIHBvaW50cz0iMzI2Ljc5LDYyMC44OSwzMjkuODQyNyw2MTEuNTI2MiwzMjYuMjc1NSw2MTUuOTE2NSwzMjEuODg1MSw2MTIuMzQ5NCwzMjYuNzksNjIwLjg5IiBzdHlsZT0ic3Ryb2tlOiMxODE4MTg7c3Ryb2tlLXdpZHRoOjEuMDsiLz48dGV4dCBmaWxsPSIjMDAwMDAwIiBmb250LWZhbWlseT0ic2Fucy1zZXJpZiIgZm9udC1zaXplPSIxMyIgbGVuZ3RoQWRqdXN0PSJzcGFjaW5nIiB0ZXh0TGVuZ3RoPSIxMzgiIHg9IjMyMiIgeT0iNTcwLjI4OTEiPlByb3ZpZGVzIFJlbmRlciBUcmVlPC90ZXh0PjwvZz48IS0tbGluayBKUyB0byBNZWRpYSBQbGF5YmFjay0tPjxnIGlkPSJsaW5rX0pTX01lZGlhIFBsYXliYWNrIj48cGF0aCBkPSJNMTU5LjU4LDI2Ni4xMSBDMTI4LjY4LDI5Ni40NiA3NS45OCwzNTUuMSA1Nyw0MTggQzU1LjA3LDQyNC4zOCA1NS45Miw0MjYuNDIgNTcsNDMzIEM1OC41NCw0NDIuMzQgOTkuODEsNTYxLjUzIDExOC43MSw2MTUuODUgIiBmaWxsPSJub25lIiBpZD0iSlMtdG8tTWVkaWEgUGxheWJhY2siIHN0eWxlPSJzdHJva2U6IzE4MTgxODtzdHJva2Utd2lkdGg6MS4wOyIvPjxwb2x5Z29uIGZpbGw9IiMxODE4MTgiIHBvaW50cz0iMTIwLjQ3LDYyMC45LDEyMS4yOTQ4LDYxMS4wODU3LDExOC44MjkxLDYxNi4xNzY5LDExMy43Mzc5LDYxMy43MTEyLDEyMC40Nyw2MjAuOSIgc3R5bGU9InN0cm9rZTojMTgxODE4O3N0cm9rZS13aWR0aDoxLjA7Ii8+PHRleHQgZmlsbD0iIzAwMDAwMCIgZm9udC1mYW1pbHk9InNhbnMtc2VyaWYiIGZvbnQtc2l6ZT0iMTMiIGxlbmd0aEFkanVzdD0ic3BhY2luZyIgdGV4dExlbmd0aD0iMTE2IiB4PSI1OCIgeT0iNDMxLjI4OTEiPkNvbnRyb2xzIHBsYXliYWNrPC90ZXh0PjwvZz48IS0tbGluayBOZXQgdG8gUGxhdGZvcm0gQWJzdHJhY3Rpb24tLT48ZyBpZD0ibGlua19OZXRfUGxhdGZvcm0gQWJzdHJhY3Rpb24iPjxwYXRoIGQ9Ik0zMzUuNjQsMTI1LjA4IEMzMjEuNCwxMzMuODggMzAzLjk2LDE0My4zIDI4NywxNDkgQzE2OS4wMSwxODguNjQgMjMsMTE4LjAzIDIzLDI0Mi41IEMyMywyNDIuNSAyMywyNDIuNSAyMyw2NDQuNSBDMjMsNjk2LjIyIDc4LjI0LDcyMS41MiAxMjkuNDcsNzMzLjg1ICIgZmlsbD0ibm9uZSIgaWQ9Ik5ldC10by1QbGF0Zm9ybSBBYnN0cmFjdGlvbiIgc3R5bGU9InN0cm9rZTojMTgxODE4O3N0cm9rZS13aWR0aDoxLjA7Ii8+PHBvbHlnb24gZmlsbD0iIzE4MTgxOCIgcG9pbnRzPSIxMzQuNDEsNzM1LjAxLDEyNi41NjU0LDcyOS4wNTUsMTI5LjU0MjksNzMzLjg2NDgsMTI0LjczMzEsNzM2Ljg0MjMsMTM0LjQxLDczNS4wMSIgc3R5bGU9InN0cm9rZTojMTgxODE4O3N0cm9rZS13aWR0aDoxLjA7Ii8+PC9nPjwhLS1saW5rIFJlbmRlcmluZyBFbmdpbmUgdG8gUGxhdGZvcm0gQWJzdHJhY3Rpb24tLT48ZyBpZD0ibGlua19SZW5kZXJpbmcgRW5naW5lX1BsYXRmb3JtIEFic3RyYWN0aW9uIj48cGF0aCBkPSJNMzA0LjU0LDY2Ni4xNyBDMjg0LjY3LDY4My43NyAyNTYuODYsNzA4LjQxIDIzNy41Myw3MjUuNTQgIiBmaWxsPSJub25lIiBpZD0iUmVuZGVyaW5nIEVuZ2luZS10by1QbGF0Zm9ybSBBYnN0cmFjdGlvbiIgc3R5bGU9InN0cm9rZTojMTgxODE4O3N0cm9rZS13aWR0aDoxLjA7Ii8+PHBvbHlnb24gZmlsbD0iIzE4MTgxOCIgcG9pbnRzPSIyMzMuNzgsNzI4Ljg2LDI0My4xNjk4LDcyNS44ODgyLDIzNy41MjMzLDcyNS41NDUzLDIzNy44NjYyLDcxOS44OTg4LDIzMy43OCw3MjguODYiIHN0eWxlPSJzdHJva2U6IzE4MTgxODtzdHJva2Utd2lkdGg6MS4wOyIvPjwvZz48IS0tbGluayBNZWRpYSBQbGF5YmFjayB0byBQbGF0Zm9ybSBBYnN0cmFjdGlvbi0tPjxnIGlkPSJsaW5rX01lZGlhIFBsYXliYWNrX1BsYXRmb3JtIEFic3RyYWN0aW9uIj48cGF0aCBkPSJNMTQ2Ljg4LDY2Ni40MiBDMTYxLjgsNjgzLjc0IDE4Mi41LDcwNy43NyAxOTcuMTUsNzI0Ljc4ICIgZmlsbD0ibm9uZSIgaWQ9Ik1lZGlhIFBsYXliYWNrLXRvLVBsYXRmb3JtIEFic3RyYWN0aW9uIiBzdHlsZT0ic3Ryb2tlOiMxODE4MTg7c3Ryb2tlLXdpZHRoOjEuMDsiLz48cG9seWdvbiBmaWxsPSIjMTgxODE4IiBwb2ludHM9IjIwMC43NCw3MjguOTUsMTk3LjkwMjMsNzE5LjUxODgsMTk3LjQ3OSw3MjUuMTU5OCwxOTEuODM4LDcyNC43MzY0LDIwMC43NCw3MjguOTUiIHN0eWxlPSJzdHJva2U6IzE4MTgxODtzdHJva2Utd2lkdGg6MS4wOyIvPjwvZz48IS0tbGluayBQbGF0Zm9ybSBBYnN0cmFjdGlvbiB0byBNZWRpYSBEZWNvZGVyLS0+PGcgaWQ9ImxpbmtfUGxhdGZvcm0gQWJzdHJhY3Rpb25fTWVkaWEgRGVjb2RlciI+PHBhdGggZD0iTTIwMC40Niw3NjQuMTYgQzE4My4yNyw3ODMuODUgMTU0LjQ2LDgxNi44NiAxMzQuNCw4MzkuODMgIiBmaWxsPSJub25lIiBpZD0iUGxhdGZvcm0gQWJzdHJhY3Rpb24tdG8tTWVkaWEgRGVjb2RlciIgc3R5bGU9InN0cm9rZTojMTgxODE4O3N0cm9rZS13aWR0aDoxLjA7Ii8+PHBvbHlnb24gZmlsbD0iIzE4MTgxOCIgcG9pbnRzPSIxMzEuMDIsODQzLjcyLDEzOS45NTU3LDgzOS41Nzg0LDEzNC4zMTE1LDgzOS45NTYyLDEzMy45MzM3LDgzNC4zMTIsMTMxLjAyLDg0My43MiIgc3R5bGU9InN0cm9rZTojMTgxODE4O3N0cm9rZS13aWR0aDoxLjA7Ii8+PC9nPjwhLS1saW5rIFBsYXRmb3JtIEFic3RyYWN0aW9uIHRvIEdyYXBoaWNzIFJlbmRlcmVyLS0+PGcgaWQ9ImxpbmtfUGxhdGZvcm0gQWJzdHJhY3Rpb25fR3JhcGhpY3MgUmVuZGVyZXIiPjxwYXRoIGQ9Ik0yMjUuODcsNzY0LjE2IEMyMzguNjIsNzgzLjY5IDI1OS45MSw4MTYuMzIgMjc0Ljg4LDgzOS4yNiAiIGZpbGw9Im5vbmUiIGlkPSJQbGF0Zm9ybSBBYnN0cmFjdGlvbi10by1HcmFwaGljcyBSZW5kZXJlciIgc3R5bGU9InN0cm9rZTojMTgxODE4O3N0cm9rZS13aWR0aDoxLjA7Ii8+PHBvbHlnb24gZmlsbD0iIzE4MTgxOCIgcG9pbnRzPSIyNzcuNzgsODQzLjcyLDI3Ni4yMTYxLDgzMy45OTYxLDI3NS4wNDk1LDgzOS41MzE0LDI2OS41MTQzLDgzOC4zNjQ5LDI3Ny43OCw4NDMuNzIiIHN0eWxlPSJzdHJva2U6IzE4MTgxODtzdHJva2Utd2lkdGg6MS4wOyIvPjwvZz48IS0tbGluayBQbGF0Zm9ybSBBYnN0cmFjdGlvbiB0byBJbnB1dCBIYW5kbGluZy0tPjxnIGlkPSJsaW5rX1BsYXRmb3JtIEFic3RyYWN0aW9uX0lucHV0IEhhbmRsaW5nIj48cGF0aCBkPSJNMjgzLjg3LDc2NC4wOCBDMzE2LjY2LDc3My4zMSAzNTUuODYsNzg2LjM0IDM4OSw4MDMgQzQwOS4zNyw4MTMuMjQgNDMwLjE5LDgyOC4wMSA0NDYuMzUsODQwLjYyICIgZmlsbD0ibm9uZSIgaWQ9IlBsYXRmb3JtIEFic3RyYWN0aW9uLXRvLUlucHV0IEhhbmRsaW5nIiBzdHlsZT0ic3Ryb2tlOiMxODE4MTg7c3Ryb2tlLXdpZHRoOjEuMDsiLz48cG9seWdvbiBmaWxsPSIjMTgxODE4IiBwb2ludHM9IjQ1MC4zNSw4NDMuNzcsNDQ1Ljc2MjYsODM1LjA1NDgsNDQ2LjQyNDksODQwLjY3MjcsNDQwLjgwNjksODQxLjMzNSw0NTAuMzUsODQzLjc3IiBzdHlsZT0ic3Ryb2tlOiMxODE4MTg7c3Ryb2tlLXdpZHRoOjEuMDsiLz48L2c+PCEtLVNSQz1bWExKQlJpOG00QnBwNVFsUy1PNFVBYk0wVUFYZjRLUmdzSldCTTJJc1BIalFMRjdsTkhqMkdzOFdmc1h0UGNWc2FIV2tUZG8zYTB0cVlmUy1XenpVM3kzS3FHX3F0emhrZkRnNDNEMFpUNk1xR2tNUklNMlU2MWJtMW5HYXRFY2NvVzlMV0pQVFBGWVBHd3VCa1BQZWl0Um9JZUlIc2FZNU1RVnE1d3ZXZTlLRnlCZEwwZnJCd3FvTS1KbENrTkthMG9hSk9ySGVrVFU5ejgybmtySmNab013QlE5X0w2NzYzdm05QXVzN3FHLUFsUFRRckpzNWdTck9meENTMnlhSlpTR3VwNGotTjhNUEhudTRHT2wyU3hLZllWaWtyb1lFV2J2cGhnWFFIU3BpNWE4NV81aFIyanZNcGJpa1dZRm9WSXY1SXVILV94S3JqSFRXajB5NzhUVzREU1RKT29aTVdDcE9ESzZUS2tBc1NBcElzYTZEMy02YkhHb2FmYjNhZjhUVktzQ001ZGsyNDlpeU43TWsxcVZPb3RqS1lqUFFIaGdhMDRlaDl4MXJuTl85MkVmU0RaY1gtcHQ4V2ZvU2EtVXM2eXZSY29UNms3b2hJbVZjNGttcnp0OWRuUDFHVnU5bEFwLTJ0dnhQNDB6STgzMjNXamVOQ0FyQzZTLUgxeFl4VXp6MzVCZjhWTXpab3lyTVlkZjhBU1hLY1JzNzJMVDU2Vnk1bEdZdXV4U25zTGhwQVJwaHVJY2J2SWItalFTX10tLT48L2c+PC9zdmc+;" vertex="1" parent="1">
            <mxGeometry x="-500" y="2140" width="650" height="936" as="geometry" />
          </mxCell>
        </UserObject>
        <UserObject label="" plantUmlData="{&#xa;  &quot;data&quot;: &quot;@startuml\n\npackage \&quot;Cobalt System\&quot; {\n\n  package \&quot;Applications (JS)\&quot; {\n    component \&quot;Web Apps\&quot; as Apps\n  }\n\n  package \&quot;Application Framework\&quot; {\n    component \&quot;DOM API\&quot; as DOM_API\n    component \&quot;CSSOM API\&quot; as CSSOM_API\n    component \&quot;HTML5 APIs\&quot; as HTML5_APIs\n  }\n\n  package \&quot;Libraries &amp; Cobalt Runtime\&quot; {\n    component \&quot;Networking Stack\&quot; as Net\n    component \&quot;Rendering Engine\&quot; \n    component \&quot;Platform Abstraction\&quot; as PA \n    component \&quot;Lifecycle Management\&quot; \n    component \&quot;Media Playback\&quot; \n    component \&quot;JavaScript Execution Engine\&quot; as JS_Engine\n  }\n\n  package \&quot;Linux Kernel (Device-Specific Implementations)\&quot; {\n    component \&quot;Media Decoding\&quot; as MediaDecoding\n    component \&quot;Graphics Rendering\&quot; as GraphicsRendering\n    component \&quot;Input Handling\&quot; as InputHandling\n  }\n\n  Apps --&gt;  DOM_API : uses APIs\n  Apps --&gt;  CSSOM_API : uses APIs\n  Apps --&gt;  HTML5_APIs : uses APIs\n\n  DOM_API --&gt;  JS_Engine : implements in JS Engine\n  CSSOM_API --&gt;  JS_Engine : implements in JS Engine\n  HTML5_APIs --&gt;  JS_Engine : implements in JS Engine\n\n  JS_Engine --&gt; Net : uses Networking Stack\n  JS_Engine --&gt; \&quot;Rendering Engine\&quot; : uses Rendering Engine\n  JS_Engine --&gt; \&quot;Media Playback\&quot; : controls Media Playback\n\n  Net --&gt; PA : relies on \n  \&quot;Rendering Engine\&quot; --&gt; PA : relies on\n  \&quot;Media Playback\&quot; --&gt; PA : relies on\n\n  PA --&gt; MediaDecoding : relies on\n  PA --&gt; GraphicsRendering : relies on\n  PA --&gt; InputHandling : relies on\n\n}\n\n@enduml&quot;,&#xa;  &quot;format&quot;: &quot;svg&quot;&#xa;}" id="J6V1U3YTcORKghmEE3JZ-12">
          <mxCell style="shape=image;noLabel=1;verticalAlign=top;aspect=fixed;imageAspect=0;image=data:image/svg+xml,PD94bWwgdmVyc2lvbj0iMS4wIiBlbmNvZGluZz0idXMtYXNjaWkiIHN0YW5kYWxvbmU9Im5vIj8+PHN2ZyB4bWxucz0iaHR0cDovL3d3dy53My5vcmcvMjAwMC9zdmciIHhtbG5zOnhsaW5rPSJodHRwOi8vd3d3LnczLm9yZy8xOTk5L3hsaW5rIiBjb250ZW50U3R5bGVUeXBlPSJ0ZXh0L2NzcyIgaGVpZ2h0PSI4MzVweCIgcHJlc2VydmVBc3BlY3RSYXRpbz0ibm9uZSIgc3R5bGU9IndpZHRoOjY1OXB4O2hlaWdodDo4MzVweDtiYWNrZ3JvdW5kOiNGRkZGRkY7IiB2ZXJzaW9uPSIxLjEiIHZpZXdCb3g9IjAgMCA2NTkgODM1IiB3aWR0aD0iNjU5cHgiIHpvb21BbmRQYW49Im1hZ25pZnkiPjxkZWZzLz48Zz48IS0tY2x1c3RlciBDb2JhbHQgU3lzdGVtLS0+PGcgaWQ9ImNsdXN0ZXJfQ29iYWx0IFN5c3RlbSI+PHBhdGggZD0iTTguNSw2IEwxMDEuNSw2IEEzLjc1LDMuNzUgMCAwIDEgMTA0LDguNSBMMTExLDI2Ljk4NDQgTDY0OS41LDI2Ljk4NDQgQTIuNSwyLjUgMCAwIDEgNjUyLDI5LjQ4NDQgTDY1Miw4MjUuNSBBMi41LDIuNSAwIDAgMSA2NDkuNSw4MjggTDguNSw4MjggQTIuNSwyLjUgMCAwIDEgNiw4MjUuNSBMNiw4LjUgQTIuNSwyLjUgMCAwIDEgOC41LDYgIiBmaWxsPSJub25lIiBzdHlsZT0ic3Ryb2tlOiMwMDAwMDA7c3Ryb2tlLXdpZHRoOjEuNTsiLz48bGluZSBzdHlsZT0ic3Ryb2tlOiMwMDAwMDA7c3Ryb2tlLXdpZHRoOjEuNTsiIHgxPSI2IiB4Mj0iMTExIiB5MT0iMjYuOTg0NCIgeTI9IjI2Ljk4NDQiLz48dGV4dCBmaWxsPSIjMDAwMDAwIiBmb250LWZhbWlseT0ic2Fucy1zZXJpZiIgZm9udC1zaXplPSIxNCIgZm9udC13ZWlnaHQ9ImJvbGQiIGxlbmd0aEFkanVzdD0ic3BhY2luZyIgdGV4dExlbmd0aD0iOTIiIHg9IjEwIiB5PSIyMS4yMzQ0Ij5Db2JhbHQgU3lzdGVtPC90ZXh0PjwvZz48IS0tY2x1c3RlciBBcHBsaWNhdGlvbnMgKEpTKS0tPjxnIGlkPSJjbHVzdGVyX0FwcGxpY2F0aW9ucyAoSlMpIj48cGF0aCBkPSJNMTk5LjUsNDcgTDMyMi41LDQ3IEEzLjc1LDMuNzUgMCAwIDEgMzI1LDQ5LjUgTDMzMiw2Ny45ODQ0IEwzMzIuNSw2Ny45ODQ0IEEyLjUsMi41IDAgMCAxIDMzNSw3MC40ODQ0IEwzMzUsMTM4LjUgQTIuNSwyLjUgMCAwIDEgMzMyLjUsMTQxIEwxOTkuNSwxNDEgQTIuNSwyLjUgMCAwIDEgMTk3LDEzOC41IEwxOTcsNDkuNSBBMi41LDIuNSAwIDAgMSAxOTkuNSw0NyAiIGZpbGw9Im5vbmUiIHN0eWxlPSJzdHJva2U6IzAwMDAwMDtzdHJva2Utd2lkdGg6MS41OyIvPjxsaW5lIHN0eWxlPSJzdHJva2U6IzAwMDAwMDtzdHJva2Utd2lkdGg6MS41OyIgeDE9IjE5NyIgeDI9IjMzMiIgeTE9IjY3Ljk4NDQiIHkyPSI2Ny45ODQ0Ii8+PHRleHQgZmlsbD0iIzAwMDAwMCIgZm9udC1mYW1pbHk9InNhbnMtc2VyaWYiIGZvbnQtc2l6ZT0iMTQiIGZvbnQtd2VpZ2h0PSJib2xkIiBsZW5ndGhBZGp1c3Q9InNwYWNpbmciIHRleHRMZW5ndGg9IjEyMiIgeD0iMjAxIiB5PSI2Mi4yMzQ0Ij5BcHBsaWNhdGlvbnMgKEpTKTwvdGV4dD48L2c+PCEtLWNsdXN0ZXIgQXBwbGljYXRpb24gRnJhbWV3b3JrLS0+PGcgaWQ9ImNsdXN0ZXJfQXBwbGljYXRpb24gRnJhbWV3b3JrIj48cGF0aCBkPSJNNzcuNSwxODggTDIyNy41LDE4OCBBMy43NSwzLjc1IDAgMCAxIDIzMCwxOTAuNSBMMjM3LDIwOC45ODQ0IEw0NzYuNSwyMDguOTg0NCBBMi41LDIuNSAwIDAgMSA0NzksMjExLjQ4NDQgTDQ3OSwyNzkuNSBBMi41LDIuNSAwIDAgMSA0NzYuNSwyODIgTDc3LjUsMjgyIEEyLjUsMi41IDAgMCAxIDc1LDI3OS41IEw3NSwxOTAuNSBBMi41LDIuNSAwIDAgMSA3Ny41LDE4OCAiIGZpbGw9Im5vbmUiIHN0eWxlPSJzdHJva2U6IzAwMDAwMDtzdHJva2Utd2lkdGg6MS41OyIvPjxsaW5lIHN0eWxlPSJzdHJva2U6IzAwMDAwMDtzdHJva2Utd2lkdGg6MS41OyIgeDE9Ijc1IiB4Mj0iMjM3IiB5MT0iMjA4Ljk4NDQiIHkyPSIyMDguOTg0NCIvPjx0ZXh0IGZpbGw9IiMwMDAwMDAiIGZvbnQtZmFtaWx5PSJzYW5zLXNlcmlmIiBmb250LXNpemU9IjE0IiBmb250LXdlaWdodD0iYm9sZCIgbGVuZ3RoQWRqdXN0PSJzcGFjaW5nIiB0ZXh0TGVuZ3RoPSIxNDkiIHg9Ijc5IiB5PSIyMDMuMjM0NCI+QXBwbGljYXRpb24gRnJhbWV3b3JrPC90ZXh0PjwvZz48IS0tY2x1c3RlciBMaWJyYXJpZXMgJiBDb2JhbHQgUnVudGltZS0tPjxnIGlkPSJjbHVzdGVyX0xpYnJhcmllcyAmYW1wOyBDb2JhbHQgUnVudGltZSI+PHBhdGggZD0iTTMyLjUsMzI5IEwyMTYuNSwzMjkgQTMuNzUsMy43NSAwIDAgMSAyMTksMzMxLjUgTDIyNiwzNDkuOTg0NCBMNjI1LjUsMzQ5Ljk4NDQgQTIuNSwyLjUgMCAwIDEgNjI4LDM1Mi40ODQ0IEw2MjgsNjYwLjUgQTIuNSwyLjUgMCAwIDEgNjI1LjUsNjYzIEwzMi41LDY2MyBBMi41LDIuNSAwIDAgMSAzMCw2NjAuNSBMMzAsMzMxLjUgQTIuNSwyLjUgMCAwIDEgMzIuNSwzMjkgIiBmaWxsPSJub25lIiBzdHlsZT0ic3Ryb2tlOiMwMDAwMDA7c3Ryb2tlLXdpZHRoOjEuNTsiLz48bGluZSBzdHlsZT0ic3Ryb2tlOiMwMDAwMDA7c3Ryb2tlLXdpZHRoOjEuNTsiIHgxPSIzMCIgeDI9IjIyNiIgeTE9IjM0OS45ODQ0IiB5Mj0iMzQ5Ljk4NDQiLz48dGV4dCBmaWxsPSIjMDAwMDAwIiBmb250LWZhbWlseT0ic2Fucy1zZXJpZiIgZm9udC1zaXplPSIxNCIgZm9udC13ZWlnaHQ9ImJvbGQiIGxlbmd0aEFkanVzdD0ic3BhY2luZyIgdGV4dExlbmd0aD0iMTgzIiB4PSIzNCIgeT0iMzQ0LjIzNDQiPkxpYnJhcmllcyAmYW1wOyBDb2JhbHQgUnVudGltZTwvdGV4dD48L2c+PCEtLWNsdXN0ZXIgTGludXggS2VybmVsIChEZXZpY2UtU3BlY2lmaWMgSW1wbGVtZW50YXRpb25zKS0tPjxnIGlkPSJjbHVzdGVyX0xpbnV4IEtlcm5lbCAoRGV2aWNlLVNwZWNpZmljIEltcGxlbWVudGF0aW9ucykiPjxwYXRoIGQ9Ik00MS41LDcxMCBMMzY4LjUsNzEwIEEzLjc1LDMuNzUgMCAwIDEgMzcxLDcxMi41IEwzNzgsNzMwLjk4NDQgTDU4MC41LDczMC45ODQ0IEEyLjUsMi41IDAgMCAxIDU4Myw3MzMuNDg0NCBMNTgzLDgwMS41IEEyLjUsMi41IDAgMCAxIDU4MC41LDgwNCBMNDEuNSw4MDQgQTIuNSwyLjUgMCAwIDEgMzksODAxLjUgTDM5LDcxMi41IEEyLjUsMi41IDAgMCAxIDQxLjUsNzEwICIgZmlsbD0ibm9uZSIgc3R5bGU9InN0cm9rZTojMDAwMDAwO3N0cm9rZS13aWR0aDoxLjU7Ii8+PGxpbmUgc3R5bGU9InN0cm9rZTojMDAwMDAwO3N0cm9rZS13aWR0aDoxLjU7IiB4MT0iMzkiIHgyPSIzNzgiIHkxPSI3MzAuOTg0NCIgeTI9IjczMC45ODQ0Ii8+PHRleHQgZmlsbD0iIzAwMDAwMCIgZm9udC1mYW1pbHk9InNhbnMtc2VyaWYiIGZvbnQtc2l6ZT0iMTQiIGZvbnQtd2VpZ2h0PSJib2xkIiBsZW5ndGhBZGp1c3Q9InNwYWNpbmciIHRleHRMZW5ndGg9IjMyNiIgeD0iNDMiIHk9IjcyNS4yMzQ0Ij5MaW51eCBLZXJuZWwgKERldmljZS1TcGVjaWZpYyBJbXBsZW1lbnRhdGlvbnMpPC90ZXh0PjwvZz48IS0tZW50aXR5IEFwcHMtLT48ZyBpZD0iZWxlbV9BcHBzIj48cmVjdCBmaWxsPSIjRjFGMUYxIiBoZWlnaHQ9IjQ0Ljk4NDQiIHJ4PSIyLjUiIHJ5PSIyLjUiIHN0eWxlPSJzdHJva2U6IzE4MTgxODtzdHJva2Utd2lkdGg6MC41OyIgd2lkdGg9Ijk2IiB4PSIyMTgiIHk9IjgwIi8+PHJlY3QgZmlsbD0iI0YxRjFGMSIgaGVpZ2h0PSIxMCIgc3R5bGU9InN0cm9rZTojMTgxODE4O3N0cm9rZS13aWR0aDowLjU7IiB3aWR0aD0iMTUiIHg9IjI5NCIgeT0iODUiLz48cmVjdCBmaWxsPSIjRjFGMUYxIiBoZWlnaHQ9IjIiIHN0eWxlPSJzdHJva2U6IzE4MTgxODtzdHJva2Utd2lkdGg6MC41OyIgd2lkdGg9IjQiIHg9IjI5MiIgeT0iODciLz48cmVjdCBmaWxsPSIjRjFGMUYxIiBoZWlnaHQ9IjIiIHN0eWxlPSJzdHJva2U6IzE4MTgxODtzdHJva2Utd2lkdGg6MC41OyIgd2lkdGg9IjQiIHg9IjI5MiIgeT0iOTEiLz48dGV4dCBmaWxsPSIjMDAwMDAwIiBmb250LWZhbWlseT0ic2Fucy1zZXJpZiIgZm9udC1zaXplPSIxNCIgbGVuZ3RoQWRqdXN0PSJzcGFjaW5nIiB0ZXh0TGVuZ3RoPSI1NiIgeD0iMjMzIiB5PSIxMTMuMjM0NCI+V2ViIEFwcHM8L3RleHQ+PC9nPjwhLS1lbnRpdHkgRE9NX0FQSS0tPjxnIGlkPSJlbGVtX0RPTV9BUEkiPjxyZWN0IGZpbGw9IiNGMUYxRjEiIGhlaWdodD0iNDQuOTg0NCIgcng9IjIuNSIgcnk9IjIuNSIgc3R5bGU9InN0cm9rZTojMTgxODE4O3N0cm9rZS13aWR0aDowLjU7IiB3aWR0aD0iODkiIHg9IjkwLjUiIHk9IjIyMSIvPjxyZWN0IGZpbGw9IiNGMUYxRjEiIGhlaWdodD0iMTAiIHN0eWxlPSJzdHJva2U6IzE4MTgxODtzdHJva2Utd2lkdGg6MC41OyIgd2lkdGg9IjE1IiB4PSIxNTkuNSIgeT0iMjI2Ii8+PHJlY3QgZmlsbD0iI0YxRjFGMSIgaGVpZ2h0PSIyIiBzdHlsZT0ic3Ryb2tlOiMxODE4MTg7c3Ryb2tlLXdpZHRoOjAuNTsiIHdpZHRoPSI0IiB4PSIxNTcuNSIgeT0iMjI4Ii8+PHJlY3QgZmlsbD0iI0YxRjFGMSIgaGVpZ2h0PSIyIiBzdHlsZT0ic3Ryb2tlOiMxODE4MTg7c3Ryb2tlLXdpZHRoOjAuNTsiIHdpZHRoPSI0IiB4PSIxNTcuNSIgeT0iMjMyIi8+PHRleHQgZmlsbD0iIzAwMDAwMCIgZm9udC1mYW1pbHk9InNhbnMtc2VyaWYiIGZvbnQtc2l6ZT0iMTQiIGxlbmd0aEFkanVzdD0ic3BhY2luZyIgdGV4dExlbmd0aD0iNDkiIHg9IjEwNS41IiB5PSIyNTQuMjM0NCI+RE9NIEFQSTwvdGV4dD48L2c+PCEtLWVudGl0eSBDU1NPTV9BUEktLT48ZyBpZD0iZWxlbV9DU1NPTV9BUEkiPjxyZWN0IGZpbGw9IiNGMUYxRjEiIGhlaWdodD0iNDQuOTg0NCIgcng9IjIuNSIgcnk9IjIuNSIgc3R5bGU9InN0cm9rZTojMTgxODE4O3N0cm9rZS13aWR0aDowLjU7IiB3aWR0aD0iMTAzIiB4PSIyMTQuNSIgeT0iMjIxIi8+PHJlY3QgZmlsbD0iI0YxRjFGMSIgaGVpZ2h0PSIxMCIgc3R5bGU9InN0cm9rZTojMTgxODE4O3N0cm9rZS13aWR0aDowLjU7IiB3aWR0aD0iMTUiIHg9IjI5Ny41IiB5PSIyMjYiLz48cmVjdCBmaWxsPSIjRjFGMUYxIiBoZWlnaHQ9IjIiIHN0eWxlPSJzdHJva2U6IzE4MTgxODtzdHJva2Utd2lkdGg6MC41OyIgd2lkdGg9IjQiIHg9IjI5NS41IiB5PSIyMjgiLz48cmVjdCBmaWxsPSIjRjFGMUYxIiBoZWlnaHQ9IjIiIHN0eWxlPSJzdHJva2U6IzE4MTgxODtzdHJva2Utd2lkdGg6MC41OyIgd2lkdGg9IjQiIHg9IjI5NS41IiB5PSIyMzIiLz48dGV4dCBmaWxsPSIjMDAwMDAwIiBmb250LWZhbWlseT0ic2Fucy1zZXJpZiIgZm9udC1zaXplPSIxNCIgbGVuZ3RoQWRqdXN0PSJzcGFjaW5nIiB0ZXh0TGVuZ3RoPSI2MyIgeD0iMjI5LjUiIHk9IjI1NC4yMzQ0Ij5DU1NPTSBBUEk8L3RleHQ+PC9nPjwhLS1lbnRpdHkgSFRNTDVfQVBJcy0tPjxnIGlkPSJlbGVtX0hUTUw1X0FQSXMiPjxyZWN0IGZpbGw9IiNGMUYxRjEiIGhlaWdodD0iNDQuOTg0NCIgcng9IjIuNSIgcnk9IjIuNSIgc3R5bGU9InN0cm9rZTojMTgxODE4O3N0cm9rZS13aWR0aDowLjU7IiB3aWR0aD0iMTEwIiB4PSIzNTMiIHk9IjIyMSIvPjxyZWN0IGZpbGw9IiNGMUYxRjEiIGhlaWdodD0iMTAiIHN0eWxlPSJzdHJva2U6IzE4MTgxODtzdHJva2Utd2lkdGg6MC41OyIgd2lkdGg9IjE1IiB4PSI0NDMiIHk9IjIyNiIvPjxyZWN0IGZpbGw9IiNGMUYxRjEiIGhlaWdodD0iMiIgc3R5bGU9InN0cm9rZTojMTgxODE4O3N0cm9rZS13aWR0aDowLjU7IiB3aWR0aD0iNCIgeD0iNDQxIiB5PSIyMjgiLz48cmVjdCBmaWxsPSIjRjFGMUYxIiBoZWlnaHQ9IjIiIHN0eWxlPSJzdHJva2U6IzE4MTgxODtzdHJva2Utd2lkdGg6MC41OyIgd2lkdGg9IjQiIHg9IjQ0MSIgeT0iMjMyIi8+PHRleHQgZmlsbD0iIzAwMDAwMCIgZm9udC1mYW1pbHk9InNhbnMtc2VyaWYiIGZvbnQtc2l6ZT0iMTQiIGxlbmd0aEFkanVzdD0ic3BhY2luZyIgdGV4dExlbmd0aD0iNzAiIHg9IjM2OCIgeT0iMjU0LjIzNDQiPkhUTUw1IEFQSXM8L3RleHQ+PC9nPjwhLS1lbnRpdHkgTmV0LS0+PGcgaWQ9ImVsZW1fTmV0Ij48cmVjdCBmaWxsPSIjRjFGMUYxIiBoZWlnaHQ9IjQ0Ljk4NDQiIHJ4PSIyLjUiIHJ5PSIyLjUiIHN0eWxlPSJzdHJva2U6IzE4MTgxODtzdHJva2Utd2lkdGg6MC41OyIgd2lkdGg9IjE1MyIgeD0iNDYuNSIgeT0iNDgyIi8+PHJlY3QgZmlsbD0iI0YxRjFGMSIgaGVpZ2h0PSIxMCIgc3R5bGU9InN0cm9rZTojMTgxODE4O3N0cm9rZS13aWR0aDowLjU7IiB3aWR0aD0iMTUiIHg9IjE3OS41IiB5PSI0ODciLz48cmVjdCBmaWxsPSIjRjFGMUYxIiBoZWlnaHQ9IjIiIHN0eWxlPSJzdHJva2U6IzE4MTgxODtzdHJva2Utd2lkdGg6MC41OyIgd2lkdGg9IjQiIHg9IjE3Ny41IiB5PSI0ODkiLz48cmVjdCBmaWxsPSIjRjFGMUYxIiBoZWlnaHQ9IjIiIHN0eWxlPSJzdHJva2U6IzE4MTgxODtzdHJva2Utd2lkdGg6MC41OyIgd2lkdGg9IjQiIHg9IjE3Ny41IiB5PSI0OTMiLz48dGV4dCBmaWxsPSIjMDAwMDAwIiBmb250LWZhbWlseT0ic2Fucy1zZXJpZiIgZm9udC1zaXplPSIxNCIgbGVuZ3RoQWRqdXN0PSJzcGFjaW5nIiB0ZXh0TGVuZ3RoPSIxMTMiIHg9IjYxLjUiIHk9IjUxNS4yMzQ0Ij5OZXR3b3JraW5nIFN0YWNrPC90ZXh0PjwvZz48IS0tZW50aXR5IFJlbmRlcmluZyBFbmdpbmUtLT48ZyBpZD0iZWxlbV9SZW5kZXJpbmcgRW5naW5lIj48cmVjdCBmaWxsPSIjRjFGMUYxIiBoZWlnaHQ9IjQ0Ljk4NDQiIHJ4PSIyLjUiIHJ5PSIyLjUiIHN0eWxlPSJzdHJva2U6IzE4MTgxODtzdHJva2Utd2lkdGg6MC41OyIgd2lkdGg9IjE1MiIgeD0iMjM1IiB5PSI0ODIiLz48cmVjdCBmaWxsPSIjRjFGMUYxIiBoZWlnaHQ9IjEwIiBzdHlsZT0ic3Ryb2tlOiMxODE4MTg7c3Ryb2tlLXdpZHRoOjAuNTsiIHdpZHRoPSIxNSIgeD0iMzY3IiB5PSI0ODciLz48cmVjdCBmaWxsPSIjRjFGMUYxIiBoZWlnaHQ9IjIiIHN0eWxlPSJzdHJva2U6IzE4MTgxODtzdHJva2Utd2lkdGg6MC41OyIgd2lkdGg9IjQiIHg9IjM2NSIgeT0iNDg5Ii8+PHJlY3QgZmlsbD0iI0YxRjFGMSIgaGVpZ2h0PSIyIiBzdHlsZT0ic3Ryb2tlOiMxODE4MTg7c3Ryb2tlLXdpZHRoOjAuNTsiIHdpZHRoPSI0IiB4PSIzNjUiIHk9IjQ5MyIvPjx0ZXh0IGZpbGw9IiMwMDAwMDAiIGZvbnQtZmFtaWx5PSJzYW5zLXNlcmlmIiBmb250LXNpemU9IjE0IiBsZW5ndGhBZGp1c3Q9InNwYWNpbmciIHRleHRMZW5ndGg9IjExMiIgeD0iMjUwIiB5PSI1MTUuMjM0NCI+UmVuZGVyaW5nIEVuZ2luZTwvdGV4dD48L2c+PCEtLWVudGl0eSBQQS0tPjxnIGlkPSJlbGVtX1BBIj48cmVjdCBmaWxsPSIjRjFGMUYxIiBoZWlnaHQ9IjQ0Ljk4NDQiIHJ4PSIyLjUiIHJ5PSIyLjUiIHN0eWxlPSJzdHJva2U6IzE4MTgxODtzdHJva2Utd2lkdGg6MC41OyIgd2lkdGg9IjE4MSIgeD0iMjIwLjUiIHk9IjYwMiIvPjxyZWN0IGZpbGw9IiNGMUYxRjEiIGhlaWdodD0iMTAiIHN0eWxlPSJzdHJva2U6IzE4MTgxODtzdHJva2Utd2lkdGg6MC41OyIgd2lkdGg9IjE1IiB4PSIzODEuNSIgeT0iNjA3Ii8+PHJlY3QgZmlsbD0iI0YxRjFGMSIgaGVpZ2h0PSIyIiBzdHlsZT0ic3Ryb2tlOiMxODE4MTg7c3Ryb2tlLXdpZHRoOjAuNTsiIHdpZHRoPSI0IiB4PSIzNzkuNSIgeT0iNjA5Ii8+PHJlY3QgZmlsbD0iI0YxRjFGMSIgaGVpZ2h0PSIyIiBzdHlsZT0ic3Ryb2tlOiMxODE4MTg7c3Ryb2tlLXdpZHRoOjAuNTsiIHdpZHRoPSI0IiB4PSIzNzkuNSIgeT0iNjEzIi8+PHRleHQgZmlsbD0iIzAwMDAwMCIgZm9udC1mYW1pbHk9InNhbnMtc2VyaWYiIGZvbnQtc2l6ZT0iMTQiIGxlbmd0aEFkanVzdD0ic3BhY2luZyIgdGV4dExlbmd0aD0iMTQxIiB4PSIyMzUuNSIgeT0iNjM1LjIzNDQiPlBsYXRmb3JtIEFic3RyYWN0aW9uPC90ZXh0PjwvZz48IS0tZW50aXR5IExpZmVjeWNsZSBNYW5hZ2VtZW50LS0+PGcgaWQ9ImVsZW1fTGlmZWN5Y2xlIE1hbmFnZW1lbnQiPjxyZWN0IGZpbGw9IiNGMUYxRjEiIGhlaWdodD0iNDQuOTg0NCIgcng9IjIuNSIgcnk9IjIuNSIgc3R5bGU9InN0cm9rZTojMTgxODE4O3N0cm9rZS13aWR0aDowLjU7IiB3aWR0aD0iMTgxIiB4PSI0MjMuNSIgeT0iMzYyIi8+PHJlY3QgZmlsbD0iI0YxRjFGMSIgaGVpZ2h0PSIxMCIgc3R5bGU9InN0cm9rZTojMTgxODE4O3N0cm9rZS13aWR0aDowLjU7IiB3aWR0aD0iMTUiIHg9IjU4NC41IiB5PSIzNjciLz48cmVjdCBmaWxsPSIjRjFGMUYxIiBoZWlnaHQ9IjIiIHN0eWxlPSJzdHJva2U6IzE4MTgxODtzdHJva2Utd2lkdGg6MC41OyIgd2lkdGg9IjQiIHg9IjU4Mi41IiB5PSIzNjkiLz48cmVjdCBmaWxsPSIjRjFGMUYxIiBoZWlnaHQ9IjIiIHN0eWxlPSJzdHJva2U6IzE4MTgxODtzdHJva2Utd2lkdGg6MC41OyIgd2lkdGg9IjQiIHg9IjU4Mi41IiB5PSIzNzMiLz48dGV4dCBmaWxsPSIjMDAwMDAwIiBmb250LWZhbWlseT0ic2Fucy1zZXJpZiIgZm9udC1zaXplPSIxNCIgbGVuZ3RoQWRqdXN0PSJzcGFjaW5nIiB0ZXh0TGVuZ3RoPSIxNDEiIHg9IjQzOC41IiB5PSIzOTUuMjM0NCI+TGlmZWN5Y2xlIE1hbmFnZW1lbnQ8L3RleHQ+PC9nPjwhLS1lbnRpdHkgTWVkaWEgUGxheWJhY2stLT48ZyBpZD0iZWxlbV9NZWRpYSBQbGF5YmFjayI+PHJlY3QgZmlsbD0iI0YxRjFGMSIgaGVpZ2h0PSI0NC45ODQ0IiByeD0iMi41IiByeT0iMi41IiBzdHlsZT0ic3Ryb2tlOiMxODE4MTg7c3Ryb2tlLXdpZHRoOjAuNTsiIHdpZHRoPSIxMzgiIHg9IjQyMiIgeT0iNDgyIi8+PHJlY3QgZmlsbD0iI0YxRjFGMSIgaGVpZ2h0PSIxMCIgc3R5bGU9InN0cm9rZTojMTgxODE4O3N0cm9rZS13aWR0aDowLjU7IiB3aWR0aD0iMTUiIHg9IjU0MCIgeT0iNDg3Ii8+PHJlY3QgZmlsbD0iI0YxRjFGMSIgaGVpZ2h0PSIyIiBzdHlsZT0ic3Ryb2tlOiMxODE4MTg7c3Ryb2tlLXdpZHRoOjAuNTsiIHdpZHRoPSI0IiB4PSI1MzgiIHk9IjQ4OSIvPjxyZWN0IGZpbGw9IiNGMUYxRjEiIGhlaWdodD0iMiIgc3R5bGU9InN0cm9rZTojMTgxODE4O3N0cm9rZS13aWR0aDowLjU7IiB3aWR0aD0iNCIgeD0iNTM4IiB5PSI0OTMiLz48dGV4dCBmaWxsPSIjMDAwMDAwIiBmb250LWZhbWlseT0ic2Fucy1zZXJpZiIgZm9udC1zaXplPSIxNCIgbGVuZ3RoQWRqdXN0PSJzcGFjaW5nIiB0ZXh0TGVuZ3RoPSI5OCIgeD0iNDM3IiB5PSI1MTUuMjM0NCI+TWVkaWEgUGxheWJhY2s8L3RleHQ+PC9nPjwhLS1lbnRpdHkgSlNfRW5naW5lLS0+PGcgaWQ9ImVsZW1fSlNfRW5naW5lIj48cmVjdCBmaWxsPSIjRjFGMUYxIiBoZWlnaHQ9IjQ0Ljk4NDQiIHJ4PSIyLjUiIHJ5PSIyLjUiIHN0eWxlPSJzdHJva2U6IzE4MTgxODtzdHJva2Utd2lkdGg6MC41OyIgd2lkdGg9IjIzMCIgeD0iMTUxIiB5PSIzNjIiLz48cmVjdCBmaWxsPSIjRjFGMUYxIiBoZWlnaHQ9IjEwIiBzdHlsZT0ic3Ryb2tlOiMxODE4MTg7c3Ryb2tlLXdpZHRoOjAuNTsiIHdpZHRoPSIxNSIgeD0iMzYxIiB5PSIzNjciLz48cmVjdCBmaWxsPSIjRjFGMUYxIiBoZWlnaHQ9IjIiIHN0eWxlPSJzdHJva2U6IzE4MTgxODtzdHJva2Utd2lkdGg6MC41OyIgd2lkdGg9IjQiIHg9IjM1OSIgeT0iMzY5Ii8+PHJlY3QgZmlsbD0iI0YxRjFGMSIgaGVpZ2h0PSIyIiBzdHlsZT0ic3Ryb2tlOiMxODE4MTg7c3Ryb2tlLXdpZHRoOjAuNTsiIHdpZHRoPSI0IiB4PSIzNTkiIHk9IjM3MyIvPjx0ZXh0IGZpbGw9IiMwMDAwMDAiIGZvbnQtZmFtaWx5PSJzYW5zLXNlcmlmIiBmb250LXNpemU9IjE0IiBsZW5ndGhBZGp1c3Q9InNwYWNpbmciIHRleHRMZW5ndGg9IjE5MCIgeD0iMTY2IiB5PSIzOTUuMjM0NCI+SmF2YVNjcmlwdCBFeGVjdXRpb24gRW5naW5lPC90ZXh0PjwvZz48IS0tZW50aXR5IE1lZGlhRGVjb2RpbmctLT48ZyBpZD0iZWxlbV9NZWRpYURlY29kaW5nIj48cmVjdCBmaWxsPSIjRjFGMUYxIiBoZWlnaHQ9IjQ0Ljk4NDQiIHJ4PSIyLjUiIHJ5PSIyLjUiIHN0eWxlPSJzdHJva2U6IzE4MTgxODtzdHJva2Utd2lkdGg6MC41OyIgd2lkdGg9IjEzOCIgeD0iNTUiIHk9Ijc0MyIvPjxyZWN0IGZpbGw9IiNGMUYxRjEiIGhlaWdodD0iMTAiIHN0eWxlPSJzdHJva2U6IzE4MTgxODtzdHJva2Utd2lkdGg6MC41OyIgd2lkdGg9IjE1IiB4PSIxNzMiIHk9Ijc0OCIvPjxyZWN0IGZpbGw9IiNGMUYxRjEiIGhlaWdodD0iMiIgc3R5bGU9InN0cm9rZTojMTgxODE4O3N0cm9rZS13aWR0aDowLjU7IiB3aWR0aD0iNCIgeD0iMTcxIiB5PSI3NTAiLz48cmVjdCBmaWxsPSIjRjFGMUYxIiBoZWlnaHQ9IjIiIHN0eWxlPSJzdHJva2U6IzE4MTgxODtzdHJva2Utd2lkdGg6MC41OyIgd2lkdGg9IjQiIHg9IjE3MSIgeT0iNzU0Ii8+PHRleHQgZmlsbD0iIzAwMDAwMCIgZm9udC1mYW1pbHk9InNhbnMtc2VyaWYiIGZvbnQtc2l6ZT0iMTQiIGxlbmd0aEFkanVzdD0ic3BhY2luZyIgdGV4dExlbmd0aD0iOTgiIHg9IjcwIiB5PSI3NzYuMjM0NCI+TWVkaWEgRGVjb2Rpbmc8L3RleHQ+PC9nPjwhLS1lbnRpdHkgR3JhcGhpY3NSZW5kZXJpbmctLT48ZyBpZD0iZWxlbV9HcmFwaGljc1JlbmRlcmluZyI+PHJlY3QgZmlsbD0iI0YxRjFGMSIgaGVpZ2h0PSI0NC45ODQ0IiByeD0iMi41IiByeT0iMi41IiBzdHlsZT0ic3Ryb2tlOiMxODE4MTg7c3Ryb2tlLXdpZHRoOjAuNTsiIHdpZHRoPSIxNjYiIHg9IjIyOCIgeT0iNzQzIi8+PHJlY3QgZmlsbD0iI0YxRjFGMSIgaGVpZ2h0PSIxMCIgc3R5bGU9InN0cm9rZTojMTgxODE4O3N0cm9rZS13aWR0aDowLjU7IiB3aWR0aD0iMTUiIHg9IjM3NCIgeT0iNzQ4Ii8+PHJlY3QgZmlsbD0iI0YxRjFGMSIgaGVpZ2h0PSIyIiBzdHlsZT0ic3Ryb2tlOiMxODE4MTg7c3Ryb2tlLXdpZHRoOjAuNTsiIHdpZHRoPSI0IiB4PSIzNzIiIHk9Ijc1MCIvPjxyZWN0IGZpbGw9IiNGMUYxRjEiIGhlaWdodD0iMiIgc3R5bGU9InN0cm9rZTojMTgxODE4O3N0cm9rZS13aWR0aDowLjU7IiB3aWR0aD0iNCIgeD0iMzcyIiB5PSI3NTQiLz48dGV4dCBmaWxsPSIjMDAwMDAwIiBmb250LWZhbWlseT0ic2Fucy1zZXJpZiIgZm9udC1zaXplPSIxNCIgbGVuZ3RoQWRqdXN0PSJzcGFjaW5nIiB0ZXh0TGVuZ3RoPSIxMjYiIHg9IjI0MyIgeT0iNzc2LjIzNDQiPkdyYXBoaWNzIFJlbmRlcmluZzwvdGV4dD48L2c+PCEtLWVudGl0eSBJbnB1dEhhbmRsaW5nLS0+PGcgaWQ9ImVsZW1fSW5wdXRIYW5kbGluZyI+PHJlY3QgZmlsbD0iI0YxRjFGMSIgaGVpZ2h0PSI0NC45ODQ0IiByeD0iMi41IiByeT0iMi41IiBzdHlsZT0ic3Ryb2tlOiMxODE4MTg7c3Ryb2tlLXdpZHRoOjAuNTsiIHdpZHRoPSIxMzgiIHg9IjQyOSIgeT0iNzQzIi8+PHJlY3QgZmlsbD0iI0YxRjFGMSIgaGVpZ2h0PSIxMCIgc3R5bGU9InN0cm9rZTojMTgxODE4O3N0cm9rZS13aWR0aDowLjU7IiB3aWR0aD0iMTUiIHg9IjU0NyIgeT0iNzQ4Ii8+PHJlY3QgZmlsbD0iI0YxRjFGMSIgaGVpZ2h0PSIyIiBzdHlsZT0ic3Ryb2tlOiMxODE4MTg7c3Ryb2tlLXdpZHRoOjAuNTsiIHdpZHRoPSI0IiB4PSI1NDUiIHk9Ijc1MCIvPjxyZWN0IGZpbGw9IiNGMUYxRjEiIGhlaWdodD0iMiIgc3R5bGU9InN0cm9rZTojMTgxODE4O3N0cm9rZS13aWR0aDowLjU7IiB3aWR0aD0iNCIgeD0iNTQ1IiB5PSI3NTQiLz48dGV4dCBmaWxsPSIjMDAwMDAwIiBmb250LWZhbWlseT0ic2Fucy1zZXJpZiIgZm9udC1zaXplPSIxNCIgbGVuZ3RoQWRqdXN0PSJzcGFjaW5nIiB0ZXh0TGVuZ3RoPSI5OCIgeD0iNDQ0IiB5PSI3NzYuMjM0NCI+SW5wdXQgSGFuZGxpbmc8L3RleHQ+PC9nPjwhLS1saW5rIEFwcHMgdG8gRE9NX0FQSS0tPjxnIGlkPSJsaW5rX0FwcHNfRE9NX0FQSSI+PHBhdGggZD0iTTIzMi4yNiwxMjUuMSBDMjE5LjUxLDEzNC4xMiAyMDUuMzYsMTQ1LjI0IDE5NCwxNTcgQzE3Ni42OCwxNzQuOTQgMTYwLjg1LDE5OC40NSAxNDkuOTYsMjE2LjI3ICIgZmlsbD0ibm9uZSIgaWQ9IkFwcHMtdG8tRE9NX0FQSSIgc3R5bGU9InN0cm9rZTojMTgxODE4O3N0cm9rZS13aWR0aDoxLjA7Ii8+PHBvbHlnb24gZmlsbD0iIzE4MTgxOCIgcG9pbnRzPSIxNDcuMywyMjAuNjcsMTU1LjM3NDMsMjE1LjAzMDMsMTQ5Ljg4MywyMTYuMzg4OCwxNDguNTI0NCwyMTAuODk3NSwxNDcuMywyMjAuNjciIHN0eWxlPSJzdHJva2U6IzE4MTgxODtzdHJva2Utd2lkdGg6MS4wOyIvPjx0ZXh0IGZpbGw9IiMwMDAwMDAiIGZvbnQtZmFtaWx5PSJzYW5zLXNlcmlmIiBmb250LXNpemU9IjEzIiBsZW5ndGhBZGp1c3Q9InNwYWNpbmciIHRleHRMZW5ndGg9IjYyIiB4PSIxOTUiIHk9IjE3MC4yODkxIj51c2VzIEFQSXM8L3RleHQ+PC9nPjwhLS1saW5rIEFwcHMgdG8gQ1NTT01fQVBJLS0+PGcgaWQ9ImxpbmtfQXBwc19DU1NPTV9BUEkiPjxwYXRoIGQ9Ik0yNjYsMTI1LjIyIEMyNjYsMTQ5LjcgMjY2LDE4OS41MSAyNjYsMjE1Ljg1ICIgZmlsbD0ibm9uZSIgaWQ9IkFwcHMtdG8tQ1NTT01fQVBJIiBzdHlsZT0ic3Ryb2tlOiMxODE4MTg7c3Ryb2tlLXdpZHRoOjEuMDsiLz48cG9seWdvbiBmaWxsPSIjMTgxODE4IiBwb2ludHM9IjI2NiwyMjAuOTMsMjcwLDIxMS45MywyNjYsMjE1LjkzLDI2MiwyMTEuOTMsMjY2LDIyMC45MyIgc3R5bGU9InN0cm9rZTojMTgxODE4O3N0cm9rZS13aWR0aDoxLjA7Ii8+PHRleHQgZmlsbD0iIzAwMDAwMCIgZm9udC1mYW1pbHk9InNhbnMtc2VyaWYiIGZvbnQtc2l6ZT0iMTMiIGxlbmd0aEFkanVzdD0ic3BhY2luZyIgdGV4dExlbmd0aD0iNjIiIHg9IjI2NyIgeT0iMTcwLjI4OTEiPnVzZXMgQVBJczwvdGV4dD48L2c+PCEtLWxpbmsgQXBwcyB0byBIVE1MNV9BUElzLS0+PGcgaWQ9ImxpbmtfQXBwc19IVE1MNV9BUElzIj48cGF0aCBkPSJNMjk4LjUzLDEyNS4wOCBDMzExLjM5LDEzNC4yNiAzMjUuOTQsMTQ1LjUgMzM4LDE1NyBDMzU3LjE5LDE3NS4zMSAzNzYuMDgsMTk4Ljc5IDM4OS4zOCwyMTYuNTEgIiBmaWxsPSJub25lIiBpZD0iQXBwcy10by1IVE1MNV9BUElzIiBzdHlsZT0ic3Ryb2tlOiMxODE4MTg7c3Ryb2tlLXdpZHRoOjEuMDsiLz48cG9seWdvbiBmaWxsPSIjMTgxODE4IiBwb2ludHM9IjM5Mi42NCwyMjAuODgsMzkwLjQ3ODQsMjExLjI3MTMsMzg5LjY1NiwyMTYuODY4LDM4NC4wNTkzLDIxNi4wNDU3LDM5Mi42NCwyMjAuODgiIHN0eWxlPSJzdHJva2U6IzE4MTgxODtzdHJva2Utd2lkdGg6MS4wOyIvPjx0ZXh0IGZpbGw9IiMwMDAwMDAiIGZvbnQtZmFtaWx5PSJzYW5zLXNlcmlmIiBmb250LXNpemU9IjEzIiBsZW5ndGhBZGp1c3Q9InNwYWNpbmciIHRleHRMZW5ndGg9IjYyIiB4PSIzNTEiIHk9IjE3MC4yODkxIj51c2VzIEFQSXM8L3RleHQ+PC9nPjwhLS1saW5rIERPTV9BUEkgdG8gSlNfRW5naW5lLS0+PGcgaWQ9ImxpbmtfRE9NX0FQSV9KU19FbmdpbmUiPjxwYXRoIGQ9Ik0xMTAuOTcsMjY2LjA3IEM5OC41OCwyNzkuODYgODcuOTcsMjk3LjkyIDk4LDMxMyBDMTEyLjI4LDMzNC40OCAxMzQuNTIsMzQ5LjQzIDE1OC4xOSwzNTkuODMgIiBmaWxsPSJub25lIiBpZD0iRE9NX0FQSS10by1KU19FbmdpbmUiIHN0eWxlPSJzdHJva2U6IzE4MTgxODtzdHJva2Utd2lkdGg6MS4wOyIvPjxwb2x5Z29uIGZpbGw9IiMxODE4MTgiIHBvaW50cz0iMTYyLjk0LDM2MS44NSwxNTYuMjI0NCwzNTQuNjQ1OCwxNTguMzM5MSwzNTkuODkyNSwxNTMuMDkyNCwzNjIuMDA3MiwxNjIuOTQsMzYxLjg1IiBzdHlsZT0ic3Ryb2tlOiMxODE4MTg7c3Ryb2tlLXdpZHRoOjEuMDsiLz48dGV4dCBmaWxsPSIjMDAwMDAwIiBmb250LWZhbWlseT0ic2Fucy1zZXJpZiIgZm9udC1zaXplPSIxMyIgbGVuZ3RoQWRqdXN0PSJzcGFjaW5nIiB0ZXh0TGVuZ3RoPSIxNTQiIHg9Ijk5IiB5PSIzMTEuMjg5MSI+aW1wbGVtZW50cyBpbiBKUyBFbmdpbmU8L3RleHQ+PC9nPjwhLS1saW5rIENTU09NX0FQSSB0byBKU19FbmdpbmUtLT48ZyBpZD0ibGlua19DU1NPTV9BUElfSlNfRW5naW5lIj48cGF0aCBkPSJNMjY0LjUxLDI2Ni4wOSBDMjYzLjkxLDI3NS44NCAyNjMuMjksMjg3LjQ5IDI2MywyOTggQzI2Mi40NSwzMTcuNjQgMjYzLjI3LDMzOS44MiAyNjQuMTksMzU2LjY3ICIgZmlsbD0ibm9uZSIgaWQ9IkNTU09NX0FQSS10by1KU19FbmdpbmUiIHN0eWxlPSJzdHJva2U6IzE4MTgxODtzdHJva2Utd2lkdGg6MS4wOyIvPjxwb2x5Z29uIGZpbGw9IiMxODE4MTgiIHBvaW50cz0iMjY0LjQ4LDM2MS43MSwyNjcuOTU4NSwzNTIuNDk1OSwyNjQuMTkzOSwzNTYuNzE4MiwyNTkuOTcxNiwzNTIuOTUzNiwyNjQuNDgsMzYxLjcxIiBzdHlsZT0ic3Ryb2tlOiMxODE4MTg7c3Ryb2tlLXdpZHRoOjEuMDsiLz48dGV4dCBmaWxsPSIjMDAwMDAwIiBmb250LWZhbWlseT0ic2Fucy1zZXJpZiIgZm9udC1zaXplPSIxMyIgbGVuZ3RoQWRqdXN0PSJzcGFjaW5nIiB0ZXh0TGVuZ3RoPSIxNTQiIHg9IjI2NCIgeT0iMzExLjI4OTEiPmltcGxlbWVudHMgaW4gSlMgRW5naW5lPC90ZXh0PjwvZz48IS0tbGluayBIVE1MNV9BUElzIHRvIEpTX0VuZ2luZS0tPjxnIGlkPSJsaW5rX0hUTUw1X0FQSXNfSlNfRW5naW5lIj48cGF0aCBkPSJNNDIwLjU4LDI2Ni4wNyBDNDI3LjEzLDI4MC4zNiA0MzIuMDYsMjk5IDQyMywzMTMgQzQyMi42MSwzMTMuNjEgMzY0LjY1LDMzOS41NCAzMTkuMjcsMzU5Ljc4ICIgZmlsbD0ibm9uZSIgaWQ9IkhUTUw1X0FQSXMtdG8tSlNfRW5naW5lIiBzdHlsZT0ic3Ryb2tlOiMxODE4MTg7c3Ryb2tlLXdpZHRoOjEuMDsiLz48cG9seWdvbiBmaWxsPSIjMTgxODE4IiBwb2ludHM9IjMxNC42NSwzNjEuODQsMzI0LjQ5ODgsMzYxLjgwODUsMzE5LjIxMjUsMzU5Ljc5NDcsMzIxLjIyNjQsMzU0LjUwODUsMzE0LjY1LDM2MS44NCIgc3R5bGU9InN0cm9rZTojMTgxODE4O3N0cm9rZS13aWR0aDoxLjA7Ii8+PHRleHQgZmlsbD0iIzAwMDAwMCIgZm9udC1mYW1pbHk9InNhbnMtc2VyaWYiIGZvbnQtc2l6ZT0iMTMiIGxlbmd0aEFkanVzdD0ic3BhY2luZyIgdGV4dExlbmd0aD0iMTU0IiB4PSI0MjgiIHk9IjMxMS4yODkxIj5pbXBsZW1lbnRzIGluIEpTIEVuZ2luZTwvdGV4dD48L2c+PCEtLWxpbmsgSlNfRW5naW5lIHRvIE5ldC0tPjxnIGlkPSJsaW5rX0pTX0VuZ2luZV9OZXQiPjxwYXRoIGQ9Ik0xNTAuNzYsNDAyLjk1IEMxMzMuMjMsNDEwLjY0IDExNy4yNiw0MjEuNTUgMTA2LDQzNyBDOTcuNSw0NDguNjcgMTAwLjg1LDQ2NC4xOCAxMDYuNzQsNDc3LjI5ICIgZmlsbD0ibm9uZSIgaWQ9IkpTX0VuZ2luZS10by1OZXQiIHN0eWxlPSJzdHJva2U6IzE4MTgxODtzdHJva2Utd2lkdGg6MS4wOyIvPjxwb2x5Z29uIGZpbGw9IiMxODE4MTgiIHBvaW50cz0iMTA5LDQ4MiwxMDguNjkxMiw0NzIuMTU2LDEwNi44MjcxLDQ3Ny40OTY5LDEwMS40ODYyLDQ3NS42MzI3LDEwOSw0ODIiIHN0eWxlPSJzdHJva2U6IzE4MTgxODtzdHJva2Utd2lkdGg6MS4wOyIvPjx0ZXh0IGZpbGw9IiMwMDAwMDAiIGZvbnQtZmFtaWx5PSJzYW5zLXNlcmlmIiBmb250LXNpemU9IjEzIiBsZW5ndGhBZGp1c3Q9InNwYWNpbmciIHRleHRMZW5ndGg9IjE0MyIgeD0iMTA3IiB5PSI0NTAuMjg5MSI+dXNlcyBOZXR3b3JraW5nIFN0YWNrPC90ZXh0PjwvZz48IS0tbGluayBKU19FbmdpbmUgdG8gUmVuZGVyaW5nIEVuZ2luZS0tPjxnIGlkPSJsaW5rX0pTX0VuZ2luZV9SZW5kZXJpbmcgRW5naW5lIj48cGF0aCBkPSJNMjYwLjY0LDQwNy4yIEMyNTguMzgsNDIwLjU3IDI1Ny40MSw0MzcuODEgMjYzLDQ1MiBDMjY2LjgxLDQ2MS42OCAyNzMuMzksNDcwLjYxIDI4MC40OCw0NzguMjIgIiBmaWxsPSJub25lIiBpZD0iSlNfRW5naW5lLXRvLVJlbmRlcmluZyBFbmdpbmUiIHN0eWxlPSJzdHJva2U6IzE4MTgxODtzdHJva2Utd2lkdGg6MS4wOyIvPjxwb2x5Z29uIGZpbGw9IiMxODE4MTgiIHBvaW50cz0iMjgzLjk5LDQ4MS44NSwyODAuNjIyMiw0NzIuNTk0OSwyODAuNTE5Myw0NzguMjUwOCwyNzQuODYzNCw0NzguMTQ3OSwyODMuOTksNDgxLjg1IiBzdHlsZT0ic3Ryb2tlOiMxODE4MTg7c3Ryb2tlLXdpZHRoOjEuMDsiLz48dGV4dCBmaWxsPSIjMDAwMDAwIiBmb250LWZhbWlseT0ic2Fucy1zZXJpZiIgZm9udC1zaXplPSIxMyIgbGVuZ3RoQWRqdXN0PSJzcGFjaW5nIiB0ZXh0TGVuZ3RoPSIxNDUiIHg9IjI2NCIgeT0iNDUwLjI4OTEiPnVzZXMgUmVuZGVyaW5nIEVuZ2luZTwvdGV4dD48L2c+PCEtLWxpbmsgSlNfRW5naW5lIHRvIE1lZGlhIFBsYXliYWNrLS0+PGcgaWQ9ImxpbmtfSlNfRW5naW5lX01lZGlhIFBsYXliYWNrIj48cGF0aCBkPSJNMzQ1LjYyLDQwNy4wNyBDMzY4LjQ4LDQxNC44NyAzOTIuOTEsNDI0LjgzIDQxNCw0MzcgQzQzMy4zLDQ0OC4xNCA0NTIuMjcsNDY0LjQ1IDQ2Ni41Niw0NzguMTMgIiBmaWxsPSJub25lIiBpZD0iSlNfRW5naW5lLXRvLU1lZGlhIFBsYXliYWNrIiBzdHlsZT0ic3Ryb2tlOiMxODE4MTg7c3Ryb2tlLXdpZHRoOjEuMDsiLz48cG9seWdvbiBmaWxsPSIjMTgxODE4IiBwb2ludHM9IjQ3MC40Niw0ODEuOTEsNDY2Ljc5NDgsNDcyLjc2ODUsNDY2Ljg3NDgsNDc4LjQyNDgsNDYxLjIxODUsNDc4LjUwNDgsNDcwLjQ2LDQ4MS45MSIgc3R5bGU9InN0cm9rZTojMTgxODE4O3N0cm9rZS13aWR0aDoxLjA7Ii8+PHRleHQgZmlsbD0iIzAwMDAwMCIgZm9udC1mYW1pbHk9InNhbnMtc2VyaWYiIGZvbnQtc2l6ZT0iMTMiIGxlbmd0aEFkanVzdD0ic3BhY2luZyIgdGV4dExlbmd0aD0iMTU3IiB4PSI0MzUiIHk9IjQ1MC4yODkxIj5jb250cm9scyBNZWRpYSBQbGF5YmFjazwvdGV4dD48L2c+PCEtLWxpbmsgTmV0IHRvIFBBLS0+PGcgaWQ9ImxpbmtfTmV0X1BBIj48cGF0aCBkPSJNMTU3LjQ4LDUyNy4xNCBDMTg5Ljk1LDU0Ny41MiAyMzguNSw1NzcuOTkgMjcyLjI4LDU5OS4yICIgZmlsbD0ibm9uZSIgaWQ9Ik5ldC10by1QQSIgc3R5bGU9InN0cm9rZTojMTgxODE4O3N0cm9rZS13aWR0aDoxLjA7Ii8+PHBvbHlnb24gZmlsbD0iIzE4MTgxOCIgcG9pbnRzPSIyNzYuNzQsNjAxLjk5LDI3MS4yMzU0LDU5My44MjMsMjcyLjUwMjQsNTk5LjMzNjIsMjY2Ljk4OTMsNjAwLjYwMzIsMjc2Ljc0LDYwMS45OSIgc3R5bGU9InN0cm9rZTojMTgxODE4O3N0cm9rZS13aWR0aDoxLjA7Ii8+PHRleHQgZmlsbD0iIzAwMDAwMCIgZm9udC1mYW1pbHk9InNhbnMtc2VyaWYiIGZvbnQtc2l6ZT0iMTMiIGxlbmd0aEFkanVzdD0ic3BhY2luZyIgdGV4dExlbmd0aD0iNjEiIHg9IjIyOSIgeT0iNTcwLjI4OTEiPnJlbGllcyBvbjwvdGV4dD48L2c+PCEtLWxpbmsgUmVuZGVyaW5nIEVuZ2luZSB0byBQQS0tPjxnIGlkPSJsaW5rX1JlbmRlcmluZyBFbmdpbmVfUEEiPjxwYXRoIGQ9Ik0zMTEsNTI3LjE0IEMzMTEsNTQ2Ljc3IDMxMSw1NzUuNzcgMzExLDU5Ni44MiAiIGZpbGw9Im5vbmUiIGlkPSJSZW5kZXJpbmcgRW5naW5lLXRvLVBBIiBzdHlsZT0ic3Ryb2tlOiMxODE4MTg7c3Ryb2tlLXdpZHRoOjEuMDsiLz48cG9seWdvbiBmaWxsPSIjMTgxODE4IiBwb2ludHM9IjMxMSw2MDEuOTksMzE1LDU5Mi45OSwzMTEsNTk2Ljk5LDMwNyw1OTIuOTksMzExLDYwMS45OSIgc3R5bGU9InN0cm9rZTojMTgxODE4O3N0cm9rZS13aWR0aDoxLjA7Ii8+PHRleHQgZmlsbD0iIzAwMDAwMCIgZm9udC1mYW1pbHk9InNhbnMtc2VyaWYiIGZvbnQtc2l6ZT0iMTMiIGxlbmd0aEFkanVzdD0ic3BhY2luZyIgdGV4dExlbmd0aD0iNjEiIHg9IjMxMiIgeT0iNTcwLjI4OTEiPnJlbGllcyBvbjwvdGV4dD48L2c+PCEtLWxpbmsgTWVkaWEgUGxheWJhY2sgdG8gUEEtLT48ZyBpZD0ibGlua19NZWRpYSBQbGF5YmFja19QQSI+PHBhdGggZD0iTTQ1Ny45OSw1MjcuMTQgQzQyNi45LDU0Ny41MiAzODAuNDIsNTc3Ljk5IDM0OC4wNyw1OTkuMiAiIGZpbGw9Im5vbmUiIGlkPSJNZWRpYSBQbGF5YmFjay10by1QQSIgc3R5bGU9InN0cm9rZTojMTgxODE4O3N0cm9rZS13aWR0aDoxLjA7Ii8+PHBvbHlnb24gZmlsbD0iIzE4MTgxOCIgcG9pbnRzPSIzNDMuODEsNjAxLjk5LDM1My41MzAxLDYwMC40MDI4LDM0Ny45OTIxLDU5OS4yNDk1LDM0OS4xNDU0LDU5My43MTE1LDM0My44MSw2MDEuOTkiIHN0eWxlPSJzdHJva2U6IzE4MTgxODtzdHJva2Utd2lkdGg6MS4wOyIvPjx0ZXh0IGZpbGw9IiMwMDAwMDAiIGZvbnQtZmFtaWx5PSJzYW5zLXNlcmlmIiBmb250LXNpemU9IjEzIiBsZW5ndGhBZGp1c3Q9InNwYWNpbmciIHRleHRMZW5ndGg9IjYxIiB4PSI0MTIiIHk9IjU3MC4yODkxIj5yZWxpZXMgb248L3RleHQ+PC9nPjwhLS1saW5rIFBBIHRvIE1lZGlhRGVjb2RpbmctLT48ZyBpZD0ibGlua19QQV9NZWRpYURlY29kaW5nIj48cGF0aCBkPSJNMjgxLjc4LDY0Ny4yMiBDMjQ4LjAyLDY3Mi4zMSAxOTIuNiw3MTMuNTEgMTU3LjIyLDczOS44ICIgZmlsbD0ibm9uZSIgaWQ9IlBBLXRvLU1lZGlhRGVjb2RpbmciIHN0eWxlPSJzdHJva2U6IzE4MTgxODtzdHJva2Utd2lkdGg6MS4wOyIvPjxwb2x5Z29uIGZpbGw9IiMxODE4MTgiIHBvaW50cz0iMTUzLjAxLDc0Mi45MywxNjIuNjE4Nyw3NDAuNzY4NCwxNTcuMDIyLDczOS45NDYsMTU3Ljg0NDMsNzM0LjM0OTMsMTUzLjAxLDc0Mi45MyIgc3R5bGU9InN0cm9rZTojMTgxODE4O3N0cm9rZS13aWR0aDoxLjA7Ii8+PHRleHQgZmlsbD0iIzAwMDAwMCIgZm9udC1mYW1pbHk9InNhbnMtc2VyaWYiIGZvbnQtc2l6ZT0iMTMiIGxlbmd0aEFkanVzdD0ic3BhY2luZyIgdGV4dExlbmd0aD0iNjEiIHg9IjIzNSIgeT0iNjkyLjI4OTEiPnJlbGllcyBvbjwvdGV4dD48L2c+PCEtLWxpbmsgUEEgdG8gR3JhcGhpY3NSZW5kZXJpbmctLT48ZyBpZD0ibGlua19QQV9HcmFwaGljc1JlbmRlcmluZyI+PHBhdGggZD0iTTMxMSw2NDcuMjIgQzMxMSw2NzEuNyAzMTEsNzExLjUxIDMxMSw3MzcuODUgIiBmaWxsPSJub25lIiBpZD0iUEEtdG8tR3JhcGhpY3NSZW5kZXJpbmciIHN0eWxlPSJzdHJva2U6IzE4MTgxODtzdHJva2Utd2lkdGg6MS4wOyIvPjxwb2x5Z29uIGZpbGw9IiMxODE4MTgiIHBvaW50cz0iMzExLDc0Mi45MywzMTUsNzMzLjkzLDMxMSw3MzcuOTMsMzA3LDczMy45MywzMTEsNzQyLjkzIiBzdHlsZT0ic3Ryb2tlOiMxODE4MTg7c3Ryb2tlLXdpZHRoOjEuMDsiLz48dGV4dCBmaWxsPSIjMDAwMDAwIiBmb250LWZhbWlseT0ic2Fucy1zZXJpZiIgZm9udC1zaXplPSIxMyIgbGVuZ3RoQWRqdXN0PSJzcGFjaW5nIiB0ZXh0TGVuZ3RoPSI2MSIgeD0iMzEyIiB5PSI2OTIuMjg5MSI+cmVsaWVzIG9uPC90ZXh0PjwvZz48IS0tbGluayBQQSB0byBJbnB1dEhhbmRsaW5nLS0+PGcgaWQ9ImxpbmtfUEFfSW5wdXRIYW5kbGluZyI+PHBhdGggZD0iTTM0MC4yMiw2NDcuMjIgQzM3My45OCw2NzIuMzEgNDI5LjQsNzEzLjUxIDQ2NC43OCw3MzkuOCAiIGZpbGw9Im5vbmUiIGlkPSJQQS10by1JbnB1dEhhbmRsaW5nIiBzdHlsZT0ic3Ryb2tlOiMxODE4MTg7c3Ryb2tlLXdpZHRoOjEuMDsiLz48cG9seWdvbiBmaWxsPSIjMTgxODE4IiBwb2ludHM9IjQ2OC45OSw3NDIuOTMsNDY0LjE1NTcsNzM0LjM0OTMsNDY0Ljk3OCw3MzkuOTQ2LDQ1OS4zODEzLDc0MC43Njg0LDQ2OC45OSw3NDIuOTMiIHN0eWxlPSJzdHJva2U6IzE4MTgxODtzdHJva2Utd2lkdGg6MS4wOyIvPjx0ZXh0IGZpbGw9IiMwMDAwMDAiIGZvbnQtZmFtaWx5PSJzYW5zLXNlcmlmIiBmb250LXNpemU9IjEzIiBsZW5ndGhBZGp1c3Q9InNwYWNpbmciIHRleHRMZW5ndGg9IjYxIiB4PSIzOTkiIHk9IjY5Mi4yODkxIj5yZWxpZXMgb248L3RleHQ+PC9nPjwhLS1TUkM9W2JQREZSLThtNENObFY4ZUhYdWVVRUV3NW1xZ2V6MHlLVGI2cEtlLUxPbVBnck40aXNzNkJnZHh0N1BpdVdFREFNcXhFcDYtVTd2Q05wVldSc280Q1ItZ0lJR1Y1bUpnaVhsMG42MDNlczluZ0JHTGRKakpBbWNYSE43aTB3Q1ZoSWpTQWJPRlhDdlAwZDFxMmktNTBtRVROQWQxZE04TF9RX0VNS1Boek5pNXFGR3oyVDd3WFN1aFM1Q0tQNTl2b3NDRVZyVkE3bnV3a21nRmQtandNZVpKQzJCSG0xVXFnZFhoYkg4S1BXeF9HVVVqMnhRMW1mMTM0Z1BYb0p3V3NRM25zZ3RQMmFMSEFoMkxwc3pmS0Myc2pDdXB4dEdJcnpSSjdCaUtNLU81QlgxTEpQQmdZUWJ6blhIbDFXN0dGUE4yTXpYVGlwbWZrWDdQbS11d3kyTXlac2dFQjV5TkJ5SWNwOGpNeW1vQ1FYSDk2Q3ptQlprRDI4blRSbU01VVFIYWk3TEVJSXlaSHNXbnZsUTZUWERqMkFMUElfanVtX0lndVhNd0ZPSVFNa3Nld0RyVXdTVjMwcjRSNmNMMkFiVlpGVjRYWEZGdTlDTUttV1NQSTFEZzRkRmZUbUJ1YUpqNndHME9keE8xcnNvTEFuOHJQNDhld3FFdHpURHF0WGl1U19GVkt1MXBwS25KWXczeURVT19EbkJpVEpIbHpxSkliNHRmX29mYlFqZjdlTWp3WUQtTWR3OWtPVzQ3ZmxyOEFCTktvNWxnV3Z6QnhDWEhYTEY2RFlyMGNJWXRJb3MwVWt1WlR2TXNWX20wMF0tLT48L2c+PC9zdmc+;" vertex="1" parent="1">
            <mxGeometry x="950" y="3140" width="659" height="835" as="geometry" />
          </mxCell>
        </UserObject>
        <UserObject label="" plantUmlData="{&#xa;  &quot;data&quot;: &quot;@startuml\n\npackage \&quot;Android Based Cobalt System\&quot; {\n  \n  package \&quot;Applications (Android Web Apps)\&quot; {\n    component \&quot;Cobalt based Web Apps\&quot; as Apps\n  }\n\n  package \&quot;Application Framework (Android APIs)\&quot; {\n    component \&quot;Android View System\&quot;\n    component \&quot;Android Media APIs\&quot; as Android_Media\n  }\n  \n  package \&quot;Libraries &amp; Cobalt Runtime\&quot; {\n    component \&quot;Networking Stack\&quot;\n    component \&quot;DOM Engine\&quot;\n    component \&quot;JavaScript Execution Engine\&quot;\n    component \&quot;Rendering Engine\&quot;\n  }\n\n  package \&quot;Android Kernel (Hardware Abstraction Layer)\&quot; {\n    component \&quot;Graphics\&quot;\n    component \&quot;Audio\&quot;\n    component \&quot;Binder (IPC)\&quot;\n  }\n  \n  Apps ..&gt; \&quot;Android View System\&quot; : interacts\n  Apps ..&gt; \&quot;Networking Stack\&quot; : interacts\n  Apps ..&gt; \&quot;DOM Engine\&quot; : interacts\n  Apps ..&gt; \&quot;JavaScript Execution Engine\&quot; : interacts\n\n  \&quot;Android View System\&quot; --&gt; \&quot;Graphics\&quot; : displays\n  Android_Media --&gt; \&quot;Audio\&quot; : plays\n  \n  \&quot;Rendering Engine\&quot; --&gt; \&quot;Binder (IPC)\&quot; : communicates\n\n}\n\n@enduml&quot;,&#xa;  &quot;format&quot;: &quot;svg&quot;&#xa;}" id="J6V1U3YTcORKghmEE3JZ-13">
          <mxCell style="shape=image;noLabel=1;verticalAlign=top;aspect=fixed;imageAspect=0;image=data:image/svg+xml,PD94bWwgdmVyc2lvbj0iMS4wIiBlbmNvZGluZz0idXMtYXNjaWkiIHN0YW5kYWxvbmU9Im5vIj8+PHN2ZyB4bWxucz0iaHR0cDovL3d3dy53My5vcmcvMjAwMC9zdmciIHhtbG5zOnhsaW5rPSJodHRwOi8vd3d3LnczLm9yZy8xOTk5L3hsaW5rIiBjb250ZW50U3R5bGVUeXBlPSJ0ZXh0L2NzcyIgaGVpZ2h0PSI0NTRweCIgcHJlc2VydmVBc3BlY3RSYXRpbz0ibm9uZSIgc3R5bGU9IndpZHRoOjEyNzdweDtoZWlnaHQ6NDU0cHg7YmFja2dyb3VuZDojRkZGRkZGOyIgdmVyc2lvbj0iMS4xIiB2aWV3Qm94PSIwIDAgMTI3NyA0NTQiIHdpZHRoPSIxMjc3cHgiIHpvb21BbmRQYW49Im1hZ25pZnkiPjxkZWZzLz48Zz48IS0tY2x1c3RlciBBbmRyb2lkIEJhc2VkIENvYmFsdCBTeXN0ZW0tLT48ZyBpZD0iY2x1c3Rlcl9BbmRyb2lkIEJhc2VkIENvYmFsdCBTeXN0ZW0iPjxwYXRoIGQ9Ik04LjUsNiBMMTk5LjUsNiBBMy43NSwzLjc1IDAgMCAxIDIwMiw4LjUgTDIwOSwyNi45ODQ0IEwxMjY3LjUsMjYuOTg0NCBBMi41LDIuNSAwIDAgMSAxMjcwLDI5LjQ4NDQgTDEyNzAsNDQ0LjUgQTIuNSwyLjUgMCAwIDEgMTI2Ny41LDQ0NyBMOC41LDQ0NyBBMi41LDIuNSAwIDAgMSA2LDQ0NC41IEw2LDguNSBBMi41LDIuNSAwIDAgMSA4LjUsNiAiIGZpbGw9Im5vbmUiIHN0eWxlPSJzdHJva2U6IzAwMDAwMDtzdHJva2Utd2lkdGg6MS41OyIvPjxsaW5lIHN0eWxlPSJzdHJva2U6IzAwMDAwMDtzdHJva2Utd2lkdGg6MS41OyIgeDE9IjYiIHgyPSIyMDkiIHkxPSIyNi45ODQ0IiB5Mj0iMjYuOTg0NCIvPjx0ZXh0IGZpbGw9IiMwMDAwMDAiIGZvbnQtZmFtaWx5PSJzYW5zLXNlcmlmIiBmb250LXNpemU9IjE0IiBmb250LXdlaWdodD0iYm9sZCIgbGVuZ3RoQWRqdXN0PSJzcGFjaW5nIiB0ZXh0TGVuZ3RoPSIxOTAiIHg9IjEwIiB5PSIyMS4yMzQ0Ij5BbmRyb2lkIEJhc2VkIENvYmFsdCBTeXN0ZW08L3RleHQ+PC9nPjwhLS1jbHVzdGVyIEFwcGxpY2F0aW9ucyAoQW5kcm9pZCBXZWIgQXBwcyktLT48ZyBpZD0iY2x1c3Rlcl9BcHBsaWNhdGlvbnMgKEFuZHJvaWQgV2ViIEFwcHMpIj48cGF0aCBkPSJNNzExLjUsNDcgTDkzMS41LDQ3IEEzLjc1LDMuNzUgMCAwIDEgOTM0LDQ5LjUgTDk0MSw2Ny45ODQ0IEw5NDEuNSw2Ny45ODQ0IEEyLjUsMi41IDAgMCAxIDk0NCw3MC40ODQ0IEw5NDQsMTM4LjUgQTIuNSwyLjUgMCAwIDEgOTQxLjUsMTQxIEw3MTEuNSwxNDEgQTIuNSwyLjUgMCAwIDEgNzA5LDEzOC41IEw3MDksNDkuNSBBMi41LDIuNSAwIDAgMSA3MTEuNSw0NyAiIGZpbGw9Im5vbmUiIHN0eWxlPSJzdHJva2U6IzAwMDAwMDtzdHJva2Utd2lkdGg6MS41OyIvPjxsaW5lIHN0eWxlPSJzdHJva2U6IzAwMDAwMDtzdHJva2Utd2lkdGg6MS41OyIgeDE9IjcwOSIgeDI9Ijk0MSIgeTE9IjY3Ljk4NDQiIHkyPSI2Ny45ODQ0Ii8+PHRleHQgZmlsbD0iIzAwMDAwMCIgZm9udC1mYW1pbHk9InNhbnMtc2VyaWYiIGZvbnQtc2l6ZT0iMTQiIGZvbnQtd2VpZ2h0PSJib2xkIiBsZW5ndGhBZGp1c3Q9InNwYWNpbmciIHRleHRMZW5ndGg9IjIxOSIgeD0iNzEzIiB5PSI2Mi4yMzQ0Ij5BcHBsaWNhdGlvbnMgKEFuZHJvaWQgV2ViIEFwcHMpPC90ZXh0PjwvZz48IS0tY2x1c3RlciBBcHBsaWNhdGlvbiBGcmFtZXdvcmsgKEFuZHJvaWQgQVBJcyktLT48ZyBpZD0iY2x1c3Rlcl9BcHBsaWNhdGlvbiBGcmFtZXdvcmsgKEFuZHJvaWQgQVBJcykiPjxwYXRoIGQ9Ik0zMi41LDE4OCBMMjg5LjUsMTg4IEEzLjc1LDMuNzUgMCAwIDEgMjkyLDE5MC41IEwyOTksMjA4Ljk4NDQgTDQzNi41LDIwOC45ODQ0IEEyLjUsMi41IDAgMCAxIDQzOSwyMTEuNDg0NCBMNDM5LDI3OS41IEEyLjUsMi41IDAgMCAxIDQzNi41LDI4MiBMMzIuNSwyODIgQTIuNSwyLjUgMCAwIDEgMzAsMjc5LjUgTDMwLDE5MC41IEEyLjUsMi41IDAgMCAxIDMyLjUsMTg4ICIgZmlsbD0ibm9uZSIgc3R5bGU9InN0cm9rZTojMDAwMDAwO3N0cm9rZS13aWR0aDoxLjU7Ii8+PGxpbmUgc3R5bGU9InN0cm9rZTojMDAwMDAwO3N0cm9rZS13aWR0aDoxLjU7IiB4MT0iMzAiIHgyPSIyOTkiIHkxPSIyMDguOTg0NCIgeTI9IjIwOC45ODQ0Ii8+PHRleHQgZmlsbD0iIzAwMDAwMCIgZm9udC1mYW1pbHk9InNhbnMtc2VyaWYiIGZvbnQtc2l6ZT0iMTQiIGZvbnQtd2VpZ2h0PSJib2xkIiBsZW5ndGhBZGp1c3Q9InNwYWNpbmciIHRleHRMZW5ndGg9IjI1NiIgeD0iMzQiIHk9IjIwMy4yMzQ0Ij5BcHBsaWNhdGlvbiBGcmFtZXdvcmsgKEFuZHJvaWQgQVBJcyk8L3RleHQ+PC9nPjwhLS1jbHVzdGVyIExpYnJhcmllcyAmIENvYmFsdCBSdW50aW1lLS0+PGcgaWQ9ImNsdXN0ZXJfTGlicmFyaWVzICZhbXA7IENvYmFsdCBSdW50aW1lIj48cGF0aCBkPSJNNDY1LjUsMTg4IEw2NDkuNSwxODggQTMuNzUsMy43NSAwIDAgMSA2NTIsMTkwLjUgTDY1OSwyMDguOTg0NCBMMTI0My41LDIwOC45ODQ0IEEyLjUsMi41IDAgMCAxIDEyNDYsMjExLjQ4NDQgTDEyNDYsMjc5LjUgQTIuNSwyLjUgMCAwIDEgMTI0My41LDI4MiBMNDY1LjUsMjgyIEEyLjUsMi41IDAgMCAxIDQ2MywyNzkuNSBMNDYzLDE5MC41IEEyLjUsMi41IDAgMCAxIDQ2NS41LDE4OCAiIGZpbGw9Im5vbmUiIHN0eWxlPSJzdHJva2U6IzAwMDAwMDtzdHJva2Utd2lkdGg6MS41OyIvPjxsaW5lIHN0eWxlPSJzdHJva2U6IzAwMDAwMDtzdHJva2Utd2lkdGg6MS41OyIgeDE9IjQ2MyIgeDI9IjY1OSIgeTE9IjIwOC45ODQ0IiB5Mj0iMjA4Ljk4NDQiLz48dGV4dCBmaWxsPSIjMDAwMDAwIiBmb250LWZhbWlseT0ic2Fucy1zZXJpZiIgZm9udC1zaXplPSIxNCIgZm9udC13ZWlnaHQ9ImJvbGQiIGxlbmd0aEFkanVzdD0ic3BhY2luZyIgdGV4dExlbmd0aD0iMTgzIiB4PSI0NjciIHk9IjIwMy4yMzQ0Ij5MaWJyYXJpZXMgJmFtcDsgQ29iYWx0IFJ1bnRpbWU8L3RleHQ+PC9nPjwhLS1jbHVzdGVyIEFuZHJvaWQgS2VybmVsIChIYXJkd2FyZSBBYnN0cmFjdGlvbiBMYXllciktLT48ZyBpZD0iY2x1c3Rlcl9BbmRyb2lkIEtlcm5lbCAoSGFyZHdhcmUgQWJzdHJhY3Rpb24gTGF5ZXIpIj48cGF0aCBkPSJNMTU3LjUsMzI5IEw0NjIuNSwzMjkgQTMuNzUsMy43NSAwIDAgMSA0NjUsMzMxLjUgTDQ3MiwzNDkuOTg0NCBMNTUyLjUsMzQ5Ljk4NDQgQTIuNSwyLjUgMCAwIDEgNTU1LDM1Mi40ODQ0IEw1NTUsNDIwLjUgQTIuNSwyLjUgMCAwIDEgNTUyLjUsNDIzIEwxNTcuNSw0MjMgQTIuNSwyLjUgMCAwIDEgMTU1LDQyMC41IEwxNTUsMzMxLjUgQTIuNSwyLjUgMCAwIDEgMTU3LjUsMzI5ICIgZmlsbD0ibm9uZSIgc3R5bGU9InN0cm9rZTojMDAwMDAwO3N0cm9rZS13aWR0aDoxLjU7Ii8+PGxpbmUgc3R5bGU9InN0cm9rZTojMDAwMDAwO3N0cm9rZS13aWR0aDoxLjU7IiB4MT0iMTU1IiB4Mj0iNDcyIiB5MT0iMzQ5Ljk4NDQiIHkyPSIzNDkuOTg0NCIvPjx0ZXh0IGZpbGw9IiMwMDAwMDAiIGZvbnQtZmFtaWx5PSJzYW5zLXNlcmlmIiBmb250LXNpemU9IjE0IiBmb250LXdlaWdodD0iYm9sZCIgbGVuZ3RoQWRqdXN0PSJzcGFjaW5nIiB0ZXh0TGVuZ3RoPSIzMDQiIHg9IjE1OSIgeT0iMzQ0LjIzNDQiPkFuZHJvaWQgS2VybmVsIChIYXJkd2FyZSBBYnN0cmFjdGlvbiBMYXllcik8L3RleHQ+PC9nPjwhLS1lbnRpdHkgQXBwcy0tPjxnIGlkPSJlbGVtX0FwcHMiPjxyZWN0IGZpbGw9IiNGMUYxRjEiIGhlaWdodD0iNDQuOTg0NCIgcng9IjIuNSIgcnk9IjIuNSIgc3R5bGU9InN0cm9rZTojMTgxODE4O3N0cm9rZS13aWR0aDowLjU7IiB3aWR0aD0iMTg3IiB4PSI3MzIuNSIgeT0iODAiLz48cmVjdCBmaWxsPSIjRjFGMUYxIiBoZWlnaHQ9IjEwIiBzdHlsZT0ic3Ryb2tlOiMxODE4MTg7c3Ryb2tlLXdpZHRoOjAuNTsiIHdpZHRoPSIxNSIgeD0iODk5LjUiIHk9Ijg1Ii8+PHJlY3QgZmlsbD0iI0YxRjFGMSIgaGVpZ2h0PSIyIiBzdHlsZT0ic3Ryb2tlOiMxODE4MTg7c3Ryb2tlLXdpZHRoOjAuNTsiIHdpZHRoPSI0IiB4PSI4OTcuNSIgeT0iODciLz48cmVjdCBmaWxsPSIjRjFGMUYxIiBoZWlnaHQ9IjIiIHN0eWxlPSJzdHJva2U6IzE4MTgxODtzdHJva2Utd2lkdGg6MC41OyIgd2lkdGg9IjQiIHg9Ijg5Ny41IiB5PSI5MSIvPjx0ZXh0IGZpbGw9IiMwMDAwMDAiIGZvbnQtZmFtaWx5PSJzYW5zLXNlcmlmIiBmb250LXNpemU9IjE0IiBsZW5ndGhBZGp1c3Q9InNwYWNpbmciIHRleHRMZW5ndGg9IjE0NyIgeD0iNzQ3LjUiIHk9IjExMy4yMzQ0Ij5Db2JhbHQgYmFzZWQgV2ViIEFwcHM8L3RleHQ+PC9nPjwhLS1lbnRpdHkgQW5kcm9pZCBWaWV3IFN5c3RlbS0tPjxnIGlkPSJlbGVtX0FuZHJvaWQgVmlldyBTeXN0ZW0iPjxyZWN0IGZpbGw9IiNGMUYxRjEiIGhlaWdodD0iNDQuOTg0NCIgcng9IjIuNSIgcnk9IjIuNSIgc3R5bGU9InN0cm9rZTojMTgxODE4O3N0cm9rZS13aWR0aDowLjU7IiB3aWR0aD0iMTc1IiB4PSI0Ni41IiB5PSIyMjEiLz48cmVjdCBmaWxsPSIjRjFGMUYxIiBoZWlnaHQ9IjEwIiBzdHlsZT0ic3Ryb2tlOiMxODE4MTg7c3Ryb2tlLXdpZHRoOjAuNTsiIHdpZHRoPSIxNSIgeD0iMjAxLjUiIHk9IjIyNiIvPjxyZWN0IGZpbGw9IiNGMUYxRjEiIGhlaWdodD0iMiIgc3R5bGU9InN0cm9rZTojMTgxODE4O3N0cm9rZS13aWR0aDowLjU7IiB3aWR0aD0iNCIgeD0iMTk5LjUiIHk9IjIyOCIvPjxyZWN0IGZpbGw9IiNGMUYxRjEiIGhlaWdodD0iMiIgc3R5bGU9InN0cm9rZTojMTgxODE4O3N0cm9rZS13aWR0aDowLjU7IiB3aWR0aD0iNCIgeD0iMTk5LjUiIHk9IjIzMiIvPjx0ZXh0IGZpbGw9IiMwMDAwMDAiIGZvbnQtZmFtaWx5PSJzYW5zLXNlcmlmIiBmb250LXNpemU9IjE0IiBsZW5ndGhBZGp1c3Q9InNwYWNpbmciIHRleHRMZW5ndGg9IjEzNSIgeD0iNjEuNSIgeT0iMjU0LjIzNDQiPkFuZHJvaWQgVmlldyBTeXN0ZW08L3RleHQ+PC9nPjwhLS1lbnRpdHkgQW5kcm9pZF9NZWRpYS0tPjxnIGlkPSJlbGVtX0FuZHJvaWRfTWVkaWEiPjxyZWN0IGZpbGw9IiNGMUYxRjEiIGhlaWdodD0iNDQuOTg0NCIgcng9IjIuNSIgcnk9IjIuNSIgc3R5bGU9InN0cm9rZTojMTgxODE4O3N0cm9rZS13aWR0aDowLjU7IiB3aWR0aD0iMTY2IiB4PSIyNTciIHk9IjIyMSIvPjxyZWN0IGZpbGw9IiNGMUYxRjEiIGhlaWdodD0iMTAiIHN0eWxlPSJzdHJva2U6IzE4MTgxODtzdHJva2Utd2lkdGg6MC41OyIgd2lkdGg9IjE1IiB4PSI0MDMiIHk9IjIyNiIvPjxyZWN0IGZpbGw9IiNGMUYxRjEiIGhlaWdodD0iMiIgc3R5bGU9InN0cm9rZTojMTgxODE4O3N0cm9rZS13aWR0aDowLjU7IiB3aWR0aD0iNCIgeD0iNDAxIiB5PSIyMjgiLz48cmVjdCBmaWxsPSIjRjFGMUYxIiBoZWlnaHQ9IjIiIHN0eWxlPSJzdHJva2U6IzE4MTgxODtzdHJva2Utd2lkdGg6MC41OyIgd2lkdGg9IjQiIHg9IjQwMSIgeT0iMjMyIi8+PHRleHQgZmlsbD0iIzAwMDAwMCIgZm9udC1mYW1pbHk9InNhbnMtc2VyaWYiIGZvbnQtc2l6ZT0iMTQiIGxlbmd0aEFkanVzdD0ic3BhY2luZyIgdGV4dExlbmd0aD0iMTI2IiB4PSIyNzIiIHk9IjI1NC4yMzQ0Ij5BbmRyb2lkIE1lZGlhIEFQSXM8L3RleHQ+PC9nPjwhLS1lbnRpdHkgTmV0d29ya2luZyBTdGFjay0tPjxnIGlkPSJlbGVtX05ldHdvcmtpbmcgU3RhY2siPjxyZWN0IGZpbGw9IiNGMUYxRjEiIGhlaWdodD0iNDQuOTg0NCIgcng9IjIuNSIgcnk9IjIuNSIgc3R5bGU9InN0cm9rZTojMTgxODE4O3N0cm9rZS13aWR0aDowLjU7IiB3aWR0aD0iMTUzIiB4PSI2NjYuNSIgeT0iMjIxIi8+PHJlY3QgZmlsbD0iI0YxRjFGMSIgaGVpZ2h0PSIxMCIgc3R5bGU9InN0cm9rZTojMTgxODE4O3N0cm9rZS13aWR0aDowLjU7IiB3aWR0aD0iMTUiIHg9Ijc5OS41IiB5PSIyMjYiLz48cmVjdCBmaWxsPSIjRjFGMUYxIiBoZWlnaHQ9IjIiIHN0eWxlPSJzdHJva2U6IzE4MTgxODtzdHJva2Utd2lkdGg6MC41OyIgd2lkdGg9IjQiIHg9Ijc5Ny41IiB5PSIyMjgiLz48cmVjdCBmaWxsPSIjRjFGMUYxIiBoZWlnaHQ9IjIiIHN0eWxlPSJzdHJva2U6IzE4MTgxODtzdHJva2Utd2lkdGg6MC41OyIgd2lkdGg9IjQiIHg9Ijc5Ny41IiB5PSIyMzIiLz48dGV4dCBmaWxsPSIjMDAwMDAwIiBmb250LWZhbWlseT0ic2Fucy1zZXJpZiIgZm9udC1zaXplPSIxNCIgbGVuZ3RoQWRqdXN0PSJzcGFjaW5nIiB0ZXh0TGVuZ3RoPSIxMTMiIHg9IjY4MS41IiB5PSIyNTQuMjM0NCI+TmV0d29ya2luZyBTdGFjazwvdGV4dD48L2c+PCEtLWVudGl0eSBET00gRW5naW5lLS0+PGcgaWQ9ImVsZW1fRE9NIEVuZ2luZSI+PHJlY3QgZmlsbD0iI0YxRjFGMSIgaGVpZ2h0PSI0NC45ODQ0IiByeD0iMi41IiByeT0iMi41IiBzdHlsZT0ic3Ryb2tlOiMxODE4MTg7c3Ryb2tlLXdpZHRoOjAuNTsiIHdpZHRoPSIxMTAiIHg9Ijg1NSIgeT0iMjIxIi8+PHJlY3QgZmlsbD0iI0YxRjFGMSIgaGVpZ2h0PSIxMCIgc3R5bGU9InN0cm9rZTojMTgxODE4O3N0cm9rZS13aWR0aDowLjU7IiB3aWR0aD0iMTUiIHg9Ijk0NSIgeT0iMjI2Ii8+PHJlY3QgZmlsbD0iI0YxRjFGMSIgaGVpZ2h0PSIyIiBzdHlsZT0ic3Ryb2tlOiMxODE4MTg7c3Ryb2tlLXdpZHRoOjAuNTsiIHdpZHRoPSI0IiB4PSI5NDMiIHk9IjIyOCIvPjxyZWN0IGZpbGw9IiNGMUYxRjEiIGhlaWdodD0iMiIgc3R5bGU9InN0cm9rZTojMTgxODE4O3N0cm9rZS13aWR0aDowLjU7IiB3aWR0aD0iNCIgeD0iOTQzIiB5PSIyMzIiLz48dGV4dCBmaWxsPSIjMDAwMDAwIiBmb250LWZhbWlseT0ic2Fucy1zZXJpZiIgZm9udC1zaXplPSIxNCIgbGVuZ3RoQWRqdXN0PSJzcGFjaW5nIiB0ZXh0TGVuZ3RoPSI3MCIgeD0iODcwIiB5PSIyNTQuMjM0NCI+RE9NIEVuZ2luZTwvdGV4dD48L2c+PCEtLWVudGl0eSBKYXZhU2NyaXB0IEV4ZWN1dGlvbiBFbmdpbmUtLT48ZyBpZD0iZWxlbV9KYXZhU2NyaXB0IEV4ZWN1dGlvbiBFbmdpbmUiPjxyZWN0IGZpbGw9IiNGMUYxRjEiIGhlaWdodD0iNDQuOTg0NCIgcng9IjIuNSIgcnk9IjIuNSIgc3R5bGU9InN0cm9rZTojMTgxODE4O3N0cm9rZS13aWR0aDowLjU7IiB3aWR0aD0iMjMwIiB4PSIxMDAwIiB5PSIyMjEiLz48cmVjdCBmaWxsPSIjRjFGMUYxIiBoZWlnaHQ9IjEwIiBzdHlsZT0ic3Ryb2tlOiMxODE4MTg7c3Ryb2tlLXdpZHRoOjAuNTsiIHdpZHRoPSIxNSIgeD0iMTIxMCIgeT0iMjI2Ii8+PHJlY3QgZmlsbD0iI0YxRjFGMSIgaGVpZ2h0PSIyIiBzdHlsZT0ic3Ryb2tlOiMxODE4MTg7c3Ryb2tlLXdpZHRoOjAuNTsiIHdpZHRoPSI0IiB4PSIxMjA4IiB5PSIyMjgiLz48cmVjdCBmaWxsPSIjRjFGMUYxIiBoZWlnaHQ9IjIiIHN0eWxlPSJzdHJva2U6IzE4MTgxODtzdHJva2Utd2lkdGg6MC41OyIgd2lkdGg9IjQiIHg9IjEyMDgiIHk9IjIzMiIvPjx0ZXh0IGZpbGw9IiMwMDAwMDAiIGZvbnQtZmFtaWx5PSJzYW5zLXNlcmlmIiBmb250LXNpemU9IjE0IiBsZW5ndGhBZGp1c3Q9InNwYWNpbmciIHRleHRMZW5ndGg9IjE5MCIgeD0iMTAxNSIgeT0iMjU0LjIzNDQiPkphdmFTY3JpcHQgRXhlY3V0aW9uIEVuZ2luZTwvdGV4dD48L2c+PCEtLWVudGl0eSBSZW5kZXJpbmcgRW5naW5lLS0+PGcgaWQ9ImVsZW1fUmVuZGVyaW5nIEVuZ2luZSI+PHJlY3QgZmlsbD0iI0YxRjFGMSIgaGVpZ2h0PSI0NC45ODQ0IiByeD0iMi41IiByeT0iMi41IiBzdHlsZT0ic3Ryb2tlOiMxODE4MTg7c3Ryb2tlLXdpZHRoOjAuNTsiIHdpZHRoPSIxNTIiIHg9IjQ3OSIgeT0iMjIxIi8+PHJlY3QgZmlsbD0iI0YxRjFGMSIgaGVpZ2h0PSIxMCIgc3R5bGU9InN0cm9rZTojMTgxODE4O3N0cm9rZS13aWR0aDowLjU7IiB3aWR0aD0iMTUiIHg9IjYxMSIgeT0iMjI2Ii8+PHJlY3QgZmlsbD0iI0YxRjFGMSIgaGVpZ2h0PSIyIiBzdHlsZT0ic3Ryb2tlOiMxODE4MTg7c3Ryb2tlLXdpZHRoOjAuNTsiIHdpZHRoPSI0IiB4PSI2MDkiIHk9IjIyOCIvPjxyZWN0IGZpbGw9IiNGMUYxRjEiIGhlaWdodD0iMiIgc3R5bGU9InN0cm9rZTojMTgxODE4O3N0cm9rZS13aWR0aDowLjU7IiB3aWR0aD0iNCIgeD0iNjA5IiB5PSIyMzIiLz48dGV4dCBmaWxsPSIjMDAwMDAwIiBmb250LWZhbWlseT0ic2Fucy1zZXJpZiIgZm9udC1zaXplPSIxNCIgbGVuZ3RoQWRqdXN0PSJzcGFjaW5nIiB0ZXh0TGVuZ3RoPSIxMTIiIHg9IjQ5NCIgeT0iMjU0LjIzNDQiPlJlbmRlcmluZyBFbmdpbmU8L3RleHQ+PC9nPjwhLS1lbnRpdHkgR3JhcGhpY3MtLT48ZyBpZD0iZWxlbV9HcmFwaGljcyI+PHJlY3QgZmlsbD0iI0YxRjFGMSIgaGVpZ2h0PSI0NC45ODQ0IiByeD0iMi41IiByeT0iMi41IiBzdHlsZT0ic3Ryb2tlOiMxODE4MTg7c3Ryb2tlLXdpZHRoOjAuNTsiIHdpZHRoPSI5NiIgeD0iMTcxIiB5PSIzNjIiLz48cmVjdCBmaWxsPSIjRjFGMUYxIiBoZWlnaHQ9IjEwIiBzdHlsZT0ic3Ryb2tlOiMxODE4MTg7c3Ryb2tlLXdpZHRoOjAuNTsiIHdpZHRoPSIxNSIgeD0iMjQ3IiB5PSIzNjciLz48cmVjdCBmaWxsPSIjRjFGMUYxIiBoZWlnaHQ9IjIiIHN0eWxlPSJzdHJva2U6IzE4MTgxODtzdHJva2Utd2lkdGg6MC41OyIgd2lkdGg9IjQiIHg9IjI0NSIgeT0iMzY5Ii8+PHJlY3QgZmlsbD0iI0YxRjFGMSIgaGVpZ2h0PSIyIiBzdHlsZT0ic3Ryb2tlOiMxODE4MTg7c3Ryb2tlLXdpZHRoOjAuNTsiIHdpZHRoPSI0IiB4PSIyNDUiIHk9IjM3MyIvPjx0ZXh0IGZpbGw9IiMwMDAwMDAiIGZvbnQtZmFtaWx5PSJzYW5zLXNlcmlmIiBmb250LXNpemU9IjE0IiBsZW5ndGhBZGp1c3Q9InNwYWNpbmciIHRleHRMZW5ndGg9IjU2IiB4PSIxODYiIHk9IjM5NS4yMzQ0Ij5HcmFwaGljczwvdGV4dD48L2c+PCEtLWVudGl0eSBBdWRpby0tPjxnIGlkPSJlbGVtX0F1ZGlvIj48cmVjdCBmaWxsPSIjRjFGMUYxIiBoZWlnaHQ9IjQ0Ljk4NDQiIHJ4PSIyLjUiIHJ5PSIyLjUiIHN0eWxlPSJzdHJva2U6IzE4MTgxODtzdHJva2Utd2lkdGg6MC41OyIgd2lkdGg9Ijc1IiB4PSIzMDIuNSIgeT0iMzYyIi8+PHJlY3QgZmlsbD0iI0YxRjFGMSIgaGVpZ2h0PSIxMCIgc3R5bGU9InN0cm9rZTojMTgxODE4O3N0cm9rZS13aWR0aDowLjU7IiB3aWR0aD0iMTUiIHg9IjM1Ny41IiB5PSIzNjciLz48cmVjdCBmaWxsPSIjRjFGMUYxIiBoZWlnaHQ9IjIiIHN0eWxlPSJzdHJva2U6IzE4MTgxODtzdHJva2Utd2lkdGg6MC41OyIgd2lkdGg9IjQiIHg9IjM1NS41IiB5PSIzNjkiLz48cmVjdCBmaWxsPSIjRjFGMUYxIiBoZWlnaHQ9IjIiIHN0eWxlPSJzdHJva2U6IzE4MTgxODtzdHJva2Utd2lkdGg6MC41OyIgd2lkdGg9IjQiIHg9IjM1NS41IiB5PSIzNzMiLz48dGV4dCBmaWxsPSIjMDAwMDAwIiBmb250LWZhbWlseT0ic2Fucy1zZXJpZiIgZm9udC1zaXplPSIxNCIgbGVuZ3RoQWRqdXN0PSJzcGFjaW5nIiB0ZXh0TGVuZ3RoPSIzNSIgeD0iMzE3LjUiIHk9IjM5NS4yMzQ0Ij5BdWRpbzwvdGV4dD48L2c+PCEtLWVudGl0eSBCaW5kZXIgKElQQyktLT48ZyBpZD0iZWxlbV9CaW5kZXIgKElQQykiPjxyZWN0IGZpbGw9IiNGMUYxRjEiIGhlaWdodD0iNDQuOTg0NCIgcng9IjIuNSIgcnk9IjIuNSIgc3R5bGU9InN0cm9rZTojMTgxODE4O3N0cm9rZS13aWR0aDowLjU7IiB3aWR0aD0iMTI2IiB4PSI0MTMiIHk9IjM2MiIvPjxyZWN0IGZpbGw9IiNGMUYxRjEiIGhlaWdodD0iMTAiIHN0eWxlPSJzdHJva2U6IzE4MTgxODtzdHJva2Utd2lkdGg6MC41OyIgd2lkdGg9IjE1IiB4PSI1MTkiIHk9IjM2NyIvPjxyZWN0IGZpbGw9IiNGMUYxRjEiIGhlaWdodD0iMiIgc3R5bGU9InN0cm9rZTojMTgxODE4O3N0cm9rZS13aWR0aDowLjU7IiB3aWR0aD0iNCIgeD0iNTE3IiB5PSIzNjkiLz48cmVjdCBmaWxsPSIjRjFGMUYxIiBoZWlnaHQ9IjIiIHN0eWxlPSJzdHJva2U6IzE4MTgxODtzdHJva2Utd2lkdGg6MC41OyIgd2lkdGg9IjQiIHg9IjUxNyIgeT0iMzczIi8+PHRleHQgZmlsbD0iIzAwMDAwMCIgZm9udC1mYW1pbHk9InNhbnMtc2VyaWYiIGZvbnQtc2l6ZT0iMTQiIGxlbmd0aEFkanVzdD0ic3BhY2luZyIgdGV4dExlbmd0aD0iODYiIHg9IjQyOCIgeT0iMzk1LjIzNDQiPkJpbmRlciAoSVBDKTwvdGV4dD48L2c+PCEtLWxpbmsgQXBwcyB0byBBbmRyb2lkIFZpZXcgU3lzdGVtLS0+PGcgaWQ9ImxpbmtfQXBwc19BbmRyb2lkIFZpZXcgU3lzdGVtIj48cGF0aCBkPSJNNzMyLjI4LDEwNC4yNiBDNjE0LjM0LDEwNy43OCA0MDcsMTIyLjU2IDI0MCwxODAgQzIxNC4xNiwxODguODkgMTg3LjY4LDIwNC41IDE2Ny42NSwyMTcuODkgIiBmaWxsPSJub25lIiBpZD0iQXBwcy10by1BbmRyb2lkIFZpZXcgU3lzdGVtIiBzdHlsZT0ic3Ryb2tlOiMxODE4MTg7c3Ryb2tlLXdpZHRoOjEuMDtzdHJva2UtZGFzaGFycmF5OjcuMCw3LjA7Ii8+PHBvbHlnb24gZmlsbD0iIzE4MTgxOCIgcG9pbnRzPSIxNjMuNDgsMjIwLjcxLDE3My4xNzY1LDIxOC45ODQ0LDE2Ny42MjI2LDIxNy45MTAyLDE2OC42OTY4LDIxMi4zNTYzLDE2My40OCwyMjAuNzEiIHN0eWxlPSJzdHJva2U6IzE4MTgxODtzdHJva2Utd2lkdGg6MS4wOyIvPjx0ZXh0IGZpbGw9IiMwMDAwMDAiIGZvbnQtZmFtaWx5PSJzYW5zLXNlcmlmIiBmb250LXNpemU9IjEzIiBsZW5ndGhBZGp1c3Q9InNwYWNpbmciIHRleHRMZW5ndGg9IjYwIiB4PSIzMTciIHk9IjE3MC4yODkxIj5pbnRlcmFjdHM8L3RleHQ+PC9nPjwhLS1saW5rIEFwcHMgdG8gTmV0d29ya2luZyBTdGFjay0tPjxnIGlkPSJsaW5rX0FwcHNfTmV0d29ya2luZyBTdGFjayI+PHBhdGggZD0iTTgwOS42MSwxMjUuMTggQzgwMi42NCwxMzQuNzQgNzk0LjYyLDE0Ni4yMyA3ODgsMTU3IEM3NzYuMTIsMTc2LjMzIDc2NC4yMywxOTkuMTEgNzU1LjY2LDIxNi4yOSAiIGZpbGw9Im5vbmUiIGlkPSJBcHBzLXRvLU5ldHdvcmtpbmcgU3RhY2siIHN0eWxlPSJzdHJva2U6IzE4MTgxODtzdHJva2Utd2lkdGg6MS4wO3N0cm9rZS1kYXNoYXJyYXk6Ny4wLDcuMDsiLz48cG9seWdvbiBmaWxsPSIjMTgxODE4IiBwb2ludHM9Ijc1My4zMywyMjAuOTgsNzYwLjkxNjYsMjE0LjY5OTYsNzU1LjU1NDcsMjE2LjUwMjIsNzUzLjc1MjEsMjExLjE0MDIsNzUzLjMzLDIyMC45OCIgc3R5bGU9InN0cm9rZTojMTgxODE4O3N0cm9rZS13aWR0aDoxLjA7Ii8+PHRleHQgZmlsbD0iIzAwMDAwMCIgZm9udC1mYW1pbHk9InNhbnMtc2VyaWYiIGZvbnQtc2l6ZT0iMTMiIGxlbmd0aEFkanVzdD0ic3BhY2luZyIgdGV4dExlbmd0aD0iNjAiIHg9Ijc4OSIgeT0iMTcwLjI4OTEiPmludGVyYWN0czwvdGV4dD48L2c+PCEtLWxpbmsgQXBwcyB0byBET00gRW5naW5lLS0+PGcgaWQ9ImxpbmtfQXBwc19ET00gRW5naW5lIj48cGF0aCBkPSJNODM5LjEyLDEyNS4yMiBDODU0LjA0LDE0OS45IDg3OC4zOCwxOTAuMTggODk0LjI5LDIxNi41MSAiIGZpbGw9Im5vbmUiIGlkPSJBcHBzLXRvLURPTSBFbmdpbmUiIHN0eWxlPSJzdHJva2U6IzE4MTgxODtzdHJva2Utd2lkdGg6MS4wO3N0cm9rZS1kYXNoYXJyYXk6Ny4wLDcuMDsiLz48cG9seWdvbiBmaWxsPSIjMTgxODE4IiBwb2ludHM9Ijg5Ni45NywyMjAuOTMsODk1Ljc0NTYsMjExLjE1NzUsODk0LjM4NywyMTYuNjQ4OCw4ODguODk1NywyMTUuMjkwMyw4OTYuOTcsMjIwLjkzIiBzdHlsZT0ic3Ryb2tlOiMxODE4MTg7c3Ryb2tlLXdpZHRoOjEuMDsiLz48dGV4dCBmaWxsPSIjMDAwMDAwIiBmb250LWZhbWlseT0ic2Fucy1zZXJpZiIgZm9udC1zaXplPSIxMyIgbGVuZ3RoQWRqdXN0PSJzcGFjaW5nIiB0ZXh0TGVuZ3RoPSI2MCIgeD0iODY2IiB5PSIxNzAuMjg5MSI+aW50ZXJhY3RzPC90ZXh0PjwvZz48IS0tbGluayBBcHBzIHRvIEphdmFTY3JpcHQgRXhlY3V0aW9uIEVuZ2luZS0tPjxnIGlkPSJsaW5rX0FwcHNfSmF2YVNjcmlwdCBFeGVjdXRpb24gRW5naW5lIj48cGF0aCBkPSJNODcwLjg0LDEyNS4wNyBDOTIzLjU4LDE1MC40MyAxMDEwLjg1LDE5Mi40MSAxMDY1LjUyLDIxOC43ICIgZmlsbD0ibm9uZSIgaWQ9IkFwcHMtdG8tSmF2YVNjcmlwdCBFeGVjdXRpb24gRW5naW5lIiBzdHlsZT0ic3Ryb2tlOiMxODE4MTg7c3Ryb2tlLXdpZHRoOjEuMDtzdHJva2UtZGFzaGFycmF5OjcuMCw3LjA7Ii8+PHBvbHlnb24gZmlsbD0iIzE4MTgxOCIgcG9pbnRzPSIxMDcwLjA2LDIyMC44OCwxMDYzLjY5MjcsMjEzLjM2NjIsMTA2NS41NTY5LDIxOC43MDcxLDEwNjAuMjE2LDIyMC41NzEyLDEwNzAuMDYsMjIwLjg4IiBzdHlsZT0ic3Ryb2tlOiMxODE4MTg7c3Ryb2tlLXdpZHRoOjEuMDsiLz48dGV4dCBmaWxsPSIjMDAwMDAwIiBmb250LWZhbWlseT0ic2Fucy1zZXJpZiIgZm9udC1zaXplPSIxMyIgbGVuZ3RoQWRqdXN0PSJzcGFjaW5nIiB0ZXh0TGVuZ3RoPSI2MCIgeD0iOTYyIiB5PSIxNzAuMjg5MSI+aW50ZXJhY3RzPC90ZXh0PjwvZz48IS0tbGluayBBbmRyb2lkIFZpZXcgU3lzdGVtIHRvIEdyYXBoaWNzLS0+PGcgaWQ9ImxpbmtfQW5kcm9pZCBWaWV3IFN5c3RlbV9HcmFwaGljcyI+PHBhdGggZD0iTTE0Ny4yOCwyNjYuMjIgQzE2Mi4zOCwyOTAuOSAxODcsMzMxLjE4IDIwMy4xMSwzNTcuNTEgIiBmaWxsPSJub25lIiBpZD0iQW5kcm9pZCBWaWV3IFN5c3RlbS10by1HcmFwaGljcyIgc3R5bGU9InN0cm9rZTojMTgxODE4O3N0cm9rZS13aWR0aDoxLjA7Ii8+PHBvbHlnb24gZmlsbD0iIzE4MTgxOCIgcG9pbnRzPSIyMDUuODEsMzYxLjkzLDIwNC41NDczLDM1Mi4xNjI0LDIwMy4yMTAzLDM1Ny42NTksMTk3LjcxMzcsMzU2LjMyMiwyMDUuODEsMzYxLjkzIiBzdHlsZT0ic3Ryb2tlOiMxODE4MTg7c3Ryb2tlLXdpZHRoOjEuMDsiLz48dGV4dCBmaWxsPSIjMDAwMDAwIiBmb250LWZhbWlseT0ic2Fucy1zZXJpZiIgZm9udC1zaXplPSIxMyIgbGVuZ3RoQWRqdXN0PSJzcGFjaW5nIiB0ZXh0TGVuZ3RoPSI1NCIgeD0iMTc0IiB5PSIzMTEuMjg5MSI+ZGlzcGxheXM8L3RleHQ+PC9nPjwhLS1saW5rIEFuZHJvaWRfTWVkaWEgdG8gQXVkaW8tLT48ZyBpZD0ibGlua19BbmRyb2lkX01lZGlhX0F1ZGlvIj48cGF0aCBkPSJNMzQwLDI2Ni4yMiBDMzQwLDI5MC43IDM0MCwzMzAuNTEgMzQwLDM1Ni44NSAiIGZpbGw9Im5vbmUiIGlkPSJBbmRyb2lkX01lZGlhLXRvLUF1ZGlvIiBzdHlsZT0ic3Ryb2tlOiMxODE4MTg7c3Ryb2tlLXdpZHRoOjEuMDsiLz48cG9seWdvbiBmaWxsPSIjMTgxODE4IiBwb2ludHM9IjM0MCwzNjEuOTMsMzQ0LDM1Mi45MywzNDAsMzU2LjkzLDMzNiwzNTIuOTMsMzQwLDM2MS45MyIgc3R5bGU9InN0cm9rZTojMTgxODE4O3N0cm9rZS13aWR0aDoxLjA7Ii8+PHRleHQgZmlsbD0iIzAwMDAwMCIgZm9udC1mYW1pbHk9InNhbnMtc2VyaWYiIGZvbnQtc2l6ZT0iMTMiIGxlbmd0aEFkanVzdD0ic3BhY2luZyIgdGV4dExlbmd0aD0iMzQiIHg9IjM0MSIgeT0iMzExLjI4OTEiPnBsYXlzPC90ZXh0PjwvZz48IS0tbGluayBSZW5kZXJpbmcgRW5naW5lIHRvIEJpbmRlciAoSVBDKS0tPjxnIGlkPSJsaW5rX1JlbmRlcmluZyBFbmdpbmVfQmluZGVyIChJUEMpIj48cGF0aCBkPSJNNTQyLjY2LDI2Ni4yMiBDNTI4LjYzLDI5MC45IDUwNS43NCwzMzEuMTggNDkwLjc3LDM1Ny41MSAiIGZpbGw9Im5vbmUiIGlkPSJSZW5kZXJpbmcgRW5naW5lLXRvLUJpbmRlciAoSVBDKSIgc3R5bGU9InN0cm9rZTojMTgxODE4O3N0cm9rZS13aWR0aDoxLjA7Ii8+PHBvbHlnb24gZmlsbD0iIzE4MTgxOCIgcG9pbnRzPSI0ODguMjYsMzYxLjkzLDQ5Ni4xODc5LDM1Ni4wODYzLDQ5MC43MzMsMzU3LjU4NDQsNDg5LjIzNDksMzUyLjEyOTUsNDg4LjI2LDM2MS45MyIgc3R5bGU9InN0cm9rZTojMTgxODE4O3N0cm9rZS13aWR0aDoxLjA7Ii8+PHRleHQgZmlsbD0iIzAwMDAwMCIgZm9udC1mYW1pbHk9InNhbnMtc2VyaWYiIGZvbnQtc2l6ZT0iMTMiIGxlbmd0aEFkanVzdD0ic3BhY2luZyIgdGV4dExlbmd0aD0iODAiIHg9IjUyMyIgeT0iMzExLjI4OTEiPmNvbW11bmljYXRlczwvdGV4dD48L2c+PCEtLVNSQz1bVlBESEp5OG00Q1ZWX0hJTkZIWHVXMF9XMG1hV0FXZkE4RDU3U3NpbFU2N2hjaE9KWVU2eHN0TENjRGpDemgycWx4bHh6elREZXpaWGJZMFFBc2FvYloxMUluQWNNT285V3l0MUVhZVotQnUyeThfLVhSTEVNQTNaSjVkZUxRTGw1OEZWaVZzbzA0MWFnU3VLQUdWSGdNNFNrYlRXMTZaM1l3VUZMbnEzdUN2V0lsbEN4Q3dKbmdqdnd2SGdfdkxmTnVObE9mT2E2S0VkQ2FRdl8xd01Hdnh3YUhTUzZwSEM1Z3VoRS1qU0VLd2Y5U1Nwa0k4bWdvcmlkRV9HMjc3eGllSVBzaEFZbmpPWlZrOTY2RE9FUGJ5YXlrMldXcnNKYWNJQUNNVldaeVpKUVBfOEE0Z1d6dTE2eGo0R1o2RmgzOGhHVk80N0NjcS14bXRnM25Rc0FKNk5kM0xNOXJwNFdUdnlEVXI3UHVWNTNTRG1FNmdfN3hXMUxld0FCQk82RG9Ic2FYU3NFdmRfakRRQVY1THhwaTVXVDY3NHJxWXNFaTUzYzdGdnpQSGFnU1haNUxDcVJibk9vVFI0LUhCbERDckx5R0VHM3RKeTBHMDBdLS0+PC9nPjwvc3ZnPg==;" vertex="1" parent="1">
            <mxGeometry x="-800" y="3590" width="1462.64" height="520" as="geometry" />
          </mxCell>
        </UserObject>
      </root>
    </mxGraphModel>
  </diagram>
</mxfile>
